<ttFont>
    <TTGlyph name=".notdef" xMin="68" yMin="0" xMax="612" yMax="1365">
      <contour>
        <pt x="544" y="68" on="1"/>
        <pt x="544" y="1297" on="1"/>
        <pt x="136" y="1297" on="1"/>
        <pt x="136" y="68" on="1"/>
      </contour>
      <contour>
        <pt x="68" y="1365" on="1"/>
        <pt x="612" y="1365" on="1"/>
        <pt x="612" y="0" on="1"/>
        <pt x="68" y="0" on="1"/>
      </contour>
    </TTGlyph>
    <TTGlyph name="A" xMin="63" yMin="0" xMax="1395" yMax="1579">
      <contour>
        <pt x="879" y="1579" on="1"/>
        <pt x="1395" y="0" on="1"/>
        <pt x="1196" y="0" on="1"/>
        <pt x="1073" y="383" on="1"/>
        <pt x="385" y="383" on="1"/>
        <pt x="262" y="0" on="1"/>
        <pt x="63" y="0" on="1"/>
        <pt x="579" y="1579" on="1"/>
      </contour>
      <contour>
        <pt x="412" y="485" on="1"/>
        <pt x="1046" y="485" on="1"/>
        <pt x="729" y="1456" on="1"/>
      </contour>
    </TTGlyph>
    <TTGlyph name="AE" xMin="63" yMin="0" xMax="1855" yMax="1579">
      <contour>
        <pt x="1014" y="1459" on="1"/>
        <pt x="524" y="493" on="1"/>
        <pt x="1014" y="493" on="1"/>
      </contour>
      <contour>
        <pt x="1827" y="1436" on="1"/>
        <pt x="1179" y="1436" on="1"/>
        <pt x="1179" y="891" on="1"/>
        <pt x="1784" y="891" on="1"/>
        <pt x="1784" y="764" on="1"/>
        <pt x="1181" y="764" on="1"/>
        <pt x="1181" y="143" on="1"/>
        <pt x="1855" y="143" on="1"/>
        <pt x="1855" y="0" on="1"/>
        <pt x="1016" y="0" on="1"/>
        <pt x="1016" y="371" on="1"/>
        <pt x="464" y="371" on="1"/>
        <pt x="272" y="0" on="1"/>
        <pt x="63" y="0" on="1"/>
        <pt x="889" y="1579" on="1"/>
        <pt x="1827" y="1579" on="1"/>
      </contour>
    </TTGlyph>
    <TTGlyph name="Aacute" xMin="63" yMin="0" xMax="1395" yMax="2353">
      <component glyphName="A" x="0" y="0" flags="0x1204"/>
      <component glyphName="acute" x="180" y="1615" flags="0x1004"/>
    </TTGlyph>
    <TTGlyph name="Abreve" xMin="63" yMin="0" xMax="1395" yMax="1923">
      <component glyphName="A" x="0" y="0" flags="0x1204"/>
      <component glyphName="breve" x="346" y="1615" flags="0x1004"/>
    </TTGlyph>
    <TTGlyph name="Acircumflex" xMin="63" yMin="0" xMax="1395" yMax="2278">
      <component glyphName="A" x="0" y="0" flags="0x1204"/>
      <component glyphName="circumflex" x="15" y="1615" flags="0x1004"/>
    </TTGlyph>
    <TTGlyph name="Adieresis" xMin="63" yMin="0" xMax="1395" yMax="1946">
      <component glyphName="A" x="0" y="0" flags="0x1204"/>
      <component glyphName="dieresis" x="252" y="1615" flags="0x1004"/>
    </TTGlyph>
    <TTGlyph name="Agrave" xMin="63" yMin="0" xMax="1395" yMax="2349">
      <component glyphName="A" x="0" y="0" flags="0x1204"/>
      <component glyphName="grave" x="344" y="1615" flags="0x1004"/>
    </TTGlyph>
    <TTGlyph name="Aring" xMin="63" yMin="0" xMax="1395" yMax="2166">
      <component glyphName="A" x="0" y="0" flags="0x1204"/>
      <component glyphName="ring" x="-123" y="1615" flags="0x1004"/>
    </TTGlyph>
    <TTGlyph name="Atilde" xMin="63" yMin="0" xMax="1395" yMax="1986">
      <component glyphName="A" x="0" y="0" flags="0x1204"/>
      <component glyphName="tilde" x="-121" y="1615" flags="0x1004"/>
    </TTGlyph>
    <TTGlyph name="B" xMin="153" yMin="0" xMax="1273" yMax="1579">
      <contour>
        <pt x="514" y="1579" on="1"/>
        <pt x="576" y="1579" on="0"/>
        <pt x="725" y="1574" on="0"/>
        <pt x="875" y="1552" on="0"/>
        <pt x="1016" y="1506" on="0"/>
        <pt x="1125" y="1427" on="0"/>
        <pt x="1191" y="1307" on="0"/>
        <pt x="1191" y="1221" on="1"/>
        <pt x="1191" y="1115" on="0"/>
        <pt x="1145" y="985" on="0"/>
        <pt x="1059" y="909" on="0"/>
        <pt x="939" y="873" on="0"/>
        <pt x="866" y="862" on="1"/>
        <pt x="908" y="857" on="0"/>
        <pt x="1001" y="840" on="0"/>
        <pt x="1091" y="803" on="0"/>
        <pt x="1174" y="742" on="0"/>
        <pt x="1236" y="647" on="0"/>
        <pt x="1273" y="513" on="0"/>
        <pt x="1273" y="421" on="1"/>
        <pt x="1273" y="326" on="0"/>
        <pt x="1228" y="190" on="0"/>
        <pt x="1143" y="97" on="0"/>
        <pt x="1020" y="40" on="0"/>
        <pt x="864" y="10" on="0"/>
        <pt x="678" y="0" on="0"/>
        <pt x="573" y="0" on="1"/>
        <pt x="153" y="0" on="1"/>
        <pt x="153" y="1579" on="1"/>
      </contour>
      <contour>
        <pt x="573" y="143" on="1"/>
        <pt x="721" y="143" on="0"/>
        <pt x="920" y="179" on="0"/>
        <pt x="1040" y="255" on="0"/>
        <pt x="1091" y="374" on="0"/>
        <pt x="1091" y="457" on="1"/>
        <pt x="1091" y="550" on="0"/>
        <pt x="1034" y="677" on="0"/>
        <pt x="915" y="753" on="0"/>
        <pt x="734" y="786" on="0"/>
        <pt x="610" y="786" on="1"/>
        <pt x="347" y="786" on="1"/>
        <pt x="347" y="143" on="1"/>
      </contour>
      <contour>
        <pt x="347" y="915" on="1"/>
        <pt x="606" y="915" on="1"/>
        <pt x="730" y="915" on="0"/>
        <pt x="893" y="947" on="0"/>
        <pt x="988" y="1018" on="0"/>
        <pt x="1026" y="1131" on="0"/>
        <pt x="1026" y="1212" on="1"/>
        <pt x="1026" y="1272" on="0"/>
        <pt x="971" y="1357" on="0"/>
        <pt x="850" y="1411" on="0"/>
        <pt x="656" y="1436" on="0"/>
        <pt x="518" y="1436" on="1"/>
        <pt x="347" y="1436" on="1"/>
      </contour>
    </TTGlyph>
    <TTGlyph name="C" xMin="103" yMin="-41" xMax="1213" yMax="1610">
      <contour>
        <pt x="304" y="768" on="1"/>
        <pt x="304" y="613" on="0"/>
        <pt x="359" y="369" on="0"/>
        <pt x="473" y="199" on="0"/>
        <pt x="651" y="109" on="0"/>
        <pt x="774" y="109" on="1"/>
        <pt x="852" y="109" on="0"/>
        <pt x="991" y="143" on="0"/>
        <pt x="1044" y="163" on="1"/>
        <pt x="1106" y="187" on="0"/>
        <pt x="1157" y="218" on="1"/>
        <pt x="1213" y="79" on="1"/>
        <pt x="1153" y="45" on="0"/>
        <pt x="1083" y="19" on="1"/>
        <pt x="1023" y="-4" on="0"/>
        <pt x="864" y="-41" on="0"/>
        <pt x="773" y="-41" on="1"/>
        <pt x="601" y="-41" on="0"/>
        <pt x="349" y="71" on="0"/>
        <pt x="184" y="280" on="0"/>
        <pt x="103" y="579" on="0"/>
        <pt x="103" y="767" on="1"/>
        <pt x="103" y="858" on="0"/>
        <pt x="131" y="1053" on="0"/>
        <pt x="195" y="1241" on="0"/>
        <pt x="298" y="1409" on="0"/>
        <pt x="449" y="1536" on="0"/>
        <pt x="650" y="1610" on="0"/>
        <pt x="781" y="1610" on="1"/>
        <pt x="868" y="1610" on="0"/>
        <pt x="1016" y="1585" on="0"/>
        <pt x="1070" y="1570" on="1"/>
        <pt x="1133" y="1552" on="0"/>
        <pt x="1185" y="1530" on="1"/>
        <pt x="1140" y="1385" on="1"/>
        <pt x="1095" y="1405" on="0"/>
        <pt x="1040" y="1421" on="1"/>
        <pt x="992" y="1435" on="0"/>
        <pt x="865" y="1458" on="0"/>
        <pt x="788" y="1458" on="1"/>
        <pt x="660" y="1458" on="0"/>
        <pt x="476" y="1354" on="0"/>
        <pt x="359" y="1170" on="0"/>
        <pt x="304" y="917" on="0"/>
      </contour>
    </TTGlyph>
    <TTGlyph name="Cacute" xMin="103" yMin="-41" xMax="1213" yMax="2353">
      <component glyphName="C" x="0" y="0" flags="0x1204"/>
      <component glyphName="acute" x="232" y="1615" flags="0x1004"/>
    </TTGlyph>
    <TTGlyph name="Ccedilla" xMin="103" yMin="-617" xMax="1213" yMax="1610">
      <component glyphName="C" x="0" y="0" flags="0x1204"/>
      <component glyphName="cedilla" x="470" y="-39" flags="0x1004"/>
    </TTGlyph>
    <TTGlyph name="Cgrave" xMin="103" yMin="-41" xMax="1213" yMax="2349">
      <component glyphName="C" x="0" y="0" flags="0x1204"/>
      <component glyphName="grave" x="396" y="1615" flags="0x1004"/>
    </TTGlyph>
    <TTGlyph name="D" xMin="156" yMin="0" xMax="1385" yMax="1579">
      <contour>
        <pt x="1184" y="789" on="1"/>
        <pt x="1184" y="1108" on="0"/>
        <pt x="967" y="1436" on="0"/>
        <pt x="742" y="1436" on="1"/>
        <pt x="347" y="1436" on="1"/>
        <pt x="347" y="144" on="1"/>
        <pt x="719" y="144" on="1"/>
        <pt x="949" y="144" on="0"/>
        <pt x="1184" y="470" on="0"/>
      </contour>
      <contour>
        <pt x="1385" y="796" on="1"/>
        <pt x="1385" y="688" on="0"/>
        <pt x="1360" y="486" on="0"/>
        <pt x="1300" y="309" on="0"/>
        <pt x="1200" y="163" on="0"/>
        <pt x="1050" y="58" on="0"/>
        <pt x="847" y="0" on="0"/>
        <pt x="713" y="0" on="1"/>
        <pt x="156" y="0" on="1"/>
        <pt x="156" y="1579" on="1"/>
        <pt x="695" y="1579" on="1"/>
        <pt x="867" y="1579" on="0"/>
        <pt x="1125" y="1488" on="0"/>
        <pt x="1298" y="1298" on="0"/>
        <pt x="1385" y="1001" on="0"/>
      </contour>
    </TTGlyph>
    <TTGlyph name="E" xMin="153" yMin="0" xMax="1136" yMax="1579">
      <contour>
        <pt x="153" y="0" on="1"/>
        <pt x="153" y="1579" on="1"/>
        <pt x="1123" y="1579" on="1"/>
        <pt x="1123" y="1436" on="1"/>
        <pt x="347" y="1436" on="1"/>
        <pt x="347" y="891" on="1"/>
        <pt x="1025" y="891" on="1"/>
        <pt x="1025" y="776" on="1"/>
        <pt x="347" y="776" on="1"/>
        <pt x="347" y="143" on="1"/>
        <pt x="1136" y="143" on="1"/>
        <pt x="1136" y="0" on="1"/>
      </contour>
    </TTGlyph>
    <TTGlyph name="Eacute" xMin="153" yMin="0" xMax="1136" yMax="2353">
      <component glyphName="E" x="0" y="0" flags="0x1204"/>
      <component glyphName="acute" x="95" y="1615" flags="0x1004"/>
    </TTGlyph>
    <TTGlyph name="Ebreve" xMin="153" yMin="0" xMax="1136" yMax="1923">
      <component glyphName="E" x="0" y="0" flags="0x1204"/>
      <component glyphName="breve" x="261" y="1615" flags="0x1004"/>
    </TTGlyph>
    <TTGlyph name="Ecaron" xMin="153" yMin="0" xMax="1136" yMax="2255">
      <component glyphName="E" x="0" y="0" flags="0x1204"/>
      <component glyphName="caron" x="-69" y="1615" flags="0x1004"/>
    </TTGlyph>
    <TTGlyph name="Ecircumflex" xMin="153" yMin="0" xMax="1136" yMax="2278">
      <component glyphName="E" x="0" y="0" flags="0x1204"/>
      <component glyphName="circumflex" x="-69" y="1615" flags="0x1004"/>
    </TTGlyph>
    <TTGlyph name="Edieresis" xMin="153" yMin="0" xMax="1136" yMax="1946">
      <component glyphName="E" x="0" y="0" flags="0x1204"/>
      <component glyphName="dieresis" x="167" y="1615" flags="0x1004"/>
    </TTGlyph>
    <TTGlyph name="Egrave" xMin="153" yMin="0" xMax="1136" yMax="2349">
      <component glyphName="E" x="0" y="0" flags="0x1204"/>
      <component glyphName="grave" x="259" y="1615" flags="0x1004"/>
    </TTGlyph>
    <TTGlyph name="Eth" xMin="-6" yMin="0" xMax="1368" yMax="1579">
      <contour>
        <pt x="1167" y="789" on="1"/>
        <pt x="1167" y="932" on="0"/>
        <pt x="1124" y="1170" on="0"/>
        <pt x="1019" y="1341" on="0"/>
        <pt x="842" y="1436" on="0"/>
        <pt x="709" y="1436" on="1"/>
        <pt x="350" y="1436" on="1"/>
        <pt x="350" y="895" on="1"/>
        <pt x="584" y="895" on="1"/>
        <pt x="584" y="764" on="1"/>
        <pt x="350" y="764" on="1"/>
        <pt x="350" y="143" on="1"/>
        <pt x="709" y="143" on="1"/>
        <pt x="847" y="143" on="0"/>
        <pt x="1025" y="241" on="0"/>
        <pt x="1127" y="414" on="0"/>
        <pt x="1167" y="651" on="0"/>
      </contour>
      <contour>
        <pt x="1368" y="788" on="1"/>
        <pt x="1368" y="680" on="0"/>
        <pt x="1336" y="479" on="0"/>
        <pt x="1269" y="304" on="0"/>
        <pt x="1164" y="160" on="0"/>
        <pt x="1017" y="57" on="0"/>
        <pt x="827" y="0" on="0"/>
        <pt x="709" y="0" on="1"/>
        <pt x="156" y="0" on="1"/>
        <pt x="156" y="764" on="1"/>
        <pt x="-6" y="764" on="1"/>
        <pt x="-6" y="895" on="1"/>
        <pt x="156" y="895" on="1"/>
        <pt x="156" y="1579" on="1"/>
        <pt x="709" y="1579" on="1"/>
        <pt x="886" y="1579" on="0"/>
        <pt x="1136" y="1466" on="0"/>
        <pt x="1295" y="1258" on="0"/>
        <pt x="1368" y="966" on="0"/>
      </contour>
    </TTGlyph>
    <TTGlyph name="Euro" xMin="48" yMin="-41" xMax="1084" yMax="1447">
      <contour>
        <pt x="751" y="696" on="1"/>
        <pt x="751" y="574" on="1"/>
        <pt x="372" y="574" on="1"/>
        <pt x="384" y="450" on="0"/>
        <pt x="448" y="274" on="0"/>
        <pt x="545" y="163" on="0"/>
        <pt x="671" y="112" on="0"/>
        <pt x="745" y="112" on="1"/>
        <pt x="811" y="112" on="0"/>
        <pt x="920" y="133" on="0"/>
        <pt x="958" y="147" on="1"/>
        <pt x="1003" y="163" on="0"/>
        <pt x="1039" y="183" on="1"/>
        <pt x="1084" y="39" on="1"/>
        <pt x="1043" y="17" on="0"/>
        <pt x="990" y="-1" on="1"/>
        <pt x="945" y="-16" on="0"/>
        <pt x="820" y="-41" on="0"/>
        <pt x="742" y="-41" on="1"/>
        <pt x="615" y="-41" on="0"/>
        <pt x="417" y="55" on="0"/>
        <pt x="274" y="222" on="0"/>
        <pt x="188" y="446" on="0"/>
        <pt x="173" y="574" on="1"/>
        <pt x="48" y="574" on="1"/>
        <pt x="48" y="696" on="1"/>
        <pt x="165" y="696" on="1"/>
        <pt x="166" y="719" on="0"/>
        <pt x="168" y="766" on="0"/>
        <pt x="169" y="789" on="1"/>
        <pt x="48" y="789" on="1"/>
        <pt x="48" y="911" on="1"/>
        <pt x="185" y="911" on="1"/>
        <pt x="207" y="1024" on="0"/>
        <pt x="298" y="1220" on="0"/>
        <pt x="438" y="1364" on="0"/>
        <pt x="625" y="1447" on="0"/>
        <pt x="742" y="1447" on="1"/>
        <pt x="820" y="1447" on="0"/>
        <pt x="945" y="1422" on="0"/>
        <pt x="990" y="1408" on="1"/>
        <pt x="1043" y="1390" on="0"/>
        <pt x="1084" y="1369" on="1"/>
        <pt x="1039" y="1229" on="1"/>
        <pt x="1003" y="1248" on="0"/>
        <pt x="958" y="1263" on="1"/>
        <pt x="920" y="1276" on="0"/>
        <pt x="811" y="1298" on="0"/>
        <pt x="745" y="1298" on="1"/>
        <pt x="677" y="1298" on="0"/>
        <pt x="559" y="1254" on="0"/>
        <pt x="465" y="1161" on="0"/>
        <pt x="398" y="1014" on="0"/>
        <pt x="382" y="911" on="1"/>
        <pt x="808" y="911" on="1"/>
        <pt x="808" y="789" on="1"/>
        <pt x="366" y="789" on="1"/>
        <pt x="366" y="696" on="1"/>
      </contour>
    </TTGlyph>
    <TTGlyph name="F" xMin="153" yMin="0" xMax="1074" yMax="1579">
      <contour>
        <pt x="347" y="0" on="1"/>
        <pt x="153" y="0" on="1"/>
        <pt x="153" y="1579" on="1"/>
        <pt x="1074" y="1579" on="1"/>
        <pt x="1074" y="1436" on="1"/>
        <pt x="347" y="1436" on="1"/>
        <pt x="347" y="879" on="1"/>
        <pt x="1013" y="879" on="1"/>
        <pt x="1013" y="764" on="1"/>
        <pt x="347" y="764" on="1"/>
      </contour>
    </TTGlyph>
    <TTGlyph name="G" xMin="103" yMin="-41" xMax="1342" yMax="1610">
      <contour>
        <pt x="1166" y="684" on="1"/>
        <pt x="755" y="684" on="1"/>
        <pt x="755" y="811" on="1"/>
        <pt x="1342" y="811" on="1"/>
        <pt x="1342" y="0" on="1"/>
        <pt x="1254" y="0" on="1"/>
        <pt x="1201" y="213" on="1"/>
        <pt x="1189" y="162" on="0"/>
        <pt x="1123" y="70" on="0"/>
        <pt x="1011" y="0" on="0"/>
        <pt x="850" y="-41" on="0"/>
        <pt x="744" y="-41" on="1"/>
        <pt x="585" y="-41" on="0"/>
        <pt x="345" y="83" on="0"/>
        <pt x="184" y="303" on="0"/>
        <pt x="103" y="607" on="0"/>
        <pt x="103" y="786" on="1"/>
        <pt x="103" y="996" on="0"/>
        <pt x="195" y="1306" on="0"/>
        <pt x="369" y="1510" on="0"/>
        <pt x="619" y="1610" on="0"/>
        <pt x="777" y="1610" on="1"/>
        <pt x="835" y="1610" on="0"/>
        <pt x="955" y="1595" on="0"/>
        <pt x="1072" y="1563" on="0"/>
        <pt x="1183" y="1512" on="0"/>
        <pt x="1233" y="1476" on="1"/>
        <pt x="1167" y="1341" on="1"/>
        <pt x="1139" y="1365" on="0"/>
        <pt x="1057" y="1407" on="0"/>
        <pt x="953" y="1439" on="0"/>
        <pt x="832" y="1458" on="0"/>
        <pt x="765" y="1458" on="1"/>
        <pt x="652" y="1458" on="0"/>
        <pt x="480" y="1379" on="0"/>
        <pt x="363" y="1215" on="0"/>
        <pt x="304" y="964" on="0"/>
        <pt x="304" y="792" on="1"/>
        <pt x="304" y="628" on="0"/>
        <pt x="352" y="375" on="0"/>
        <pt x="460" y="201" on="0"/>
        <pt x="636" y="111" on="0"/>
        <pt x="764" y="111" on="1"/>
        <pt x="850" y="111" on="0"/>
        <pt x="997" y="141" on="0"/>
        <pt x="1105" y="210" on="0"/>
        <pt x="1166" y="319" on="0"/>
        <pt x="1166" y="399" on="1"/>
      </contour>
    </TTGlyph>
    <TTGlyph name="Ggrave" xMin="103" yMin="-41" xMax="1342" yMax="2349">
      <component glyphName="G" x="0" y="0" flags="0x1204"/>
      <component glyphName="grave" x="337" y="1615" flags="0x1004"/>
    </TTGlyph>
    <TTGlyph name="H" xMin="153" yMin="0" xMax="1373" yMax="1579">
      <contour>
        <pt x="1179" y="764" on="1"/>
        <pt x="347" y="764" on="1"/>
        <pt x="347" y="0" on="1"/>
        <pt x="153" y="0" on="1"/>
        <pt x="153" y="1579" on="1"/>
        <pt x="347" y="1579" on="1"/>
        <pt x="347" y="879" on="1"/>
        <pt x="1179" y="879" on="1"/>
        <pt x="1179" y="1579" on="1"/>
        <pt x="1373" y="1579" on="1"/>
        <pt x="1373" y="0" on="1"/>
        <pt x="1179" y="0" on="1"/>
      </contour>
    </TTGlyph>
    <TTGlyph name="I" xMin="98" yMin="0" xMax="691" yMax="1579">
      <contour>
        <pt x="302" y="112" on="1"/>
        <pt x="302" y="1461" on="1"/>
        <pt x="98" y="1461" on="1"/>
        <pt x="98" y="1579" on="1"/>
        <pt x="691" y="1579" on="1"/>
        <pt x="691" y="1461" on="1"/>
        <pt x="485" y="1461" on="1"/>
        <pt x="485" y="112" on="1"/>
        <pt x="691" y="112" on="1"/>
        <pt x="691" y="0" on="1"/>
        <pt x="98" y="0" on="1"/>
        <pt x="98" y="112" on="1"/>
      </contour>
    </TTGlyph>
    <TTGlyph name="Iacute" xMin="98" yMin="0" xMax="726" yMax="2353">
      <component glyphName="I" x="0" y="0" flags="0x1204"/>
      <component glyphName="acute" x="-154" y="1615" flags="0x1004"/>
    </TTGlyph>
    <TTGlyph name="Ibreve" xMin="98" yMin="0" xMax="691" yMax="1923">
      <component glyphName="I" x="0" y="0" flags="0x1204"/>
      <component glyphName="breve" x="11" y="1615" flags="0x1004"/>
    </TTGlyph>
    <TTGlyph name="Icircumflex" xMin="55" yMin="0" xMax="735" yMax="2278">
      <component glyphName="I" x="0" y="0" flags="0x1204"/>
      <component glyphName="circumflex" x="-319" y="1615" flags="0x1004"/>
    </TTGlyph>
    <TTGlyph name="Idieresis" xMin="39" yMin="0" xMax="752" yMax="1946">
      <component glyphName="I" x="0" y="0" flags="0x1204"/>
      <component glyphName="dieresis" x="-82" y="1615" flags="0x1004"/>
    </TTGlyph>
    <TTGlyph name="Igrave" xMin="97" yMin="0" xMax="691" yMax="2349">
      <component glyphName="I" x="0" y="0" flags="0x1204"/>
      <component glyphName="grave" x="9" y="1615" flags="0x1004"/>
    </TTGlyph>
    <TTGlyph name="Itilde" xMin="15" yMin="0" xMax="775" yMax="1986">
      <component glyphName="I" x="0" y="0" flags="0x1204"/>
      <component glyphName="tilde" x="-456" y="1615" flags="0x1004"/>
    </TTGlyph>
    <TTGlyph name="J" xMin="49" yMin="-90" xMax="567" yMax="1579">
      <contour>
        <pt x="49" y="35" on="1"/>
        <pt x="160" y="55" on="0"/>
        <pt x="289" y="123" on="0"/>
        <pt x="356" y="228" on="0"/>
        <pt x="375" y="377" on="0"/>
        <pt x="375" y="479" on="1"/>
        <pt x="375" y="1579" on="1"/>
        <pt x="567" y="1579" on="1"/>
        <pt x="567" y="514" on="1"/>
        <pt x="567" y="391" on="0"/>
        <pt x="536" y="181" on="0"/>
        <pt x="438" y="24" on="0"/>
        <pt x="253" y="-76" on="0"/>
        <pt x="100" y="-90" on="1"/>
      </contour>
    </TTGlyph>
    <TTGlyph name="K" xMin="153" yMin="0" xMax="1334" yMax="1579">
      <contour>
        <pt x="347" y="0" on="1"/>
        <pt x="153" y="0" on="1"/>
        <pt x="153" y="1579" on="1"/>
        <pt x="347" y="1579" on="1"/>
        <pt x="347" y="854" on="1"/>
        <pt x="570" y="854" on="1"/>
        <pt x="1060" y="1579" on="1"/>
        <pt x="1267" y="1579" on="1"/>
        <pt x="724" y="798" on="1"/>
        <pt x="1334" y="0" on="1"/>
        <pt x="1117" y="0" on="1"/>
        <pt x="562" y="747" on="1"/>
        <pt x="347" y="747" on="1"/>
      </contour>
    </TTGlyph>
    <TTGlyph name="L" xMin="153" yMin="0" xMax="1093" yMax="1579">
      <contour>
        <pt x="153" y="0" on="1"/>
        <pt x="153" y="1579" on="1"/>
        <pt x="347" y="1579" on="1"/>
        <pt x="347" y="143" on="1"/>
        <pt x="1093" y="143" on="1"/>
        <pt x="1093" y="0" on="1"/>
      </contour>
    </TTGlyph>
    <TTGlyph name="M" xMin="153" yMin="0" xMax="1763" yMax="1579">
      <contour>
        <pt x="347" y="1459" on="1"/>
        <pt x="347" y="0" on="1"/>
        <pt x="153" y="0" on="1"/>
        <pt x="153" y="1579" on="1"/>
        <pt x="483" y="1579" on="1"/>
        <pt x="958" y="208" on="1"/>
        <pt x="1433" y="1579" on="1"/>
        <pt x="1763" y="1579" on="1"/>
        <pt x="1763" y="0" on="1"/>
        <pt x="1569" y="0" on="1"/>
        <pt x="1569" y="1459" on="1"/>
        <pt x="1056" y="0" on="1"/>
        <pt x="860" y="0" on="1"/>
      </contour>
    </TTGlyph>
    <TTGlyph name="N" xMin="153" yMin="0" xMax="1443" yMax="1579">
      <contour>
        <pt x="1194" y="0" on="1"/>
        <pt x="347" y="1404" on="1"/>
        <pt x="347" y="0" on="1"/>
        <pt x="153" y="0" on="1"/>
        <pt x="153" y="1579" on="1"/>
        <pt x="415" y="1579" on="1"/>
        <pt x="1249" y="185" on="1"/>
        <pt x="1249" y="1579" on="1"/>
        <pt x="1443" y="1579" on="1"/>
        <pt x="1443" y="0" on="1"/>
      </contour>
    </TTGlyph>
    <TTGlyph name="Nacute" xMin="153" yMin="0" xMax="1443" yMax="2353">
      <component glyphName="N" x="0" y="0" flags="0x1204"/>
      <component glyphName="acute" x="249" y="1615" flags="0x1004"/>
    </TTGlyph>
    <TTGlyph name="Ngrave" xMin="153" yMin="0" xMax="1443" yMax="2349">
      <component glyphName="N" x="0" y="0" flags="0x1204"/>
      <component glyphName="grave" x="413" y="1615" flags="0x1004"/>
    </TTGlyph>
    <TTGlyph name="Ntilde" xMin="153" yMin="0" xMax="1443" yMax="1986">
      <component glyphName="N" x="0" y="0" flags="0x1204"/>
      <component glyphName="tilde" x="-52" y="1615" flags="0x1004"/>
    </TTGlyph>
    <TTGlyph name="O" xMin="102" yMin="-43" xMax="1415" yMax="1608">
      <contour>
        <pt x="1415" y="806" on="1"/>
        <pt x="1415" y="696" on="0"/>
        <pt x="1391" y="485" on="0"/>
        <pt x="1334" y="296" on="0"/>
        <pt x="1237" y="137" on="0"/>
        <pt x="1091" y="22" on="0"/>
        <pt x="890" y="-43" on="0"/>
        <pt x="758" y="-43" on="1"/>
        <pt x="625" y="-43" on="0"/>
        <pt x="423" y="24" on="0"/>
        <pt x="278" y="144" on="0"/>
        <pt x="182" y="308" on="0"/>
        <pt x="125" y="502" on="0"/>
        <pt x="102" y="717" on="0"/>
        <pt x="102" y="829" on="1"/>
        <pt x="102" y="1010" on="0"/>
        <pt x="187" y="1299" on="0"/>
        <pt x="353" y="1501" on="0"/>
        <pt x="598" y="1608" on="0"/>
        <pt x="758" y="1608" on="1"/>
        <pt x="919" y="1608" on="0"/>
        <pt x="1165" y="1500" on="0"/>
        <pt x="1331" y="1294" on="0"/>
        <pt x="1415" y="996" on="0"/>
      </contour>
      <contour>
        <pt x="303" y="775" on="1"/>
        <pt x="303" y="439" on="0"/>
        <pt x="536" y="112" on="0"/>
        <pt x="758" y="112" on="1"/>
        <pt x="862" y="112" on="0"/>
        <pt x="1030" y="183" on="0"/>
        <pt x="1149" y="341" on="0"/>
        <pt x="1213" y="594" on="0"/>
        <pt x="1213" y="775" on="1"/>
        <pt x="1213" y="956" on="0"/>
        <pt x="1153" y="1215" on="0"/>
        <pt x="1038" y="1381" on="0"/>
        <pt x="871" y="1459" on="0"/>
        <pt x="765" y="1459" on="1"/>
        <pt x="655" y="1459" on="0"/>
        <pt x="483" y="1384" on="0"/>
        <pt x="365" y="1220" on="0"/>
        <pt x="303" y="960" on="0"/>
      </contour>
    </TTGlyph>
    <TTGlyph name="OE" xMin="102" yMin="-43" xMax="2201" yMax="1608">
      <contour>
        <pt x="1218" y="0" on="1"/>
        <pt x="1218" y="1579" on="1"/>
        <pt x="2188" y="1579" on="1"/>
        <pt x="2188" y="1436" on="1"/>
        <pt x="1412" y="1436" on="1"/>
        <pt x="1412" y="891" on="1"/>
        <pt x="2090" y="891" on="1"/>
        <pt x="2090" y="776" on="1"/>
        <pt x="1412" y="776" on="1"/>
        <pt x="1412" y="143" on="1"/>
        <pt x="2201" y="143" on="1"/>
        <pt x="2201" y="0" on="1"/>
      </contour>
      <contour>
        <pt x="1415" y="806" on="1"/>
        <pt x="1415" y="696" on="0"/>
        <pt x="1391" y="485" on="0"/>
        <pt x="1334" y="296" on="0"/>
        <pt x="1237" y="137" on="0"/>
        <pt x="1091" y="22" on="0"/>
        <pt x="890" y="-43" on="0"/>
        <pt x="758" y="-43" on="1"/>
        <pt x="625" y="-43" on="0"/>
        <pt x="423" y="24" on="0"/>
        <pt x="278" y="144" on="0"/>
        <pt x="182" y="308" on="0"/>
        <pt x="125" y="502" on="0"/>
        <pt x="102" y="717" on="0"/>
        <pt x="102" y="829" on="1"/>
        <pt x="102" y="1010" on="0"/>
        <pt x="187" y="1299" on="0"/>
        <pt x="353" y="1501" on="0"/>
        <pt x="598" y="1608" on="0"/>
        <pt x="758" y="1608" on="1"/>
        <pt x="919" y="1608" on="0"/>
        <pt x="1165" y="1500" on="0"/>
        <pt x="1331" y="1294" on="0"/>
        <pt x="1415" y="996" on="0"/>
      </contour>
      <contour>
        <pt x="303" y="775" on="1"/>
        <pt x="303" y="439" on="0"/>
        <pt x="536" y="112" on="0"/>
        <pt x="758" y="112" on="1"/>
        <pt x="862" y="112" on="0"/>
        <pt x="1030" y="183" on="0"/>
        <pt x="1149" y="341" on="0"/>
        <pt x="1213" y="594" on="0"/>
        <pt x="1213" y="775" on="1"/>
        <pt x="1213" y="956" on="0"/>
        <pt x="1153" y="1215" on="0"/>
        <pt x="1038" y="1381" on="0"/>
        <pt x="871" y="1459" on="0"/>
        <pt x="765" y="1459" on="1"/>
        <pt x="655" y="1459" on="0"/>
        <pt x="483" y="1384" on="0"/>
        <pt x="365" y="1220" on="0"/>
        <pt x="303" y="960" on="0"/>
      </contour>
    </TTGlyph>
    <TTGlyph name="Oacute" xMin="102" yMin="-43" xMax="1415" yMax="2353">
      <component glyphName="O" x="0" y="0" flags="0x1204"/>
      <component glyphName="acute" x="209" y="1615" flags="0x1004"/>
    </TTGlyph>
    <TTGlyph name="Obreve" xMin="102" yMin="-43" xMax="1415" yMax="1923">
      <component glyphName="O" x="0" y="0" flags="0x1204"/>
      <component glyphName="breve" x="375" y="1615" flags="0x1004"/>
    </TTGlyph>
    <TTGlyph name="Ocircumflex" xMin="102" yMin="-43" xMax="1415" yMax="2278">
      <component glyphName="O" x="0" y="0" flags="0x1204"/>
      <component glyphName="circumflex" x="44" y="1615" flags="0x1004"/>
    </TTGlyph>
    <TTGlyph name="Odieresis" xMin="102" yMin="-43" xMax="1415" yMax="1946">
      <component glyphName="O" x="0" y="0" flags="0x1204"/>
      <component glyphName="dieresis" x="281" y="1615" flags="0x1004"/>
    </TTGlyph>
    <TTGlyph name="Ograve" xMin="102" yMin="-43" xMax="1415" yMax="2349">
      <component glyphName="O" x="0" y="0" flags="0x1204"/>
      <component glyphName="grave" x="373" y="1615" flags="0x1004"/>
    </TTGlyph>
    <TTGlyph name="Oslash" xMin="103" yMin="-159" xMax="1414" yMax="1710">
      <contour>
        <pt x="402" y="49" on="1"/>
        <pt x="341" y="90" on="0"/>
        <pt x="232" y="209" on="0"/>
        <pt x="151" y="383" on="0"/>
        <pt x="103" y="623" on="0"/>
        <pt x="103" y="784" on="1"/>
        <pt x="103" y="965" on="0"/>
        <pt x="166" y="1228" on="0"/>
        <pt x="269" y="1412" on="0"/>
        <pt x="403" y="1525" on="0"/>
        <pt x="545" y="1588" on="0"/>
        <pt x="686" y="1610" on="0"/>
        <pt x="744" y="1610" on="1"/>
        <pt x="841" y="1610" on="0"/>
        <pt x="1007" y="1575" on="0"/>
        <pt x="1076" y="1538" on="1"/>
        <pt x="1154" y="1710" on="1"/>
        <pt x="1255" y="1668" on="1"/>
        <pt x="1169" y="1477" on="1"/>
        <pt x="1235" y="1424" on="0"/>
        <pt x="1328" y="1278" on="0"/>
        <pt x="1387" y="1100" on="0"/>
        <pt x="1414" y="895" on="0"/>
        <pt x="1414" y="784" on="1"/>
        <pt x="1414" y="609" on="0"/>
        <pt x="1345" y="308" on="0"/>
        <pt x="1190" y="86" on="0"/>
        <pt x="939" y="-41" on="0"/>
        <pt x="758" y="-41" on="1"/>
        <pt x="701" y="-41" on="0"/>
        <pt x="571" y="-25" on="0"/>
        <pt x="502" y="0" on="1"/>
        <pt x="430" y="-159" on="1"/>
        <pt x="329" y="-113" on="1"/>
      </contour>
      <contour>
        <pt x="568" y="147" on="1"/>
        <pt x="589" y="137" on="0"/>
        <pt x="618" y="129" on="1"/>
        <pt x="643" y="122" on="0"/>
        <pt x="714" y="111" on="0"/>
        <pt x="759" y="111" on="1"/>
        <pt x="852" y="111" on="0"/>
        <pt x="992" y="162" on="0"/>
        <pt x="1092" y="254" on="0"/>
        <pt x="1159" y="380" on="0"/>
        <pt x="1197" y="529" on="0"/>
        <pt x="1213" y="697" on="0"/>
        <pt x="1213" y="784" on="1"/>
        <pt x="1213" y="971" on="0"/>
        <pt x="1151" y="1227" on="0"/>
        <pt x="1092" y="1307" on="1"/>
      </contour>
      <contour>
        <pt x="304" y="784" on="1"/>
        <pt x="304" y="726" on="0"/>
        <pt x="312" y="575" on="0"/>
        <pt x="345" y="417" on="0"/>
        <pt x="414" y="266" on="0"/>
        <pt x="475" y="209" on="1"/>
        <pt x="1009" y="1390" on="1"/>
        <pt x="960" y="1429" on="0"/>
        <pt x="831" y="1458" on="0"/>
        <pt x="766" y="1458" on="1"/>
        <pt x="672" y="1458" on="0"/>
        <pt x="530" y="1410" on="0"/>
        <pt x="428" y="1322" on="0"/>
        <pt x="360" y="1199" on="0"/>
        <pt x="320" y="1049" on="0"/>
        <pt x="304" y="877" on="0"/>
      </contour>
    </TTGlyph>
    <TTGlyph name="Otilde" xMin="102" yMin="-43" xMax="1415" yMax="1986">
      <component glyphName="O" x="0" y="0" flags="0x1204"/>
      <component glyphName="tilde" x="-92" y="1615" flags="0x1004"/>
    </TTGlyph>
    <TTGlyph name="P" xMin="153" yMin="0" xMax="1250" yMax="1579">
      <contour>
        <pt x="1250" y="1112" on="1"/>
        <pt x="1250" y="993" on="0"/>
        <pt x="1172" y="815" on="0"/>
        <pt x="998" y="697" on="0"/>
        <pt x="718" y="639" on="0"/>
        <pt x="517" y="639" on="1"/>
        <pt x="347" y="639" on="1"/>
        <pt x="347" y="0" on="1"/>
        <pt x="153" y="0" on="1"/>
        <pt x="153" y="1579" on="1"/>
        <pt x="550" y="1579" on="1"/>
        <pt x="631" y="1579" on="0"/>
        <pt x="798" y="1565" on="0"/>
        <pt x="954" y="1528" on="0"/>
        <pt x="1090" y="1463" on="0"/>
        <pt x="1191" y="1359" on="0"/>
        <pt x="1250" y="1212" on="0"/>
      </contour>
      <contour>
        <pt x="499" y="784" on="1"/>
        <pt x="650" y="784" on="0"/>
        <pt x="861" y="819" on="0"/>
        <pt x="991" y="893" on="0"/>
        <pt x="1050" y="1008" on="0"/>
        <pt x="1050" y="1088" on="1"/>
        <pt x="1050" y="1208" on="0"/>
        <pt x="973" y="1346" on="0"/>
        <pt x="838" y="1417" on="0"/>
        <pt x="652" y="1436" on="0"/>
        <pt x="544" y="1436" on="1"/>
        <pt x="347" y="1436" on="1"/>
        <pt x="347" y="784" on="1"/>
      </contour>
    </TTGlyph>
    <TTGlyph name="Q" xMin="103" yMin="-424" xMax="1430" yMax="1610">
      <contour>
        <pt x="1430" y="772" on="1"/>
        <pt x="1430" y="610" on="0"/>
        <pt x="1368" y="335" on="0"/>
        <pt x="1239" y="127" on="0"/>
        <pt x="1040" y="-7" on="0"/>
        <pt x="902" y="-29" on="1"/>
        <pt x="1281" y="-293" on="1"/>
        <pt x="1162" y="-424" on="1"/>
        <pt x="669" y="-35" on="1"/>
        <pt x="553" y="-22" on="0"/>
        <pt x="379" y="62" on="0"/>
        <pt x="253" y="188" on="0"/>
        <pt x="171" y="347" on="0"/>
        <pt x="122" y="522" on="0"/>
        <pt x="103" y="706" on="0"/>
        <pt x="103" y="794" on="1"/>
        <pt x="103" y="898" on="0"/>
        <pt x="133" y="1099" on="0"/>
        <pt x="197" y="1281" on="0"/>
        <pt x="299" y="1435" on="0"/>
        <pt x="443" y="1547" on="0"/>
        <pt x="632" y="1610" on="0"/>
        <pt x="751" y="1610" on="1"/>
        <pt x="915" y="1610" on="0"/>
        <pt x="1168" y="1507" on="0"/>
        <pt x="1341" y="1298" on="0"/>
        <pt x="1430" y="983" on="0"/>
      </contour>
      <contour>
        <pt x="767" y="1458" on="1"/>
        <pt x="637" y="1458" on="0"/>
        <pt x="460" y="1358" on="0"/>
        <pt x="351" y="1179" on="0"/>
        <pt x="304" y="932" on="0"/>
        <pt x="304" y="784" on="1"/>
        <pt x="304" y="634" on="0"/>
        <pt x="351" y="386" on="0"/>
        <pt x="460" y="209" on="0"/>
        <pt x="637" y="111" on="0"/>
        <pt x="767" y="111" on="1"/>
        <pt x="865" y="111" on="0"/>
        <pt x="1011" y="172" on="0"/>
        <pt x="1114" y="275" on="0"/>
        <pt x="1179" y="411" on="0"/>
        <pt x="1216" y="560" on="0"/>
        <pt x="1230" y="713" on="0"/>
        <pt x="1230" y="783" on="1"/>
        <pt x="1230" y="922" on="0"/>
        <pt x="1187" y="1167" on="0"/>
        <pt x="1081" y="1351" on="0"/>
        <pt x="902" y="1458" on="0"/>
      </contour>
    </TTGlyph>
    <TTGlyph name="R" xMin="153" yMin="0" xMax="1246" yMax="1579">
      <contour>
        <pt x="647" y="862" on="1"/>
        <pt x="760" y="862" on="0"/>
        <pt x="913" y="912" on="0"/>
        <pt x="1005" y="997" on="0"/>
        <pt x="1044" y="1110" on="0"/>
        <pt x="1044" y="1174" on="1"/>
        <pt x="1044" y="1240" on="0"/>
        <pt x="1001" y="1331" on="0"/>
        <pt x="927" y="1389" on="0"/>
        <pt x="830" y="1420" on="0"/>
        <pt x="722" y="1434" on="0"/>
        <pt x="609" y="1436" on="0"/>
        <pt x="557" y="1436" on="1"/>
        <pt x="347" y="1436" on="1"/>
        <pt x="347" y="862" on="1"/>
      </contour>
      <contour>
        <pt x="833" y="797" on="1"/>
        <pt x="943" y="785" on="0"/>
        <pt x="1099" y="723" on="0"/>
        <pt x="1198" y="623" on="0"/>
        <pt x="1244" y="485" on="0"/>
        <pt x="1244" y="397" on="1"/>
        <pt x="1244" y="0" on="1"/>
        <pt x="1050" y="0" on="1"/>
        <pt x="1050" y="412" on="1"/>
        <pt x="1050" y="492" on="0"/>
        <pt x="1014" y="601" on="0"/>
        <pt x="948" y="672" on="0"/>
        <pt x="854" y="711" on="0"/>
        <pt x="738" y="730" on="0"/>
        <pt x="602" y="733" on="0"/>
        <pt x="527" y="733" on="1"/>
        <pt x="347" y="733" on="1"/>
        <pt x="347" y="0" on="1"/>
        <pt x="153" y="0" on="1"/>
        <pt x="153" y="1579" on="1"/>
        <pt x="619" y="1579" on="1"/>
        <pt x="764" y="1579" on="0"/>
        <pt x="997" y="1536" on="0"/>
        <pt x="1159" y="1443" on="0"/>
        <pt x="1246" y="1295" on="0"/>
        <pt x="1246" y="1190" on="1"/>
        <pt x="1246" y="1090" on="0"/>
        <pt x="1184" y="942" on="0"/>
        <pt x="1073" y="845" on="0"/>
        <pt x="922" y="797" on="0"/>
      </contour>
    </TTGlyph>
    <TTGlyph name="S" xMin="78" yMin="-41" xMax="1172" yMax="1610">
      <contour>
        <pt x="1172" y="418" on="1"/>
        <pt x="1172" y="332" on="0"/>
        <pt x="1115" y="168" on="0"/>
        <pt x="982" y="38" on="0"/>
        <pt x="764" y="-41" on="0"/>
        <pt x="604" y="-41" on="1"/>
        <pt x="516" y="-41" on="0"/>
        <pt x="352" y="-6" on="0"/>
        <pt x="288" y="15" on="1"/>
        <pt x="213" y="40" on="0"/>
        <pt x="147" y="72" on="1"/>
        <pt x="167" y="222" on="1"/>
        <pt x="226" y="191" on="0"/>
        <pt x="293" y="166" on="1"/>
        <pt x="350" y="145" on="0"/>
        <pt x="498" y="111" on="0"/>
        <pt x="577" y="111" on="1"/>
        <pt x="656" y="111" on="0"/>
        <pt x="800" y="136" on="0"/>
        <pt x="908" y="202" on="0"/>
        <pt x="972" y="318" on="0"/>
        <pt x="972" y="409" on="1"/>
        <pt x="972" y="466" on="0"/>
        <pt x="937" y="558" on="0"/>
        <pt x="871" y="631" on="0"/>
        <pt x="778" y="686" on="0"/>
        <pt x="720" y="707" on="1"/>
        <pt x="436" y="807" on="1"/>
        <pt x="368" y="831" on="0"/>
        <pt x="239" y="898" on="0"/>
        <pt x="139" y="993" on="0"/>
        <pt x="78" y="1117" on="0"/>
        <pt x="78" y="1198" on="1"/>
        <pt x="78" y="1309" on="0"/>
        <pt x="154" y="1465" on="0"/>
        <pt x="291" y="1564" on="0"/>
        <pt x="480" y="1610" on="0"/>
        <pt x="594" y="1610" on="1"/>
        <pt x="667" y="1610" on="0"/>
        <pt x="801" y="1589" on="0"/>
        <pt x="922" y="1553" on="0"/>
        <pt x="1027" y="1508" on="0"/>
        <pt x="1070" y="1484" on="1"/>
        <pt x="1040" y="1337" on="1"/>
        <pt x="1003" y="1359" on="0"/>
        <pt x="908" y="1402" on="0"/>
        <pt x="800" y="1436" on="0"/>
        <pt x="683" y="1458" on="0"/>
        <pt x="624" y="1458" on="1"/>
        <pt x="531" y="1458" on="0"/>
        <pt x="400" y="1430" on="0"/>
        <pt x="317" y="1370" on="0"/>
        <pt x="278" y="1276" on="0"/>
        <pt x="278" y="1210" on="1"/>
        <pt x="278" y="1053" on="0"/>
        <pt x="471" y="986" on="1"/>
        <pt x="784" y="877" on="1"/>
        <pt x="862" y="850" on="0"/>
        <pt x="1003" y="769" on="0"/>
        <pt x="1110" y="657" on="0"/>
        <pt x="1172" y="511" on="0"/>
      </contour>
    </TTGlyph>
    <TTGlyph name="Sacute" xMin="78" yMin="-41" xMax="1172" yMax="2353">
      <component glyphName="S" x="0" y="0" flags="0x1204"/>
      <component glyphName="acute" x="76" y="1615" flags="0x1004"/>
    </TTGlyph>
    <TTGlyph name="Sbreve" xMin="78" yMin="-41" xMax="1172" yMax="1923">
      <component glyphName="S" x="0" y="0" flags="0x1204"/>
      <component glyphName="breve" x="242" y="1615" flags="0x1004"/>
    </TTGlyph>
    <TTGlyph name="Scaron" xMin="78" yMin="-41" xMax="1172" yMax="2255">
      <component glyphName="S" x="0" y="0" flags="0x1204"/>
      <component glyphName="caron" x="-88" y="1615" flags="0x1004"/>
    </TTGlyph>
    <TTGlyph name="Scircumflex" xMin="78" yMin="-41" xMax="1172" yMax="2278">
      <component glyphName="S" x="0" y="0" flags="0x1204"/>
      <component glyphName="circumflex" x="-88" y="1615" flags="0x1004"/>
    </TTGlyph>
    <TTGlyph name="Sdieresis" xMin="78" yMin="-41" xMax="1172" yMax="1946">
      <component glyphName="S" x="0" y="0" flags="0x1204"/>
      <component glyphName="dieresis" x="148" y="1615" flags="0x1004"/>
    </TTGlyph>
    <TTGlyph name="Sgrave" xMin="78" yMin="-41" xMax="1172" yMax="2349">
      <component glyphName="S" x="0" y="0" flags="0x1204"/>
      <component glyphName="grave" x="240" y="1615" flags="0x1004"/>
    </TTGlyph>
    <TTGlyph name="Sring" xMin="78" yMin="-41" xMax="1172" yMax="2166">
      <component glyphName="S" x="0" y="0" flags="0x1204"/>
      <component glyphName="ring" x="-227" y="1615" flags="0x1004"/>
    </TTGlyph>
    <TTGlyph name="Stilde" xMin="78" yMin="-41" xMax="1172" yMax="1986">
      <component glyphName="S" x="0" y="0" flags="0x1204"/>
      <component glyphName="tilde" x="-225" y="1615" flags="0x1004"/>
    </TTGlyph>
    <TTGlyph name="T" xMin="66" yMin="0" xMax="1174" yMax="1579">
      <contour>
        <pt x="718" y="1436" on="1"/>
        <pt x="718" y="0" on="1"/>
        <pt x="524" y="0" on="1"/>
        <pt x="524" y="1436" on="1"/>
        <pt x="66" y="1436" on="1"/>
        <pt x="66" y="1579" on="1"/>
        <pt x="1174" y="1579" on="1"/>
        <pt x="1174" y="1436" on="1"/>
      </contour>
    </TTGlyph>
    <TTGlyph name="Thorn" xMin="153" yMin="0" xMax="1242" yMax="1579">
      <contour>
        <pt x="1060" y="959" on="1"/>
        <pt x="1060" y="1061" on="0"/>
        <pt x="1015" y="1194" on="0"/>
        <pt x="889" y="1270" on="0"/>
        <pt x="664" y="1300" on="0"/>
        <pt x="484" y="1300" on="1"/>
        <pt x="347" y="1300" on="1"/>
        <pt x="347" y="649" on="1"/>
        <pt x="441" y="649" on="0"/>
        <pt x="596" y="652" on="0"/>
        <pt x="723" y="661" on="0"/>
        <pt x="826" y="677" on="0"/>
        <pt x="867" y="691" on="1"/>
        <pt x="928" y="711" on="0"/>
        <pt x="1004" y="767" on="0"/>
        <pt x="1046" y="836" on="0"/>
        <pt x="1060" y="915" on="0"/>
      </contour>
      <contour>
        <pt x="347" y="504" on="1"/>
        <pt x="347" y="0" on="1"/>
        <pt x="153" y="0" on="1"/>
        <pt x="153" y="1579" on="1"/>
        <pt x="347" y="1579" on="1"/>
        <pt x="347" y="1444" on="1"/>
        <pt x="406" y="1444" on="0"/>
        <pt x="527" y="1444" on="0"/>
        <pt x="643" y="1441" on="0"/>
        <pt x="749" y="1435" on="0"/>
        <pt x="794" y="1429" on="1"/>
        <pt x="929" y="1411" on="0"/>
        <pt x="1103" y="1332" on="0"/>
        <pt x="1203" y="1216" on="0"/>
        <pt x="1242" y="1064" on="0"/>
        <pt x="1242" y="973" on="1"/>
        <pt x="1242" y="868" on="0"/>
        <pt x="1174" y="695" on="0"/>
        <pt x="1006" y="572" on="0"/>
        <pt x="723" y="504" on="0"/>
        <pt x="509" y="504" on="1"/>
      </contour>
    </TTGlyph>
    <TTGlyph name="U" xMin="134" yMin="-41" xMax="1390" yMax="1579">
      <contour>
        <pt x="762" y="111" on="1"/>
        <pt x="888" y="111" on="0"/>
        <pt x="1056" y="178" on="0"/>
        <pt x="1155" y="322" on="0"/>
        <pt x="1196" y="550" on="0"/>
        <pt x="1196" y="711" on="1"/>
        <pt x="1196" y="1579" on="1"/>
        <pt x="1390" y="1579" on="1"/>
        <pt x="1390" y="715" on="1"/>
        <pt x="1390" y="537" on="0"/>
        <pt x="1321" y="256" on="0"/>
        <pt x="1173" y="62" on="0"/>
        <pt x="937" y="-41" on="0"/>
        <pt x="771" y="-41" on="1"/>
        <pt x="593" y="-41" on="0"/>
        <pt x="350" y="62" on="0"/>
        <pt x="200" y="257" on="0"/>
        <pt x="134" y="537" on="0"/>
        <pt x="134" y="715" on="1"/>
        <pt x="134" y="1579" on="1"/>
        <pt x="328" y="1579" on="1"/>
        <pt x="328" y="711" on="1"/>
        <pt x="328" y="550" on="0"/>
        <pt x="378" y="322" on="0"/>
        <pt x="483" y="178" on="0"/>
        <pt x="648" y="111" on="0"/>
      </contour>
    </TTGlyph>
    <TTGlyph name="Uacute" xMin="134" yMin="-41" xMax="1390" yMax="2353">
      <component glyphName="U" x="0" y="0" flags="0x1204"/>
      <component glyphName="acute" x="213" y="1615" flags="0x1004"/>
    </TTGlyph>
    <TTGlyph name="Ubreve" xMin="134" yMin="-41" xMax="1390" yMax="1923">
      <component glyphName="U" x="0" y="0" flags="0x1204"/>
      <component glyphName="breve" x="379" y="1615" flags="0x1004"/>
    </TTGlyph>
    <TTGlyph name="Ucircumflex" xMin="134" yMin="-41" xMax="1390" yMax="2278">
      <component glyphName="U" x="0" y="0" flags="0x1204"/>
      <component glyphName="circumflex" x="48" y="1615" flags="0x1004"/>
    </TTGlyph>
    <TTGlyph name="Udieresis" xMin="134" yMin="-41" xMax="1390" yMax="1946">
      <component glyphName="U" x="0" y="0" flags="0x1204"/>
      <component glyphName="dieresis" x="285" y="1615" flags="0x1004"/>
    </TTGlyph>
    <TTGlyph name="Ugrave" xMin="134" yMin="-41" xMax="1390" yMax="2349">
      <component glyphName="U" x="0" y="0" flags="0x1204"/>
      <component glyphName="grave" x="377" y="1615" flags="0x1004"/>
    </TTGlyph>
    <TTGlyph name="Uring" xMin="134" yMin="-41" xMax="1390" yMax="2166">
      <component glyphName="U" x="0" y="0" flags="0x1204"/>
      <component glyphName="ring" x="-90" y="1615" flags="0x1004"/>
    </TTGlyph>
    <TTGlyph name="Utilde" xMin="134" yMin="-41" xMax="1390" yMax="1986">
      <component glyphName="U" x="0" y="0" flags="0x1204"/>
      <component glyphName="tilde" x="-88" y="1615" flags="0x1004"/>
    </TTGlyph>
    <TTGlyph name="V" xMin="63" yMin="0" xMax="1297" yMax="1579">
      <contour>
        <pt x="681" y="180" on="1"/>
        <pt x="1115" y="1579" on="1"/>
        <pt x="1297" y="1579" on="1"/>
        <pt x="803" y="0" on="1"/>
        <pt x="559" y="0" on="1"/>
        <pt x="63" y="1579" on="1"/>
        <pt x="247" y="1579" on="1"/>
      </contour>
    </TTGlyph>
    <TTGlyph name="W" xMin="55" yMin="-6" xMax="1898" yMax="1579">
      <contour>
        <pt x="1113" y="1579" on="1"/>
        <pt x="1407" y="135" on="1"/>
        <pt x="1711" y="1579" on="1"/>
        <pt x="1898" y="1579" on="1"/>
        <pt x="1552" y="-6" on="1"/>
        <pt x="1235" y="-6" on="1"/>
        <pt x="980" y="1462" on="1"/>
        <pt x="683" y="0" on="1"/>
        <pt x="401" y="0" on="1"/>
        <pt x="55" y="1579" on="1"/>
        <pt x="241" y="1579" on="1"/>
        <pt x="545" y="135" on="1"/>
        <pt x="839" y="1579" on="1"/>
      </contour>
    </TTGlyph>
    <TTGlyph name="Wgrave" xMin="55" yMin="-6" xMax="1898" yMax="2349">
      <component glyphName="W" x="0" y="0" flags="0x1204"/>
      <component glyphName="grave" x="591" y="1615" flags="0x1004"/>
    </TTGlyph>
    <TTGlyph name="X" xMin="55" yMin="0" xMax="1267" yMax="1579">
      <contour>
        <pt x="1069" y="1579" on="1"/>
        <pt x="1265" y="1579" on="1"/>
        <pt x="770" y="780" on="1"/>
        <pt x="1267" y="0" on="1"/>
        <pt x="1049" y="0" on="1"/>
        <pt x="661" y="626" on="1"/>
        <pt x="273" y="0" on="1"/>
        <pt x="55" y="0" on="1"/>
        <pt x="552" y="780" on="1"/>
        <pt x="57" y="1579" on="1"/>
        <pt x="253" y="1579" on="1"/>
        <pt x="661" y="923" on="1"/>
      </contour>
    </TTGlyph>
    <TTGlyph name="Y" xMin="48" yMin="0" xMax="1266" yMax="1579">
      <contour>
        <pt x="1075" y="1579" on="1"/>
        <pt x="1266" y="1579" on="1"/>
        <pt x="752" y="485" on="1"/>
        <pt x="752" y="0" on="1"/>
        <pt x="562" y="0" on="1"/>
        <pt x="562" y="485" on="1"/>
        <pt x="48" y="1579" on="1"/>
        <pt x="245" y="1579" on="1"/>
        <pt x="662" y="677" on="1"/>
      </contour>
    </TTGlyph>
    <TTGlyph name="Yacute" xMin="48" yMin="0" xMax="1266" yMax="2353">
      <component glyphName="Y" x="0" y="0" flags="0x1204"/>
      <component glyphName="acute" x="108" y="1615" flags="0x1004"/>
    </TTGlyph>
    <TTGlyph name="Ybreve" xMin="48" yMin="0" xMax="1266" yMax="1923">
      <component glyphName="Y" x="0" y="0" flags="0x1204"/>
      <component glyphName="breve" x="274" y="1615" flags="0x1004"/>
    </TTGlyph>
    <TTGlyph name="Ycaron" xMin="48" yMin="0" xMax="1266" yMax="2255">
      <component glyphName="Y" x="0" y="0" flags="0x1204"/>
      <component glyphName="caron" x="-56" y="1615" flags="0x1004"/>
    </TTGlyph>
    <TTGlyph name="Ycircumflex" xMin="48" yMin="0" xMax="1266" yMax="2278">
      <component glyphName="Y" x="0" y="0" flags="0x1204"/>
      <component glyphName="circumflex" x="-56" y="1615" flags="0x1004"/>
    </TTGlyph>
    <TTGlyph name="Ydieresis" xMin="48" yMin="0" xMax="1266" yMax="1946">
      <component glyphName="Y" x="0" y="0" flags="0x1204"/>
      <component glyphName="dieresis" x="180" y="1615" flags="0x1004"/>
    </TTGlyph>
    <TTGlyph name="Ygrave" xMin="48" yMin="0" xMax="1266" yMax="2349">
      <component glyphName="Y" x="0" y="0" flags="0x1204"/>
      <component glyphName="grave" x="272" y="1615" flags="0x1004"/>
    </TTGlyph>
    <TTGlyph name="Z" xMin="112" yMin="0" xMax="1144" yMax="1579">
      <contour>
        <pt x="1142" y="1419" on="1"/>
        <pt x="309" y="143" on="1"/>
        <pt x="1144" y="143" on="1"/>
        <pt x="1144" y="0" on="1"/>
        <pt x="112" y="0" on="1"/>
        <pt x="112" y="180" on="1"/>
        <pt x="941" y="1436" on="1"/>
        <pt x="112" y="1436" on="1"/>
        <pt x="112" y="1579" on="1"/>
        <pt x="1142" y="1579" on="1"/>
      </contour>
    </TTGlyph>
    <TTGlyph name="Zacute" xMin="112" yMin="0" xMax="1144" yMax="2353">
      <component glyphName="Z" x="0" y="0" flags="0x1204"/>
      <component glyphName="acute" x="79" y="1615" flags="0x1004"/>
    </TTGlyph>
    <TTGlyph name="Zcaron" xMin="112" yMin="0" xMax="1144" yMax="2255">
      <component glyphName="Z" x="0" y="0" flags="0x1204"/>
      <component glyphName="caron" x="-85" y="1615" flags="0x1004"/>
    </TTGlyph>
    <TTGlyph name="Zgrave" xMin="112" yMin="0" xMax="1144" yMax="2349">
      <component glyphName="Z" x="0" y="0" flags="0x1204"/>
      <component glyphName="grave" x="243" y="1615" flags="0x1004"/>
    </TTGlyph>
    <TTGlyph name="a" xMin="101" yMin="-20" xMax="1066" yMax="1190">
      <contour>
        <pt x="610" y="1053" on="1"/>
        <pt x="565" y="1053" on="0"/>
        <pt x="466" y="1037" on="0"/>
        <pt x="369" y="1006" on="0"/>
        <pt x="278" y="961" on="0"/>
        <pt x="241" y="932" on="1"/>
        <pt x="173" y="1064" on="1"/>
        <pt x="230" y="1095" on="0"/>
        <pt x="328" y="1142" on="0"/>
        <pt x="429" y="1174" on="0"/>
        <pt x="540" y="1190" on="0"/>
        <pt x="610" y="1190" on="1"/>
        <pt x="761" y="1190" on="0"/>
        <pt x="942" y="1124" on="0"/>
        <pt x="1037" y="986" on="0"/>
        <pt x="1066" y="772" on="0"/>
        <pt x="1066" y="624" on="1"/>
        <pt x="1066" y="0" on="1"/>
        <pt x="926" y="0" on="1"/>
        <pt x="898" y="178" on="1"/>
        <pt x="824" y="74" on="0"/>
        <pt x="620" y="-20" on="0"/>
        <pt x="493" y="-20" on="1"/>
        <pt x="403" y="-20" on="0"/>
        <pt x="258" y="26" on="0"/>
        <pt x="156" y="117" on="0"/>
        <pt x="101" y="253" on="0"/>
        <pt x="101" y="343" on="1"/>
        <pt x="101" y="430" on="0"/>
        <pt x="167" y="568" on="0"/>
        <pt x="279" y="664" on="0"/>
        <pt x="427" y="715" on="0"/>
        <pt x="509" y="715" on="1"/>
        <pt x="591" y="715" on="0"/>
        <pt x="726" y="699" on="0"/>
        <pt x="823" y="680" on="0"/>
        <pt x="850" y="672" on="1"/>
        <pt x="876" y="665" on="1"/>
        <pt x="876" y="768" on="0"/>
        <pt x="868" y="916" on="0"/>
        <pt x="818" y="1009" on="0"/>
        <pt x="710" y="1053" on="0"/>
      </contour>
      <contour>
        <pt x="540" y="117" on="1"/>
        <pt x="631" y="117" on="0"/>
        <pt x="794" y="195" on="0"/>
        <pt x="876" y="271" on="1"/>
        <pt x="876" y="569" on="1"/>
        <pt x="834" y="575" on="0"/>
        <pt x="794" y="579" on="1"/>
        <pt x="759" y="583" on="0"/>
        <pt x="679" y="590" on="0"/>
        <pt x="644" y="590" on="1"/>
        <pt x="572" y="590" on="0"/>
        <pt x="444" y="575" on="0"/>
        <pt x="348" y="525" on="0"/>
        <pt x="292" y="431" on="0"/>
        <pt x="292" y="353" on="1"/>
        <pt x="292" y="283" on="0"/>
        <pt x="328" y="192" on="0"/>
        <pt x="393" y="138" on="0"/>
        <pt x="484" y="117" on="0"/>
      </contour>
    </TTGlyph>
    <TTGlyph name="aacute" xMin="101" yMin="-20" xMax="1066" yMax="1918">
      <component glyphName="a" x="0" y="0" flags="0x1204"/>
      <component glyphName="acute" x="34" y="1180" flags="0x1004"/>
    </TTGlyph>
    <TTGlyph name="abreve" xMin="101" yMin="-20" xMax="1066" yMax="1488">
      <component glyphName="a" x="0" y="0" flags="0x1204"/>
      <component glyphName="breve" x="200" y="1180" flags="0x1004"/>
    </TTGlyph>
    <TTGlyph name="acircumflex" xMin="101" yMin="-20" xMax="1066" yMax="1843">
      <component glyphName="a" x="0" y="0" flags="0x1204"/>
      <component glyphName="circumflex" x="-130" y="1180" flags="0x1004"/>
    </TTGlyph>
    <TTGlyph name="acute" xMin="489" yMin="101" xMax="880" yMax="738">
      <contour>
        <pt x="489" y="127" on="1"/>
        <pt x="648" y="738" on="1"/>
        <pt x="880" y="647" on="1"/>
        <pt x="546" y="101" on="1"/>
      </contour>
    </TTGlyph>
    <TTGlyph name="acutecomb" xMin="489" yMin="1639" xMax="880" yMax="2276">
      <contour>
        <pt x="489" y="1665" on="1"/>
        <pt x="648" y="2276" on="1"/>
        <pt x="880" y="2185" on="1"/>
        <pt x="546" y="1639" on="1"/>
      </contour>
    </TTGlyph>
    <TTGlyph name="adieresis" xMin="101" yMin="-20" xMax="1066" yMax="1511">
      <component glyphName="a" x="0" y="0" flags="0x1204"/>
      <component glyphName="dieresis" x="106" y="1180" flags="0x1004"/>
    </TTGlyph>
    <TTGlyph name="ae" xMin="116" yMin="-23" xMax="1822" yMax="1190">
      <contour>
        <pt x="1654" y="682" on="1"/>
        <pt x="1654" y="803" on="0"/>
        <pt x="1603" y="951" on="0"/>
        <pt x="1523" y="1031" on="0"/>
        <pt x="1426" y="1057" on="0"/>
        <pt x="1380" y="1057" on="1"/>
        <pt x="1348" y="1057" on="0"/>
        <pt x="1276" y="1046" on="0"/>
        <pt x="1203" y="1016" on="0"/>
        <pt x="1136" y="963" on="0"/>
        <pt x="1085" y="879" on="0"/>
        <pt x="1054" y="762" on="0"/>
        <pt x="1054" y="682" on="1"/>
      </contour>
      <contour>
        <pt x="1768" y="99" on="1"/>
        <pt x="1730" y="71" on="0"/>
        <pt x="1629" y="26" on="0"/>
        <pt x="1524" y="-6" on="0"/>
        <pt x="1425" y="-23" on="0"/>
        <pt x="1388" y="-23" on="1"/>
        <pt x="1233" y="-23" on="0"/>
        <pt x="1019" y="95" on="0"/>
        <pt x="955" y="207" on="1"/>
        <pt x="922" y="163" on="0"/>
        <pt x="829" y="80" on="0"/>
        <pt x="715" y="16" on="0"/>
        <pt x="582" y="-23" on="0"/>
        <pt x="508" y="-23" on="1"/>
        <pt x="415" y="-23" on="0"/>
        <pt x="269" y="24" on="0"/>
        <pt x="169" y="116" on="0"/>
        <pt x="116" y="251" on="0"/>
        <pt x="116" y="339" on="1"/>
        <pt x="116" y="429" on="0"/>
        <pt x="179" y="569" on="0"/>
        <pt x="295" y="665" on="0"/>
        <pt x="459" y="715" on="0"/>
        <pt x="560" y="715" on="1"/>
        <pt x="594" y="715" on="0"/>
        <pt x="679" y="707" on="0"/>
        <pt x="764" y="693" on="0"/>
        <pt x="840" y="675" on="0"/>
        <pt x="864" y="665" on="1"/>
        <pt x="864" y="775" on="0"/>
        <pt x="849" y="922" on="0"/>
        <pt x="798" y="1010" on="0"/>
        <pt x="697" y="1047" on="0"/>
        <pt x="612" y="1047" on="1"/>
        <pt x="557" y="1047" on="0"/>
        <pt x="445" y="1023" on="0"/>
        <pt x="346" y="988" on="0"/>
        <pt x="269" y="949" on="0"/>
        <pt x="249" y="934" on="1"/>
        <pt x="182" y="1059" on="1"/>
        <pt x="213" y="1086" on="0"/>
        <pt x="316" y="1133" on="0"/>
        <pt x="434" y="1169" on="0"/>
        <pt x="554" y="1190" on="0"/>
        <pt x="602" y="1190" on="1"/>
        <pt x="683" y="1190" on="0"/>
        <pt x="809" y="1166" on="0"/>
        <pt x="903" y="1114" on="0"/>
        <pt x="966" y="1030" on="0"/>
        <pt x="984" y="970" on="1"/>
        <pt x="1011" y="1025" on="0"/>
        <pt x="1094" y="1108" on="0"/>
        <pt x="1197" y="1163" on="0"/>
        <pt x="1316" y="1190" on="0"/>
        <pt x="1379" y="1190" on="1"/>
        <pt x="1487" y="1190" on="0"/>
        <pt x="1652" y="1116" on="0"/>
        <pt x="1764" y="981" on="0"/>
        <pt x="1822" y="791" on="0"/>
        <pt x="1822" y="676" on="1"/>
        <pt x="1822" y="652" on="0"/>
        <pt x="1818" y="598" on="0"/>
        <pt x="1814" y="567" on="1"/>
        <pt x="1054" y="567" on="1"/>
        <pt x="1054" y="468" on="0"/>
        <pt x="1086" y="305" on="0"/>
        <pt x="1166" y="190" on="0"/>
        <pt x="1299" y="127" on="0"/>
        <pt x="1400" y="127" on="1"/>
        <pt x="1569" y="127" on="0"/>
        <pt x="1706" y="244" on="1"/>
      </contour>
      <contour>
        <pt x="307" y="356" on="1"/>
        <pt x="307" y="292" on="0"/>
        <pt x="336" y="202" on="0"/>
        <pt x="397" y="145" on="0"/>
        <pt x="490" y="119" on="0"/>
        <pt x="555" y="119" on="1"/>
        <pt x="700" y="119" on="0"/>
        <pt x="864" y="271" on="1"/>
        <pt x="864" y="569" on="1"/>
        <pt x="798" y="579" on="0"/>
        <pt x="682" y="590" on="0"/>
        <pt x="629" y="590" on="1"/>
        <pt x="532" y="590" on="0"/>
        <pt x="407" y="556" on="0"/>
        <pt x="335" y="495" on="0"/>
        <pt x="307" y="408" on="0"/>
      </contour>
    </TTGlyph>
    <TTGlyph name="afii10017" xMin="63" yMin="0" xMax="1395" yMax="1579">
      <component glyphName="A" x="0" y="0" flags="0x1204"/>
    </TTGlyph>
    <TTGlyph name="afii10018" xMin="153" yMin="0" xMax="1250" yMax="1579">
      <contour>
        <pt x="348" y="143" on="1"/>
        <pt x="562" y="143" on="1"/>
        <pt x="724" y="143" on="0"/>
        <pt x="923" y="168" on="0"/>
        <pt x="1031" y="243" on="0"/>
        <pt x="1068" y="379" on="0"/>
        <pt x="1068" y="490" on="1"/>
        <pt x="1068" y="562" on="0"/>
        <pt x="1020" y="664" on="0"/>
        <pt x="938" y="732" on="0"/>
        <pt x="829" y="771" on="0"/>
        <pt x="707" y="790" on="0"/>
        <pt x="578" y="795" on="0"/>
        <pt x="517" y="795" on="1"/>
        <pt x="348" y="795" on="1"/>
      </contour>
      <contour>
        <pt x="1250" y="466" on="1"/>
        <pt x="1250" y="344" on="0"/>
        <pt x="1177" y="168" on="0"/>
        <pt x="1012" y="54" on="0"/>
        <pt x="744" y="0" on="0"/>
        <pt x="550" y="0" on="1"/>
        <pt x="153" y="0" on="1"/>
        <pt x="153" y="1579" on="1"/>
        <pt x="1115" y="1579" on="1"/>
        <pt x="1115" y="1436" on="1"/>
        <pt x="348" y="1436" on="1"/>
        <pt x="348" y="940" on="1"/>
        <pt x="517" y="940" on="1"/>
        <pt x="718" y="940" on="0"/>
        <pt x="997" y="882" on="0"/>
        <pt x="1172" y="764" on="0"/>
        <pt x="1250" y="586" on="0"/>
      </contour>
    </TTGlyph>
    <TTGlyph name="afii10019" xMin="153" yMin="0" xMax="1273" yMax="1579">
      <component glyphName="B" x="0" y="0" flags="0x1004"/>
    </TTGlyph>
    <TTGlyph name="afii10020" xMin="153" yMin="0" xMax="1179" yMax="1579">
      <contour>
        <pt x="347" y="1436" on="1"/>
        <pt x="347" y="0" on="1"/>
        <pt x="153" y="0" on="1"/>
        <pt x="153" y="1579" on="1"/>
        <pt x="1179" y="1579" on="1"/>
        <pt x="1179" y="1436" on="1"/>
      </contour>
    </TTGlyph>
    <TTGlyph name="afii10021" xMin="75" yMin="-389" xMax="1540" yMax="1561">
      <contour>
        <pt x="1245" y="95" on="1"/>
        <pt x="1245" y="1436" on="1"/>
        <pt x="567" y="1436" on="1"/>
        <pt x="567" y="1069" on="1"/>
        <pt x="567" y="946" on="0"/>
        <pt x="558" y="698" on="0"/>
        <pt x="519" y="452" on="0"/>
        <pt x="441" y="211" on="0"/>
        <pt x="373" y="95" on="1"/>
      </contour>
      <contour>
        <pt x="145" y="95" on="1"/>
        <pt x="197" y="168" on="0"/>
        <pt x="272" y="315" on="0"/>
        <pt x="322" y="472" on="0"/>
        <pt x="352" y="645" on="0"/>
        <pt x="368" y="840" on="0"/>
        <pt x="373" y="1062" on="0"/>
        <pt x="373" y="1191" on="1"/>
        <pt x="373" y="1561" on="1"/>
        <pt x="1439" y="1561" on="1"/>
        <pt x="1439" y="95" on="1"/>
        <pt x="1540" y="95" on="1"/>
        <pt x="1540" y="-389" on="1"/>
        <pt x="1355" y="-389" on="1"/>
        <pt x="1355" y="-22" on="1"/>
        <pt x="268" y="-22" on="1"/>
        <pt x="268" y="-389" on="1"/>
        <pt x="75" y="-389" on="1"/>
        <pt x="75" y="95" on="1"/>
      </contour>
    </TTGlyph>
    <TTGlyph name="afii10022" xMin="153" yMin="0" xMax="1136" yMax="1579">
      <component glyphName="E" x="0" y="0" flags="0x1004"/>
    </TTGlyph>
    <TTGlyph name="afii10023" xMin="153" yMin="0" xMax="1136" yMax="1946">
      <component glyphName="E" x="0" y="0" flags="0x1204"/>
      <component glyphName="dieresis" x="167" y="1615" flags="0x1004"/>
    </TTGlyph>
    <TTGlyph name="afii10024" xMin="55" yMin="0" xMax="2015" yMax="1579">
      <contour>
        <pt x="939" y="747" on="1"/>
        <pt x="753" y="747" on="1"/>
        <pt x="259" y="0" on="1"/>
        <pt x="55" y="0" on="1"/>
        <pt x="445" y="570" on="1"/>
        <pt x="476" y="615" on="0"/>
        <pt x="528" y="690" on="0"/>
        <pt x="580" y="748" on="0"/>
        <pt x="636" y="788" on="0"/>
        <pt x="671" y="798" on="1"/>
        <pt x="633" y="810" on="0"/>
        <pt x="574" y="856" on="0"/>
        <pt x="521" y="920" on="0"/>
        <pt x="470" y="1001" on="0"/>
        <pt x="442" y="1049" on="1"/>
        <pt x="123" y="1579" on="1"/>
        <pt x="315" y="1579" on="1"/>
        <pt x="745" y="854" on="1"/>
        <pt x="939" y="854" on="1"/>
        <pt x="939" y="1579" on="1"/>
        <pt x="1133" y="1579" on="1"/>
        <pt x="1133" y="854" on="1"/>
        <pt x="1325" y="854" on="1"/>
        <pt x="1755" y="1579" on="1"/>
        <pt x="1968" y="1579" on="1"/>
        <pt x="1630" y="1052" on="1"/>
        <pt x="1600" y="1006" on="0"/>
        <pt x="1549" y="924" on="0"/>
        <pt x="1497" y="858" on="0"/>
        <pt x="1437" y="810" on="0"/>
        <pt x="1399" y="798" on="1"/>
        <pt x="1433" y="788" on="0"/>
        <pt x="1490" y="750" on="0"/>
        <pt x="1543" y="693" on="0"/>
        <pt x="1596" y="618" on="0"/>
        <pt x="1628" y="572" on="1"/>
        <pt x="2015" y="0" on="1"/>
        <pt x="1813" y="0" on="1"/>
        <pt x="1317" y="747" on="1"/>
        <pt x="1133" y="747" on="1"/>
        <pt x="1133" y="0" on="1"/>
        <pt x="939" y="0" on="1"/>
      </contour>
    </TTGlyph>
    <TTGlyph name="afii10025" xMin="70" yMin="-42" xMax="943" yMax="1610">
      <contour>
        <pt x="556" y="803" on="1"/>
        <pt x="650" y="793" on="0"/>
        <pt x="795" y="722" on="0"/>
        <pt x="893" y="613" on="0"/>
        <pt x="943" y="472" on="0"/>
        <pt x="943" y="392" on="1"/>
        <pt x="943" y="292" on="0"/>
        <pt x="865" y="132" on="0"/>
        <pt x="735" y="19" on="0"/>
        <pt x="567" y="-42" on="0"/>
        <pt x="477" y="-42" on="1"/>
        <pt x="425" y="-42" on="0"/>
        <pt x="327" y="-32" on="0"/>
        <pt x="229" y="-10" on="0"/>
        <pt x="126" y="27" on="0"/>
        <pt x="70" y="54" on="1"/>
        <pt x="124" y="187" on="1"/>
        <pt x="158" y="170" on="0"/>
        <pt x="248" y="142" on="0"/>
        <pt x="344" y="122" on="0"/>
        <pt x="437" y="111" on="0"/>
        <pt x="474" y="111" on="1"/>
        <pt x="545" y="111" on="0"/>
        <pt x="643" y="148" on="0"/>
        <pt x="707" y="206" on="0"/>
        <pt x="743" y="276" on="0"/>
        <pt x="760" y="342" on="0"/>
        <pt x="763" y="396" on="0"/>
        <pt x="763" y="408" on="1"/>
        <pt x="763" y="486" on="0"/>
        <pt x="704" y="606" on="0"/>
        <pt x="593" y="689" on="0"/>
        <pt x="435" y="731" on="0"/>
        <pt x="336" y="731" on="1"/>
        <pt x="269" y="731" on="1"/>
        <pt x="269" y="875" on="1"/>
        <pt x="336" y="875" on="1"/>
        <pt x="540" y="875" on="0"/>
        <pt x="739" y="1050" on="0"/>
        <pt x="739" y="1203" on="1"/>
        <pt x="739" y="1260" on="0"/>
        <pt x="707" y="1354" on="0"/>
        <pt x="638" y="1421" on="0"/>
        <pt x="531" y="1458" on="0"/>
        <pt x="455" y="1458" on="1"/>
        <pt x="380" y="1458" on="0"/>
        <pt x="220" y="1421" on="0"/>
        <pt x="153" y="1389" on="1"/>
        <pt x="103" y="1529" on="1"/>
        <pt x="134" y="1544" on="0"/>
        <pt x="219" y="1573" on="0"/>
        <pt x="314" y="1596" on="0"/>
        <pt x="412" y="1610" on="0"/>
        <pt x="456" y="1610" on="1"/>
        <pt x="548" y="1610" on="0"/>
        <pt x="711" y="1553" on="0"/>
        <pt x="833" y="1448" on="0"/>
        <pt x="904" y="1299" on="0"/>
        <pt x="904" y="1206" on="1"/>
        <pt x="904" y="858" on="0"/>
      </contour>
    </TTGlyph>
    <TTGlyph name="afii10026" xMin="153" yMin="0" xMax="1406" yMax="1579">
      <contour>
        <pt x="315" y="1579" on="1"/>
        <pt x="315" y="330" on="1"/>
        <pt x="1144" y="1579" on="1"/>
        <pt x="1406" y="1579" on="1"/>
        <pt x="1406" y="0" on="1"/>
        <pt x="1244" y="0" on="1"/>
        <pt x="1244" y="1434" on="1"/>
        <pt x="315" y="74" on="1"/>
        <pt x="315" y="0" on="1"/>
        <pt x="153" y="0" on="1"/>
        <pt x="153" y="1579" on="1"/>
      </contour>
    </TTGlyph>
    <TTGlyph name="afii10027" xMin="153" yMin="0" xMax="1406" yMax="1923">
      <component glyphName="afii10026" x="0" y="0" flags="0x1204"/>
      <component glyphName="breve" x="396" y="1615" flags="0x1004"/>
    </TTGlyph>
    <TTGlyph name="afii10028" xMin="153" yMin="0" xMax="1320" yMax="1579">
      <contour>
        <pt x="347" y="0" on="1"/>
        <pt x="153" y="0" on="1"/>
        <pt x="153" y="1579" on="1"/>
        <pt x="347" y="1579" on="1"/>
        <pt x="347" y="854" on="1"/>
        <pt x="570" y="854" on="1"/>
        <pt x="1060" y="1579" on="1"/>
        <pt x="1253" y="1579" on="1"/>
        <pt x="899" y="1052" on="1"/>
        <pt x="861" y="995" on="0"/>
        <pt x="803" y="910" on="0"/>
        <pt x="751" y="849" on="0"/>
        <pt x="698" y="810" on="0"/>
        <pt x="664" y="798" on="1"/>
        <pt x="700" y="788" on="0"/>
        <pt x="765" y="737" on="0"/>
        <pt x="826" y="668" on="0"/>
        <pt x="884" y="587" on="0"/>
        <pt x="914" y="547" on="1"/>
        <pt x="1320" y="0" on="1"/>
        <pt x="1117" y="0" on="1"/>
        <pt x="562" y="747" on="1"/>
        <pt x="347" y="747" on="1"/>
      </contour>
    </TTGlyph>
    <TTGlyph name="afii10029" xMin="81" yMin="-20" xMax="1700" yMax="1579">
      <contour>
        <pt x="1700" y="0" on="1"/>
        <pt x="1506" y="0" on="1"/>
        <pt x="1506" y="1436" on="1"/>
        <pt x="751" y="1436" on="1"/>
        <pt x="707" y="693" on="1"/>
        <pt x="700" y="571" on="0"/>
        <pt x="679" y="370" on="0"/>
        <pt x="633" y="212" on="0"/>
        <pt x="553" y="95" on="0"/>
        <pt x="419" y="18" on="0"/>
        <pt x="221" y="-20" on="0"/>
        <pt x="81" y="-20" on="1"/>
        <pt x="85" y="123" on="1"/>
        <pt x="177" y="127" on="0"/>
        <pt x="308" y="150" on="0"/>
        <pt x="399" y="199" on="0"/>
        <pt x="455" y="280" on="0"/>
        <pt x="488" y="405" on="0"/>
        <pt x="505" y="578" on="0"/>
        <pt x="512" y="696" on="1"/>
        <pt x="561" y="1579" on="1"/>
        <pt x="1700" y="1579" on="1"/>
      </contour>
    </TTGlyph>
    <TTGlyph name="afii10030" xMin="153" yMin="0" xMax="1763" yMax="1579">
      <component glyphName="M" x="0" y="0" flags="0x1204"/>
    </TTGlyph>
    <TTGlyph name="afii10031" xMin="153" yMin="0" xMax="1373" yMax="1579">
      <component glyphName="H" x="0" y="0" flags="0x1204"/>
    </TTGlyph>
    <TTGlyph name="afii10032" xMin="102" yMin="-43" xMax="1415" yMax="1608">
      <component glyphName="O" x="0" y="0" flags="0x1204"/>
    </TTGlyph>
    <TTGlyph name="afii10033" xMin="153" yMin="0" xMax="1373" yMax="1579">
      <contour>
        <pt x="1373" y="0" on="1"/>
        <pt x="1179" y="0" on="1"/>
        <pt x="1179" y="1436" on="1"/>
        <pt x="347" y="1436" on="1"/>
        <pt x="347" y="0" on="1"/>
        <pt x="153" y="0" on="1"/>
        <pt x="153" y="1579" on="1"/>
        <pt x="1373" y="1579" on="1"/>
      </contour>
    </TTGlyph>
    <TTGlyph name="afii10034" xMin="153" yMin="0" xMax="1250" yMax="1579">
      <component glyphName="P" x="0" y="0" flags="0x1004"/>
    </TTGlyph>
    <TTGlyph name="afii10035" xMin="98" yMin="-41" xMax="1208" yMax="1610">
      <component glyphName="C" x="-5" y="0" flags="0x1004"/>
    </TTGlyph>
    <TTGlyph name="afii10036" xMin="53" yMin="0" xMax="1161" yMax="1579">
      <component glyphName="T" x="-13" y="0" flags="0x1004"/>
    </TTGlyph>
    <TTGlyph name="afii10037" xMin="38" yMin="-119" xMax="1071" yMax="1579">
      <contour>
        <pt x="876" y="1579" on="1"/>
        <pt x="1071" y="1579" on="1"/>
        <pt x="641" y="435" on="1"/>
        <pt x="641" y="201" on="1"/>
        <pt x="641" y="35" on="0"/>
        <pt x="451" y="-119" on="0"/>
        <pt x="253" y="-119" on="1"/>
        <pt x="202" y="6" on="1"/>
        <pt x="263" y="7" on="0"/>
        <pt x="369" y="15" on="0"/>
        <pt x="445" y="53" on="0"/>
        <pt x="489" y="133" on="0"/>
        <pt x="489" y="207" on="1"/>
        <pt x="489" y="433" on="1"/>
        <pt x="38" y="1579" on="1"/>
        <pt x="220" y="1579" on="1"/>
        <pt x="565" y="614" on="1"/>
      </contour>
    </TTGlyph>
    <TTGlyph name="afii10038" xMin="103" yMin="0" xMax="1406" yMax="1579">
      <contour>
        <pt x="840" y="0" on="1"/>
        <pt x="650" y="0" on="1"/>
        <pt x="650" y="153" on="1"/>
        <pt x="103" y="201" on="0"/>
        <pt x="103" y="786" on="1"/>
        <pt x="103" y="1371" on="0"/>
        <pt x="650" y="1419" on="1"/>
        <pt x="650" y="1579" on="1"/>
        <pt x="840" y="1579" on="1"/>
        <pt x="840" y="1420" on="1"/>
        <pt x="978" y="1415" on="0"/>
        <pt x="1189" y="1317" on="0"/>
        <pt x="1332" y="1149" on="0"/>
        <pt x="1406" y="922" on="0"/>
        <pt x="1406" y="788" on="1"/>
        <pt x="1406" y="655" on="0"/>
        <pt x="1339" y="431" on="0"/>
        <pt x="1200" y="264" on="0"/>
        <pt x="987" y="162" on="0"/>
        <pt x="840" y="152" on="1"/>
      </contour>
      <contour>
        <pt x="650" y="1267" on="1"/>
        <pt x="299" y="1219" on="0"/>
        <pt x="299" y="788" on="1"/>
        <pt x="299" y="573" on="0"/>
        <pt x="476" y="331" on="0"/>
        <pt x="650" y="305" on="1"/>
      </contour>
      <contour>
        <pt x="840" y="302" on="1"/>
        <pt x="1028" y="323" on="0"/>
        <pt x="1209" y="563" on="0"/>
        <pt x="1209" y="787" on="1"/>
        <pt x="1209" y="1229" on="0"/>
        <pt x="840" y="1270" on="1"/>
      </contour>
    </TTGlyph>
    <TTGlyph name="afii10039" xMin="55" yMin="0" xMax="1267" yMax="1579">
      <component glyphName="X" x="0" y="0" flags="0x1204"/>
    </TTGlyph>
    <TTGlyph name="afii10040" xMin="153" yMin="-418" xMax="1480" yMax="1579">
      <contour>
        <pt x="153" y="1579" on="1"/>
        <pt x="347" y="1579" on="1"/>
        <pt x="347" y="143" on="1"/>
        <pt x="1179" y="143" on="1"/>
        <pt x="1179" y="1579" on="1"/>
        <pt x="1373" y="1579" on="1"/>
        <pt x="1373" y="0" on="1"/>
        <pt x="1480" y="0" on="1"/>
        <pt x="1480" y="-418" on="1"/>
        <pt x="1308" y="-418" on="1"/>
        <pt x="1308" y="0" on="1"/>
        <pt x="153" y="0" on="1"/>
      </contour>
    </TTGlyph>
    <TTGlyph name="afii10041" xMin="118" yMin="0" xMax="1111" yMax="1579">
      <contour>
        <pt x="917" y="590" on="1"/>
        <pt x="860" y="528" on="0"/>
        <pt x="764" y="450" on="0"/>
        <pt x="672" y="405" on="0"/>
        <pt x="579" y="389" on="0"/>
        <pt x="525" y="389" on="1"/>
        <pt x="429" y="389" on="0"/>
        <pt x="278" y="443" on="0"/>
        <pt x="173" y="556" on="0"/>
        <pt x="118" y="731" on="0"/>
        <pt x="118" y="852" on="1"/>
        <pt x="118" y="1579" on="1"/>
        <pt x="312" y="1579" on="1"/>
        <pt x="312" y="852" on="1"/>
        <pt x="312" y="767" on="0"/>
        <pt x="340" y="646" on="0"/>
        <pt x="397" y="568" on="0"/>
        <pt x="483" y="532" on="0"/>
        <pt x="542" y="532" on="1"/>
        <pt x="602" y="532" on="0"/>
        <pt x="717" y="564" on="0"/>
        <pt x="816" y="612" on="0"/>
        <pt x="894" y="667" on="0"/>
        <pt x="917" y="691" on="1"/>
        <pt x="917" y="1579" on="1"/>
        <pt x="1111" y="1579" on="1"/>
        <pt x="1111" y="0" on="1"/>
        <pt x="917" y="0" on="1"/>
      </contour>
    </TTGlyph>
    <TTGlyph name="afii10042" xMin="153" yMin="0" xMax="2159" yMax="1579">
      <contour>
        <pt x="1253" y="143" on="1"/>
        <pt x="1965" y="143" on="1"/>
        <pt x="1965" y="1579" on="1"/>
        <pt x="2159" y="1579" on="1"/>
        <pt x="2159" y="0" on="1"/>
        <pt x="153" y="0" on="1"/>
        <pt x="153" y="1579" on="1"/>
        <pt x="347" y="1579" on="1"/>
        <pt x="347" y="143" on="1"/>
        <pt x="1059" y="143" on="1"/>
        <pt x="1059" y="1579" on="1"/>
        <pt x="1253" y="1579" on="1"/>
      </contour>
    </TTGlyph>
    <TTGlyph name="afii10043" xMin="153" yMin="-410" xMax="2266" yMax="1579">
      <contour>
        <pt x="1253" y="143" on="1"/>
        <pt x="1965" y="143" on="1"/>
        <pt x="1965" y="1579" on="1"/>
        <pt x="2159" y="1579" on="1"/>
        <pt x="2159" y="8" on="1"/>
        <pt x="2266" y="8" on="1"/>
        <pt x="2266" y="-410" on="1"/>
        <pt x="2094" y="-410" on="1"/>
        <pt x="2094" y="0" on="1"/>
        <pt x="153" y="0" on="1"/>
        <pt x="153" y="1579" on="1"/>
        <pt x="347" y="1579" on="1"/>
        <pt x="347" y="143" on="1"/>
        <pt x="1059" y="143" on="1"/>
        <pt x="1059" y="1579" on="1"/>
        <pt x="1253" y="1579" on="1"/>
      </contour>
    </TTGlyph>
    <TTGlyph name="afii10044" xMin="49" yMin="0" xMax="1479" yMax="1579">
      <contour>
        <pt x="576" y="143" on="1"/>
        <pt x="791" y="143" on="1"/>
        <pt x="929" y="143" on="0"/>
        <pt x="1121" y="168" on="0"/>
        <pt x="1242" y="243" on="0"/>
        <pt x="1297" y="379" on="0"/>
        <pt x="1297" y="490" on="1"/>
        <pt x="1297" y="562" on="0"/>
        <pt x="1249" y="664" on="0"/>
        <pt x="1167" y="732" on="0"/>
        <pt x="1058" y="771" on="0"/>
        <pt x="936" y="790" on="0"/>
        <pt x="807" y="795" on="0"/>
        <pt x="746" y="795" on="1"/>
        <pt x="576" y="795" on="1"/>
      </contour>
      <contour>
        <pt x="576" y="940" on="1"/>
        <pt x="746" y="940" on="1"/>
        <pt x="947" y="940" on="0"/>
        <pt x="1226" y="882" on="0"/>
        <pt x="1401" y="764" on="0"/>
        <pt x="1479" y="586" on="0"/>
        <pt x="1479" y="466" on="1"/>
        <pt x="1479" y="344" on="0"/>
        <pt x="1406" y="168" on="0"/>
        <pt x="1241" y="54" on="0"/>
        <pt x="973" y="0" on="0"/>
        <pt x="779" y="0" on="1"/>
        <pt x="382" y="0" on="1"/>
        <pt x="382" y="1436" on="1"/>
        <pt x="49" y="1436" on="1"/>
        <pt x="49" y="1579" on="1"/>
        <pt x="576" y="1579" on="1"/>
      </contour>
    </TTGlyph>
    <TTGlyph name="afii10045" xMin="150" yMin="0" xMax="1711" yMax="1614">
      <contour>
        <pt x="1711" y="0" on="1"/>
        <pt x="1517" y="0" on="1"/>
        <pt x="1517" y="1579" on="1"/>
        <pt x="1711" y="1614" on="1"/>
      </contour>
      <contour>
        <pt x="1247" y="466" on="1"/>
        <pt x="1247" y="344" on="0"/>
        <pt x="1174" y="168" on="0"/>
        <pt x="1009" y="54" on="0"/>
        <pt x="741" y="0" on="0"/>
        <pt x="547" y="0" on="1"/>
        <pt x="150" y="0" on="1"/>
        <pt x="150" y="1579" on="1"/>
        <pt x="344" y="1579" on="1"/>
        <pt x="344" y="940" on="1"/>
        <pt x="514" y="940" on="1"/>
        <pt x="715" y="940" on="0"/>
        <pt x="994" y="882" on="0"/>
        <pt x="1169" y="764" on="0"/>
        <pt x="1247" y="586" on="0"/>
      </contour>
      <contour>
        <pt x="344" y="143" on="1"/>
        <pt x="559" y="143" on="1"/>
        <pt x="701" y="143" on="0"/>
        <pt x="895" y="168" on="0"/>
        <pt x="1013" y="243" on="0"/>
        <pt x="1065" y="379" on="0"/>
        <pt x="1065" y="490" on="1"/>
        <pt x="1065" y="562" on="0"/>
        <pt x="1017" y="664" on="0"/>
        <pt x="935" y="732" on="0"/>
        <pt x="826" y="771" on="0"/>
        <pt x="704" y="790" on="0"/>
        <pt x="575" y="795" on="0"/>
        <pt x="514" y="795" on="1"/>
        <pt x="344" y="795" on="1"/>
      </contour>
    </TTGlyph>
    <TTGlyph name="afii10046" xMin="150" yMin="0" xMax="1247" yMax="1579">
      <contour>
        <pt x="1247" y="466" on="1"/>
        <pt x="1247" y="344" on="0"/>
        <pt x="1174" y="168" on="0"/>
        <pt x="1009" y="54" on="0"/>
        <pt x="741" y="0" on="0"/>
        <pt x="547" y="0" on="1"/>
        <pt x="150" y="0" on="1"/>
        <pt x="150" y="1579" on="1"/>
        <pt x="344" y="1579" on="1"/>
        <pt x="344" y="940" on="1"/>
        <pt x="514" y="940" on="1"/>
        <pt x="715" y="940" on="0"/>
        <pt x="994" y="882" on="0"/>
        <pt x="1169" y="764" on="0"/>
        <pt x="1247" y="586" on="0"/>
      </contour>
      <contour>
        <pt x="344" y="143" on="1"/>
        <pt x="559" y="143" on="1"/>
        <pt x="701" y="143" on="0"/>
        <pt x="895" y="168" on="0"/>
        <pt x="1013" y="243" on="0"/>
        <pt x="1065" y="379" on="0"/>
        <pt x="1065" y="490" on="1"/>
        <pt x="1065" y="562" on="0"/>
        <pt x="1017" y="664" on="0"/>
        <pt x="935" y="732" on="0"/>
        <pt x="826" y="771" on="0"/>
        <pt x="704" y="790" on="0"/>
        <pt x="575" y="795" on="0"/>
        <pt x="514" y="795" on="1"/>
        <pt x="344" y="795" on="1"/>
      </contour>
    </TTGlyph>
    <TTGlyph name="afii10047" xMin="74" yMin="-41" xMax="1184" yMax="1610">
      <contour>
        <pt x="1184" y="767" on="1"/>
        <pt x="1184" y="576" on="0"/>
        <pt x="1101" y="276" on="0"/>
        <pt x="935" y="68" on="0"/>
        <pt x="686" y="-41" on="0"/>
        <pt x="520" y="-41" on="1"/>
        <pt x="426" y="-41" on="0"/>
        <pt x="265" y="-4" on="0"/>
        <pt x="204" y="19" on="1"/>
        <pt x="133" y="45" on="0"/>
        <pt x="74" y="79" on="1"/>
        <pt x="130" y="218" on="1"/>
        <pt x="179" y="188" on="0"/>
        <pt x="242" y="164" on="1"/>
        <pt x="296" y="144" on="0"/>
        <pt x="449" y="111" on="0"/>
        <pt x="545" y="111" on="1"/>
        <pt x="629" y="111" on="0"/>
        <pt x="757" y="161" on="0"/>
        <pt x="853" y="247" on="0"/>
        <pt x="917" y="363" on="0"/>
        <pt x="959" y="497" on="0"/>
        <pt x="979" y="640" on="0"/>
        <pt x="982" y="711" on="1"/>
        <pt x="405" y="711" on="1"/>
        <pt x="405" y="845" on="1"/>
        <pt x="982" y="845" on="1"/>
        <pt x="976" y="1002" on="0"/>
        <pt x="913" y="1233" on="0"/>
        <pt x="794" y="1385" on="0"/>
        <pt x="616" y="1458" on="0"/>
        <pt x="495" y="1458" on="1"/>
        <pt x="418" y="1458" on="0"/>
        <pt x="290" y="1435" on="0"/>
        <pt x="244" y="1421" on="1"/>
        <pt x="189" y="1405" on="0"/>
        <pt x="147" y="1385" on="1"/>
        <pt x="102" y="1530" on="1"/>
        <pt x="159" y="1552" on="0"/>
        <pt x="224" y="1570" on="1"/>
        <pt x="280" y="1585" on="0"/>
        <pt x="425" y="1610" on="0"/>
        <pt x="503" y="1610" on="1"/>
        <pt x="843" y="1610" on="0"/>
        <pt x="1184" y="1186" on="0"/>
      </contour>
    </TTGlyph>
    <TTGlyph name="afii10048" xMin="153" yMin="-41" xMax="1882" yMax="1610">
      <contour>
        <pt x="574" y="858" on="1"/>
        <pt x="574" y="1032" on="0"/>
        <pt x="660" y="1310" on="0"/>
        <pt x="824" y="1505" on="0"/>
        <pt x="1061" y="1610" on="0"/>
        <pt x="1212" y="1610" on="1"/>
        <pt x="1401" y="1610" on="0"/>
        <pt x="1658" y="1495" on="0"/>
        <pt x="1814" y="1282" on="0"/>
        <pt x="1882" y="981" on="0"/>
        <pt x="1882" y="795" on="1"/>
        <pt x="1882" y="577" on="0"/>
        <pt x="1793" y="262" on="0"/>
        <pt x="1624" y="57" on="0"/>
        <pt x="1380" y="-41" on="0"/>
        <pt x="1226" y="-41" on="1"/>
        <pt x="1076" y="-41" on="0"/>
        <pt x="834" y="59" on="0"/>
        <pt x="664" y="256" on="0"/>
        <pt x="572" y="549" on="0"/>
        <pt x="572" y="743" on="1"/>
        <pt x="347" y="743" on="1"/>
        <pt x="347" y="0" on="1"/>
        <pt x="153" y="0" on="1"/>
        <pt x="153" y="1579" on="1"/>
        <pt x="347" y="1579" on="1"/>
        <pt x="347" y="858" on="1"/>
      </contour>
      <contour>
        <pt x="1682" y="813" on="1"/>
        <pt x="1682" y="899" on="0"/>
        <pt x="1666" y="1061" on="0"/>
        <pt x="1626" y="1204" on="0"/>
        <pt x="1558" y="1324" on="0"/>
        <pt x="1456" y="1410" on="0"/>
        <pt x="1314" y="1458" on="0"/>
        <pt x="1221" y="1458" on="1"/>
        <pt x="1108" y="1458" on="0"/>
        <pt x="940" y="1372" on="0"/>
        <pt x="828" y="1210" on="0"/>
        <pt x="772" y="975" on="0"/>
        <pt x="772" y="826" on="1"/>
        <pt x="773" y="722" on="0"/>
        <pt x="786" y="535" on="0"/>
        <pt x="822" y="376" on="0"/>
        <pt x="884" y="248" on="0"/>
        <pt x="985" y="159" on="0"/>
        <pt x="1129" y="111" on="0"/>
        <pt x="1228" y="111" on="1"/>
        <pt x="1458" y="111" on="0"/>
        <pt x="1682" y="454" on="0"/>
      </contour>
    </TTGlyph>
    <TTGlyph name="afii10049" xMin="128" yMin="0" xMax="1231" yMax="1579">
      <contour>
        <pt x="551" y="797" on="1"/>
        <pt x="459" y="797" on="0"/>
        <pt x="307" y="849" on="0"/>
        <pt x="198" y="944" on="0"/>
        <pt x="138" y="1078" on="0"/>
        <pt x="138" y="1160" on="1"/>
        <pt x="138" y="1281" on="0"/>
        <pt x="228" y="1443" on="0"/>
        <pt x="408" y="1539" on="0"/>
        <pt x="676" y="1579" on="0"/>
        <pt x="855" y="1579" on="1"/>
        <pt x="1231" y="1579" on="1"/>
        <pt x="1231" y="0" on="1"/>
        <pt x="1037" y="0" on="1"/>
        <pt x="1037" y="733" on="1"/>
        <pt x="857" y="733" on="1"/>
        <pt x="720" y="733" on="0"/>
        <pt x="519" y="705" on="0"/>
        <pt x="387" y="633" on="0"/>
        <pt x="322" y="508" on="0"/>
        <pt x="322" y="412" on="1"/>
        <pt x="322" y="0" on="1"/>
        <pt x="128" y="0" on="1"/>
        <pt x="128" y="397" on="1"/>
        <pt x="128" y="496" on="0"/>
        <pt x="189" y="638" on="0"/>
        <pt x="300" y="732" on="0"/>
        <pt x="456" y="786" on="0"/>
      </contour>
      <contour>
        <pt x="1037" y="862" on="1"/>
        <pt x="1037" y="1436" on="1"/>
        <pt x="855" y="1436" on="1"/>
        <pt x="741" y="1436" on="0"/>
        <pt x="542" y="1421" on="0"/>
        <pt x="393" y="1364" on="0"/>
        <pt x="308" y="1254" on="0"/>
        <pt x="308" y="1158" on="1"/>
        <pt x="308" y="1094" on="0"/>
        <pt x="359" y="1000" on="0"/>
        <pt x="445" y="935" on="0"/>
        <pt x="557" y="893" on="0"/>
        <pt x="679" y="870" on="0"/>
        <pt x="802" y="862" on="0"/>
        <pt x="856" y="862" on="1"/>
      </contour>
    </TTGlyph>
    <TTGlyph name="afii10051" xMin="51" yMin="-232" xMax="1499" yMax="1579">
      <contour>
        <pt x="891" y="-97" on="1"/>
        <pt x="989" y="-94" on="0"/>
        <pt x="1143" y="-62" on="0"/>
        <pt x="1249" y="24" on="0"/>
        <pt x="1305" y="177" on="0"/>
        <pt x="1305" y="300" on="1"/>
        <pt x="1305" y="727" on="1"/>
        <pt x="1305" y="894" on="0"/>
        <pt x="1195" y="1047" on="0"/>
        <pt x="1083" y="1047" on="1"/>
        <pt x="1020" y="1047" on="0"/>
        <pt x="902" y="1015" on="0"/>
        <pt x="802" y="968" on="0"/>
        <pt x="724" y="912" on="0"/>
        <pt x="701" y="888" on="1"/>
        <pt x="701" y="0" on="1"/>
        <pt x="507" y="0" on="1"/>
        <pt x="507" y="1436" on="1"/>
        <pt x="51" y="1436" on="1"/>
        <pt x="51" y="1579" on="1"/>
        <pt x="1159" y="1579" on="1"/>
        <pt x="1159" y="1436" on="1"/>
        <pt x="701" y="1436" on="1"/>
        <pt x="701" y="1024" on="1"/>
        <pt x="748" y="1076" on="0"/>
        <pt x="841" y="1141" on="0"/>
        <pt x="937" y="1177" on="0"/>
        <pt x="1038" y="1190" on="0"/>
        <pt x="1093" y="1190" on="1"/>
        <pt x="1499" y="1190" on="0"/>
        <pt x="1499" y="727" on="1"/>
        <pt x="1499" y="270" on="1"/>
        <pt x="1499" y="149" on="0"/>
        <pt x="1421" y="-38" on="0"/>
        <pt x="1267" y="-166" on="0"/>
        <pt x="1040" y="-232" on="0"/>
        <pt x="891" y="-232" on="1"/>
      </contour>
    </TTGlyph>
    <TTGlyph name="afii10052" xMin="153" yMin="0" xMax="1179" yMax="2353">
      <component glyphName="afii10020" x="0" y="0" flags="0x1204"/>
      <component glyphName="acute" x="-17" y="1615" flags="0x1004"/>
    </TTGlyph>
    <TTGlyph name="afii10053" xMin="103" yMin="-41" xMax="1213" yMax="1610">
      <contour>
        <pt x="103" y="767" on="1"/>
        <pt x="103" y="1186" on="0"/>
        <pt x="444" y="1610" on="0"/>
        <pt x="783" y="1610" on="1"/>
        <pt x="820" y="1610" on="0"/>
        <pt x="893" y="1604" on="0"/>
        <pt x="984" y="1586" on="0"/>
        <pt x="1102" y="1555" on="0"/>
        <pt x="1185" y="1530" on="1"/>
        <pt x="1140" y="1385" on="1"/>
        <pt x="1077" y="1407" on="0"/>
        <pt x="977" y="1435" on="0"/>
        <pt x="894" y="1452" on="0"/>
        <pt x="822" y="1458" on="0"/>
        <pt x="788" y="1458" on="1"/>
        <pt x="677" y="1458" on="0"/>
        <pt x="502" y="1392" on="0"/>
        <pt x="379" y="1245" on="0"/>
        <pt x="310" y="1009" on="0"/>
        <pt x="305" y="840" on="1"/>
        <pt x="1003" y="840" on="1"/>
        <pt x="1003" y="726" on="1"/>
        <pt x="305" y="726" on="1"/>
        <pt x="311" y="575" on="0"/>
        <pt x="369" y="345" on="0"/>
        <pt x="478" y="190" on="0"/>
        <pt x="641" y="111" on="0"/>
        <pt x="753" y="111" on="1"/>
        <pt x="859" y="111" on="0"/>
        <pt x="1054" y="167" on="0"/>
        <pt x="1157" y="218" on="1"/>
        <pt x="1213" y="79" on="1"/>
        <pt x="1174" y="59" on="0"/>
        <pt x="1069" y="16" on="0"/>
        <pt x="952" y="-19" on="0"/>
        <pt x="827" y="-41" on="0"/>
        <pt x="767" y="-41" on="1"/>
        <pt x="601" y="-41" on="0"/>
        <pt x="352" y="68" on="0"/>
        <pt x="186" y="276" on="0"/>
        <pt x="103" y="576" on="0"/>
      </contour>
    </TTGlyph>
    <TTGlyph name="afii10054" xMin="78" yMin="-41" xMax="1172" yMax="1610">
      <component glyphName="S" x="0" y="0" flags="0x1204"/>
    </TTGlyph>
    <TTGlyph name="afii10055" xMin="89" yMin="0" xMax="682" yMax="1579">
      <component glyphName="I" x="-9" y="0" flags="0x1004"/>
    </TTGlyph>
    <TTGlyph name="afii10056" xMin="39" yMin="0" xMax="752" yMax="1946">
      <component glyphName="I" x="0" y="0" flags="0x1204"/>
      <component glyphName="dieresis" x="-82" y="1615" flags="0x1004"/>
    </TTGlyph>
    <TTGlyph name="afii10057" xMin="50" yMin="-90" xMax="568" yMax="1579">
      <component glyphName="J" x="1" y="0" flags="0x1004"/>
    </TTGlyph>
    <TTGlyph name="afii10058" xMin="81" yMin="-20" xMax="2593" yMax="1580">
      <contour>
        <pt x="2411" y="491" on="1"/>
        <pt x="2411" y="582" on="0"/>
        <pt x="2353" y="699" on="0"/>
        <pt x="2222" y="768" on="0"/>
        <pt x="2012" y="795" on="0"/>
        <pt x="1860" y="795" on="1"/>
        <pt x="1700" y="795" on="1"/>
        <pt x="1700" y="143" on="1"/>
        <pt x="1905" y="143" on="1"/>
        <pt x="2024" y="143" on="0"/>
        <pt x="2192" y="164" on="0"/>
        <pt x="2304" y="206" on="0"/>
        <pt x="2369" y="266" on="0"/>
        <pt x="2402" y="343" on="0"/>
        <pt x="2411" y="437" on="0"/>
      </contour>
      <contour>
        <pt x="1506" y="0" on="1"/>
        <pt x="1506" y="1436" on="1"/>
        <pt x="751" y="1436" on="1"/>
        <pt x="716" y="842" on="1"/>
        <pt x="692" y="446" on="1"/>
        <pt x="684" y="318" on="0"/>
        <pt x="605" y="141" on="0"/>
        <pt x="456" y="30" on="0"/>
        <pt x="232" y="-20" on="0"/>
        <pt x="81" y="-20" on="1"/>
        <pt x="85" y="123" on="1"/>
        <pt x="189" y="128" on="0"/>
        <pt x="331" y="161" on="0"/>
        <pt x="422" y="222" on="0"/>
        <pt x="471" y="312" on="0"/>
        <pt x="497" y="435" on="0"/>
        <pt x="506" y="595" on="0"/>
        <pt x="512" y="696" on="1"/>
        <pt x="561" y="1580" on="1"/>
        <pt x="1700" y="1580" on="1"/>
        <pt x="1700" y="940" on="1"/>
        <pt x="1860" y="940" on="1"/>
        <pt x="2063" y="940" on="0"/>
        <pt x="2343" y="879" on="0"/>
        <pt x="2516" y="761" on="0"/>
        <pt x="2593" y="586" on="0"/>
        <pt x="2593" y="472" on="1"/>
        <pt x="2593" y="334" on="0"/>
        <pt x="2504" y="152" on="0"/>
        <pt x="2329" y="44" on="0"/>
        <pt x="2067" y="0" on="0"/>
        <pt x="1893" y="0" on="1"/>
      </contour>
    </TTGlyph>
    <TTGlyph name="afii10059" xMin="153" yMin="0" xMax="2266" yMax="1579">
      <contour>
        <pt x="2084" y="491" on="1"/>
        <pt x="2084" y="582" on="0"/>
        <pt x="2026" y="699" on="0"/>
        <pt x="1895" y="768" on="0"/>
        <pt x="1685" y="795" on="0"/>
        <pt x="1533" y="795" on="1"/>
        <pt x="1373" y="795" on="1"/>
        <pt x="1373" y="143" on="1"/>
        <pt x="1578" y="143" on="1"/>
        <pt x="1697" y="143" on="0"/>
        <pt x="1865" y="164" on="0"/>
        <pt x="1977" y="206" on="0"/>
        <pt x="2042" y="266" on="0"/>
        <pt x="2075" y="343" on="0"/>
        <pt x="2084" y="437" on="0"/>
      </contour>
      <contour>
        <pt x="1179" y="764" on="1"/>
        <pt x="347" y="764" on="1"/>
        <pt x="347" y="0" on="1"/>
        <pt x="153" y="0" on="1"/>
        <pt x="153" y="1579" on="1"/>
        <pt x="347" y="1579" on="1"/>
        <pt x="347" y="879" on="1"/>
        <pt x="1179" y="879" on="1"/>
        <pt x="1179" y="1579" on="1"/>
        <pt x="1373" y="1579" on="1"/>
        <pt x="1373" y="940" on="1"/>
        <pt x="1533" y="940" on="1"/>
        <pt x="1736" y="940" on="0"/>
        <pt x="2016" y="879" on="0"/>
        <pt x="2189" y="761" on="0"/>
        <pt x="2266" y="586" on="0"/>
        <pt x="2266" y="472" on="1"/>
        <pt x="2266" y="334" on="0"/>
        <pt x="2177" y="152" on="0"/>
        <pt x="2002" y="44" on="0"/>
        <pt x="1740" y="0" on="0"/>
        <pt x="1566" y="0" on="1"/>
        <pt x="1179" y="0" on="1"/>
      </contour>
    </TTGlyph>
    <TTGlyph name="afii10060" xMin="66" yMin="0" xMax="1513" yMax="1579">
      <contour>
        <pt x="718" y="1436" on="1"/>
        <pt x="718" y="991" on="1"/>
        <pt x="773" y="1050" on="0"/>
        <pt x="820" y="1089" on="1"/>
        <pt x="868" y="1128" on="0"/>
        <pt x="959" y="1173" on="0"/>
        <pt x="1053" y="1190" on="0"/>
        <pt x="1108" y="1190" on="1"/>
        <pt x="1199" y="1190" on="0"/>
        <pt x="1329" y="1149" on="0"/>
        <pt x="1419" y="1075" on="0"/>
        <pt x="1474" y="971" on="0"/>
        <pt x="1503" y="845" on="0"/>
        <pt x="1513" y="701" on="0"/>
        <pt x="1513" y="623" on="1"/>
        <pt x="1513" y="0" on="1"/>
        <pt x="1323" y="0" on="1"/>
        <pt x="1323" y="623" on="1"/>
        <pt x="1323" y="734" on="0"/>
        <pt x="1305" y="896" on="0"/>
        <pt x="1255" y="1002" on="0"/>
        <pt x="1165" y="1053" on="0"/>
        <pt x="1092" y="1053" on="1"/>
        <pt x="1029" y="1053" on="0"/>
        <pt x="911" y="1018" on="0"/>
        <pt x="811" y="967" on="0"/>
        <pt x="773" y="938" on="1"/>
        <pt x="738" y="911" on="0"/>
        <pt x="718" y="890" on="1"/>
        <pt x="718" y="0" on="1"/>
        <pt x="524" y="0" on="1"/>
        <pt x="524" y="1436" on="1"/>
        <pt x="66" y="1436" on="1"/>
        <pt x="66" y="1579" on="1"/>
        <pt x="1174" y="1579" on="1"/>
        <pt x="1174" y="1436" on="1"/>
      </contour>
    </TTGlyph>
    <TTGlyph name="afii10061" xMin="153" yMin="0" xMax="1320" yMax="2353">
      <component glyphName="afii10028" x="0" y="0" flags="0x1204"/>
      <component glyphName="acute" x="52" y="1615" flags="0x1004"/>
    </TTGlyph>
    <TTGlyph name="afii10062" xMin="38" yMin="-119" xMax="1071" yMax="1923">
      <component glyphName="afii10037" x="0" y="0" flags="0x1204"/>
      <component glyphName="breve" x="171" y="1615" flags="0x1004"/>
    </TTGlyph>
    <TTGlyph name="afii10065" xMin="111" yMin="-20" xMax="1076" yMax="1190">
      <component glyphName="a" x="10" y="0" flags="0x1004"/>
    </TTGlyph>
    <TTGlyph name="afii10066" xMin="105" yMin="-20" xMax="1086" yMax="1578">
      <contour>
        <pt x="281" y="610" on="1"/>
        <pt x="281" y="560" on="0"/>
        <pt x="289" y="448" on="0"/>
        <pt x="312" y="338" on="0"/>
        <pt x="353" y="238" on="0"/>
        <pt x="423" y="162" on="0"/>
        <pt x="525" y="117" on="0"/>
        <pt x="597" y="117" on="1"/>
        <pt x="681" y="117" on="0"/>
        <pt x="799" y="176" on="0"/>
        <pt x="875" y="289" on="0"/>
        <pt x="910" y="452" on="0"/>
        <pt x="910" y="557" on="1"/>
        <pt x="910" y="666" on="0"/>
        <pt x="866" y="819" on="0"/>
        <pt x="786" y="915" on="0"/>
        <pt x="672" y="958" on="0"/>
        <pt x="602" y="958" on="1"/>
        <pt x="521" y="958" on="0"/>
        <pt x="400" y="902" on="0"/>
        <pt x="321" y="806" on="0"/>
        <pt x="281" y="680" on="0"/>
      </contour>
      <contour>
        <pt x="591" y="-20" on="1"/>
        <pt x="470" y="-20" on="0"/>
        <pt x="288" y="71" on="0"/>
        <pt x="166" y="241" on="0"/>
        <pt x="105" y="486" on="0"/>
        <pt x="105" y="639" on="1"/>
        <pt x="105" y="859" on="0"/>
        <pt x="172" y="1181" on="0"/>
        <pt x="302" y="1393" on="0"/>
        <pt x="493" y="1496" on="0"/>
        <pt x="617" y="1496" on="1"/>
        <pt x="752" y="1496" on="1"/>
        <pt x="786" y="1496" on="0"/>
        <pt x="827" y="1504" on="0"/>
        <pt x="849" y="1523" on="0"/>
        <pt x="856" y="1554" on="0"/>
        <pt x="856" y="1578" on="1"/>
        <pt x="1008" y="1578" on="1"/>
        <pt x="1008" y="1524" on="0"/>
        <pt x="982" y="1440" on="0"/>
        <pt x="922" y="1383" on="0"/>
        <pt x="823" y="1354" on="0"/>
        <pt x="750" y="1354" on="1"/>
        <pt x="681" y="1354" on="1"/>
        <pt x="602" y="1354" on="0"/>
        <pt x="462" y="1321" on="0"/>
        <pt x="353" y="1223" on="0"/>
        <pt x="279" y="1047" on="0"/>
        <pt x="266" y="904" on="1"/>
        <pt x="285" y="940" on="0"/>
        <pt x="356" y="1007" on="0"/>
        <pt x="451" y="1060" on="0"/>
        <pt x="563" y="1092" on="0"/>
        <pt x="623" y="1092" on="1"/>
        <pt x="734" y="1092" on="0"/>
        <pt x="906" y="1022" on="0"/>
        <pt x="1024" y="884" on="0"/>
        <pt x="1086" y="681" on="0"/>
        <pt x="1086" y="548" on="1"/>
        <pt x="1086" y="431" on="0"/>
        <pt x="1024" y="224" on="0"/>
        <pt x="900" y="69" on="0"/>
        <pt x="714" y="-20" on="0"/>
      </contour>
    </TTGlyph>
    <TTGlyph name="afii10067" xMin="144" yMin="0" xMax="1055" yMax="1168">
      <contour>
        <pt x="487" y="115" on="1"/>
        <pt x="587" y="115" on="0"/>
        <pt x="730" y="138" on="0"/>
        <pt x="822" y="188" on="0"/>
        <pt x="866" y="268" on="0"/>
        <pt x="866" y="325" on="1"/>
        <pt x="866" y="406" on="0"/>
        <pt x="801" y="501" on="0"/>
        <pt x="694" y="550" on="0"/>
        <pt x="555" y="563" on="0"/>
        <pt x="482" y="563" on="1"/>
        <pt x="444" y="563" on="0"/>
        <pt x="370" y="562" on="0"/>
        <pt x="335" y="562" on="1"/>
        <pt x="335" y="115" on="1"/>
      </contour>
      <contour>
        <pt x="335" y="666" on="1"/>
        <pt x="453" y="666" on="0"/>
        <pt x="642" y="670" on="0"/>
        <pt x="775" y="706" on="0"/>
        <pt x="846" y="790" on="0"/>
        <pt x="846" y="870" on="1"/>
        <pt x="846" y="915" on="0"/>
        <pt x="807" y="984" on="0"/>
        <pt x="721" y="1031" on="0"/>
        <pt x="583" y="1055" on="0"/>
        <pt x="483" y="1055" on="1"/>
        <pt x="335" y="1055" on="1"/>
      </contour>
      <contour>
        <pt x="144" y="1168" on="1"/>
        <pt x="517" y="1168" on="1"/>
        <pt x="654" y="1168" on="0"/>
        <pt x="847" y="1126" on="0"/>
        <pt x="969" y="1049" on="0"/>
        <pt x="1025" y="939" on="0"/>
        <pt x="1025" y="871" on="1"/>
        <pt x="1025" y="818" on="0"/>
        <pt x="994" y="728" on="0"/>
        <pt x="928" y="661" on="0"/>
        <pt x="823" y="619" on="0"/>
        <pt x="748" y="614" on="1"/>
        <pt x="813" y="609" on="0"/>
        <pt x="925" y="572" on="0"/>
        <pt x="1008" y="502" on="0"/>
        <pt x="1055" y="399" on="0"/>
        <pt x="1055" y="328" on="1"/>
        <pt x="1055" y="166" on="0"/>
        <pt x="798" y="0" on="0"/>
        <pt x="522" y="0" on="1"/>
        <pt x="144" y="0" on="1"/>
      </contour>
    </TTGlyph>
    <TTGlyph name="afii10068" xMin="144" yMin="0" xMax="920" yMax="1169">
      <contour>
        <pt x="144" y="0" on="1"/>
        <pt x="144" y="1169" on="1"/>
        <pt x="920" y="1169" on="1"/>
        <pt x="920" y="1036" on="1"/>
        <pt x="334" y="1036" on="1"/>
        <pt x="334" y="0" on="1"/>
      </contour>
    </TTGlyph>
    <TTGlyph name="afii10069" xMin="80" yMin="-379" xMax="1349" yMax="1169">
      <contour>
        <pt x="80" y="99" on="1"/>
        <pt x="192" y="99" on="1"/>
        <pt x="245" y="151" on="0"/>
        <pt x="306" y="272" on="0"/>
        <pt x="314" y="342" on="1"/>
        <pt x="337" y="550" on="0"/>
        <pt x="385" y="961" on="0"/>
        <pt x="409" y="1169" on="1"/>
        <pt x="1141" y="1169" on="1"/>
        <pt x="1141" y="109" on="1"/>
        <pt x="1349" y="109" on="1"/>
        <pt x="1349" y="-379" on="1"/>
        <pt x="1165" y="-379" on="1"/>
        <pt x="1165" y="0" on="1"/>
        <pt x="270" y="0" on="1"/>
        <pt x="270" y="-379" on="1"/>
        <pt x="80" y="-379" on="1"/>
      </contour>
      <contour>
        <pt x="951" y="1036" on="1"/>
        <pt x="580" y="1036" on="1"/>
        <pt x="501" y="458" on="1"/>
        <pt x="494" y="410" on="0"/>
        <pt x="483" y="321" on="0"/>
        <pt x="466" y="234" on="0"/>
        <pt x="439" y="146" on="0"/>
        <pt x="417" y="99" on="1"/>
        <pt x="951" y="113" on="1"/>
      </contour>
    </TTGlyph>
    <TTGlyph name="afii10070" xMin="101" yMin="-20" xMax="1059" yMax="1190">
      <component glyphName="e" x="0" y="0" flags="0x1204"/>
    </TTGlyph>
    <TTGlyph name="afii10071" xMin="101" yMin="-20" xMax="1059" yMax="1511">
      <component glyphName="e" x="0" y="0" flags="0x1204"/>
      <component glyphName="dieresis" x="103" y="1180" flags="0x1004"/>
    </TTGlyph>
    <TTGlyph name="afii10071.001" xMin="101" yMin="-20" xMax="1059" yMax="1190">
      <component glyphName="e" x="0" y="0" flags="0x1204"/>
      <component glyphName="dieresis" x="94" y="0" flags="0x1004"/>
    </TTGlyph>
    <TTGlyph name="afii10072" xMin="73" yMin="-7" xMax="1557" yMax="1169">
      <contour>
        <pt x="727" y="0" on="1"/>
        <pt x="727" y="529" on="1"/>
        <pt x="550" y="529" on="1"/>
        <pt x="289" y="0" on="1"/>
        <pt x="77" y="0" on="1"/>
        <pt x="344" y="468" on="1"/>
        <pt x="405" y="577" on="0"/>
        <pt x="496" y="584" on="1"/>
        <pt x="461" y="587" on="0"/>
        <pt x="408" y="618" on="0"/>
        <pt x="362" y="672" on="0"/>
        <pt x="315" y="749" on="0"/>
        <pt x="287" y="798" on="1"/>
        <pt x="73" y="1169" on="1"/>
        <pt x="289" y="1169" on="1"/>
        <pt x="540" y="646" on="1"/>
        <pt x="727" y="646" on="1"/>
        <pt x="727" y="1169" on="1"/>
        <pt x="903" y="1169" on="1"/>
        <pt x="903" y="647" on="1"/>
        <pt x="1089" y="647" on="1"/>
        <pt x="1341" y="1169" on="1"/>
        <pt x="1557" y="1169" on="1"/>
        <pt x="1343" y="798" on="1"/>
        <pt x="1314" y="749" on="0"/>
        <pt x="1268" y="672" on="0"/>
        <pt x="1222" y="618" on="0"/>
        <pt x="1169" y="587" on="0"/>
        <pt x="1134" y="584" on="1"/>
        <pt x="1225" y="576" on="0"/>
        <pt x="1286" y="468" on="1"/>
        <pt x="1553" y="-7" on="1"/>
        <pt x="1325" y="-7" on="1"/>
        <pt x="1086" y="531" on="1"/>
        <pt x="903" y="531" on="1"/>
        <pt x="903" y="0" on="1"/>
      </contour>
    </TTGlyph>
    <TTGlyph name="afii10073" xMin="81" yMin="-19" xMax="902" yMax="1190">
      <contour>
        <pt x="226" y="674" on="1"/>
        <pt x="287" y="674" on="0"/>
        <pt x="406" y="674" on="0"/>
        <pt x="515" y="685" on="0"/>
        <pt x="608" y="709" on="0"/>
        <pt x="675" y="757" on="0"/>
        <pt x="714" y="833" on="0"/>
        <pt x="714" y="890" on="1"/>
        <pt x="714" y="945" on="0"/>
        <pt x="661" y="1010" on="0"/>
        <pt x="577" y="1044" on="0"/>
        <pt x="474" y="1055" on="0"/>
        <pt x="424" y="1055" on="1"/>
        <pt x="379" y="1055" on="0"/>
        <pt x="279" y="1042" on="0"/>
        <pt x="237" y="1034" on="1"/>
        <pt x="188" y="1025" on="0"/>
        <pt x="141" y="1014" on="1"/>
        <pt x="105" y="1142" on="1"/>
        <pt x="157" y="1155" on="0"/>
        <pt x="214" y="1166" on="1"/>
        <pt x="263" y="1175" on="0"/>
        <pt x="383" y="1190" on="0"/>
        <pt x="445" y="1190" on="1"/>
        <pt x="537" y="1190" on="0"/>
        <pt x="694" y="1160" on="0"/>
        <pt x="808" y="1091" on="0"/>
        <pt x="873" y="981" on="0"/>
        <pt x="873" y="902" on="1"/>
        <pt x="873" y="770" on="0"/>
        <pt x="748" y="628" on="0"/>
        <pt x="637" y="602" on="1"/>
        <pt x="692" y="592" on="0"/>
        <pt x="788" y="548" on="0"/>
        <pt x="860" y="475" on="0"/>
        <pt x="902" y="372" on="0"/>
        <pt x="902" y="305" on="1"/>
        <pt x="902" y="226" on="0"/>
        <pt x="843" y="105" on="0"/>
        <pt x="732" y="23" on="0"/>
        <pt x="575" y="-19" on="0"/>
        <pt x="477" y="-19" on="1"/>
        <pt x="403" y="-19" on="0"/>
        <pt x="263" y="0" on="0"/>
        <pt x="206" y="11" on="1"/>
        <pt x="140" y="24" on="0"/>
        <pt x="81" y="41" on="1"/>
        <pt x="120" y="168" on="1"/>
        <pt x="180" y="152" on="0"/>
        <pt x="241" y="140" on="1"/>
        <pt x="293" y="129" on="0"/>
        <pt x="413" y="112" on="0"/>
        <pt x="467" y="112" on="1"/>
        <pt x="521" y="112" on="0"/>
        <pt x="614" y="131" on="0"/>
        <pt x="684" y="176" on="0"/>
        <pt x="728" y="250" on="0"/>
        <pt x="732" y="306" on="1"/>
        <pt x="732" y="385" on="0"/>
        <pt x="667" y="475" on="0"/>
        <pt x="539" y="519" on="0"/>
        <pt x="350" y="529" on="0"/>
        <pt x="226" y="529" on="1"/>
      </contour>
    </TTGlyph>
    <TTGlyph name="afii10074" xMin="144" yMin="0" xMax="1208" yMax="1169">
      <contour>
        <pt x="1208" y="0" on="1"/>
        <pt x="1040" y="0" on="1"/>
        <pt x="1040" y="1025" on="1"/>
        <pt x="320" y="106" on="1"/>
        <pt x="320" y="0" on="1"/>
        <pt x="144" y="0" on="1"/>
        <pt x="144" y="1169" on="1"/>
        <pt x="315" y="1169" on="1"/>
        <pt x="315" y="303" on="1"/>
        <pt x="976" y="1169" on="1"/>
        <pt x="1208" y="1169" on="1"/>
      </contour>
    </TTGlyph>
    <TTGlyph name="afii10075" xMin="144" yMin="-15" xMax="1208" yMax="1169">
      <component glyphName="uni0306" x="311" y="-84" flags="0x1004"/>
      <component glyphName="afii10074" x="0" y="0" flags="0x1004"/>
    </TTGlyph>
    <TTGlyph name="afii10076" xMin="144" yMin="0" xMax="1107" yMax="1169">
      <contour>
        <pt x="334" y="1169" on="1"/>
        <pt x="334" y="642" on="1"/>
        <pt x="465" y="642" on="1"/>
        <pt x="881" y="1169" on="1"/>
        <pt x="1107" y="1169" on="1"/>
        <pt x="814" y="821" on="1"/>
        <pt x="791" y="794" on="0"/>
        <pt x="730" y="715" on="0"/>
        <pt x="656" y="641" on="0"/>
        <pt x="570" y="586" on="0"/>
        <pt x="524" y="584" on="1"/>
        <pt x="547" y="579" on="0"/>
        <pt x="602" y="558" on="0"/>
        <pt x="657" y="528" on="0"/>
        <pt x="707" y="490" on="0"/>
        <pt x="725" y="468" on="1"/>
        <pt x="1101" y="0" on="1"/>
        <pt x="881" y="0" on="1"/>
        <pt x="454" y="531" on="1"/>
        <pt x="334" y="531" on="1"/>
        <pt x="334" y="0" on="1"/>
        <pt x="144" y="0" on="1"/>
        <pt x="144" y="1169" on="1"/>
      </contour>
    </TTGlyph>
    <TTGlyph name="afii10077" xMin="78" yMin="-20" xMax="1234" yMax="1169">
      <contour>
        <pt x="1234" y="0" on="1"/>
        <pt x="1044" y="0" on="1"/>
        <pt x="1044" y="1036" on="1"/>
        <pt x="521" y="1036" on="1"/>
        <pt x="498" y="571" on="1"/>
        <pt x="489" y="418" on="0"/>
        <pt x="446" y="195" on="0"/>
        <pt x="353" y="50" on="0"/>
        <pt x="199" y="-20" on="0"/>
        <pt x="78" y="-20" on="1"/>
        <pt x="78" y="117" on="1"/>
        <pt x="133" y="117" on="0"/>
        <pt x="216" y="163" on="0"/>
        <pt x="273" y="248" on="0"/>
        <pt x="304" y="369" on="0"/>
        <pt x="308" y="445" on="1"/>
        <pt x="343" y="1169" on="1"/>
        <pt x="1234" y="1169" on="1"/>
      </contour>
    </TTGlyph>
    <TTGlyph name="afii10078" xMin="144" yMin="0" xMax="1446" yMax="1169">
      <contour>
        <pt x="1446" y="1169" on="1"/>
        <pt x="1446" y="0" on="1"/>
        <pt x="1283" y="0" on="1"/>
        <pt x="1283" y="1060" on="1"/>
        <pt x="896" y="0" on="1"/>
        <pt x="700" y="0" on="1"/>
        <pt x="307" y="1060" on="1"/>
        <pt x="307" y="0" on="1"/>
        <pt x="144" y="0" on="1"/>
        <pt x="144" y="1169" on="1"/>
        <pt x="423" y="1169" on="1"/>
        <pt x="798" y="158" on="1"/>
        <pt x="1167" y="1169" on="1"/>
      </contour>
    </TTGlyph>
    <TTGlyph name="afii10079" xMin="144" yMin="0" xMax="1171" yMax="1169">
      <contour>
        <pt x="334" y="685" on="1"/>
        <pt x="981" y="685" on="1"/>
        <pt x="981" y="1169" on="1"/>
        <pt x="1171" y="1169" on="1"/>
        <pt x="1171" y="0" on="1"/>
        <pt x="981" y="0" on="1"/>
        <pt x="981" y="570" on="1"/>
        <pt x="334" y="570" on="1"/>
        <pt x="334" y="0" on="1"/>
        <pt x="144" y="0" on="1"/>
        <pt x="144" y="1169" on="1"/>
        <pt x="334" y="1169" on="1"/>
      </contour>
    </TTGlyph>
    <TTGlyph name="afii10080" xMin="102" yMin="-38" xMax="1162" yMax="1177">
      <component glyphName="o" x="0" y="0" flags="0x1204"/>
    </TTGlyph>
    <TTGlyph name="afii10081" xMin="144" yMin="0" xMax="1170" yMax="1169">
      <contour>
        <pt x="1170" y="0" on="1"/>
        <pt x="979" y="0" on="1"/>
        <pt x="979" y="1036" on="1"/>
        <pt x="334" y="1036" on="1"/>
        <pt x="334" y="0" on="1"/>
        <pt x="144" y="0" on="1"/>
        <pt x="144" y="1169" on="1"/>
        <pt x="1170" y="1169" on="1"/>
      </contour>
    </TTGlyph>
    <TTGlyph name="afii10082" xMin="144" yMin="-487" xMax="1162" yMax="1190">
      <component glyphName="p" x="0" y="0" flags="0x1204"/>
    </TTGlyph>
    <TTGlyph name="afii10083" xMin="101" yMin="-20" xMax="1000" yMax="1190">
      <component glyphName="c" x="0" y="0" flags="0x1004"/>
    </TTGlyph>
    <TTGlyph name="afii10084" xMin="70" yMin="0" xMax="1053" yMax="1169">
      <contour>
        <pt x="1053" y="1036" on="1"/>
        <pt x="646" y="1036" on="1"/>
        <pt x="646" y="0" on="1"/>
        <pt x="456" y="0" on="1"/>
        <pt x="456" y="1036" on="1"/>
        <pt x="70" y="1036" on="1"/>
        <pt x="70" y="1169" on="1"/>
        <pt x="1053" y="1169" on="1"/>
      </contour>
    </TTGlyph>
    <TTGlyph name="afii10085" xMin="45" yMin="-459" xMax="1078" yMax="1169">
      <component glyphName="y" x="0" y="0" flags="0x1204"/>
    </TTGlyph>
    <TTGlyph name="afii10086" xMin="101" yMin="-20" xMax="1261" yMax="1191">
      <contour>
        <pt x="601" y="1191" on="1"/>
        <pt x="761" y="1191" on="1"/>
        <pt x="761" y="1076" on="1"/>
        <pt x="873" y="1076" on="0"/>
        <pt x="1058" y="1005" on="0"/>
        <pt x="1189" y="875" on="0"/>
        <pt x="1261" y="690" on="0"/>
        <pt x="1261" y="576" on="1"/>
        <pt x="1261" y="464" on="0"/>
        <pt x="1185" y="283" on="0"/>
        <pt x="1050" y="155" on="0"/>
        <pt x="867" y="86" on="0"/>
        <pt x="761" y="86" on="1"/>
        <pt x="761" y="-20" on="1"/>
        <pt x="601" y="-20" on="1"/>
        <pt x="601" y="86" on="1"/>
        <pt x="490" y="86" on="0"/>
        <pt x="306" y="157" on="0"/>
        <pt x="174" y="286" on="0"/>
        <pt x="101" y="469" on="0"/>
        <pt x="101" y="581" on="1"/>
        <pt x="101" y="694" on="0"/>
        <pt x="175" y="877" on="0"/>
        <pt x="308" y="1006" on="0"/>
        <pt x="492" y="1076" on="0"/>
        <pt x="601" y="1076" on="1"/>
      </contour>
      <contour>
        <pt x="601" y="937" on="1"/>
        <pt x="522" y="937" on="0"/>
        <pt x="403" y="888" on="0"/>
        <pt x="323" y="796" on="0"/>
        <pt x="283" y="664" on="0"/>
        <pt x="283" y="582" on="1"/>
        <pt x="283" y="405" on="0"/>
        <pt x="442" y="225" on="0"/>
        <pt x="601" y="225" on="1"/>
      </contour>
      <contour>
        <pt x="761" y="225" on="1"/>
        <pt x="911" y="226" on="0"/>
        <pt x="1079" y="403" on="0"/>
        <pt x="1079" y="582" on="1"/>
        <pt x="1079" y="660" on="0"/>
        <pt x="1040" y="791" on="0"/>
        <pt x="962" y="885" on="0"/>
        <pt x="842" y="937" on="0"/>
        <pt x="761" y="937" on="1"/>
      </contour>
    </TTGlyph>
    <TTGlyph name="afii10087" xMin="73" yMin="0" xMax="1071" yMax="1169">
      <component glyphName="x" x="9" y="0" flags="0x1004"/>
    </TTGlyph>
    <TTGlyph name="afii10088" xMin="144" yMin="-378" xMax="1232" yMax="1169">
      <contour>
        <pt x="144" y="1169" on="1"/>
        <pt x="334" y="1169" on="1"/>
        <pt x="334" y="114" on="1"/>
        <pt x="923" y="114" on="1"/>
        <pt x="923" y="1169" on="1"/>
        <pt x="1113" y="1169" on="1"/>
        <pt x="1113" y="80" on="1"/>
        <pt x="1232" y="80" on="1"/>
        <pt x="1232" y="-378" on="1"/>
        <pt x="1060" y="-378" on="1"/>
        <pt x="1060" y="0" on="1"/>
        <pt x="144" y="0" on="1"/>
      </contour>
    </TTGlyph>
    <TTGlyph name="afii10089" xMin="104" yMin="0" xMax="1091" yMax="1169">
      <contour>
        <pt x="901" y="573" on="1"/>
        <pt x="844" y="511" on="0"/>
        <pt x="748" y="433" on="0"/>
        <pt x="656" y="388" on="0"/>
        <pt x="563" y="372" on="0"/>
        <pt x="509" y="372" on="1"/>
        <pt x="413" y="372" on="0"/>
        <pt x="262" y="428" on="0"/>
        <pt x="159" y="542" on="0"/>
        <pt x="104" y="716" on="0"/>
        <pt x="104" y="835" on="1"/>
        <pt x="104" y="1169" on="1"/>
        <pt x="294" y="1169" on="1"/>
        <pt x="294" y="835" on="1"/>
        <pt x="294" y="668" on="0"/>
        <pt x="408" y="515" on="0"/>
        <pt x="526" y="515" on="1"/>
        <pt x="586" y="515" on="0"/>
        <pt x="701" y="547" on="0"/>
        <pt x="800" y="595" on="0"/>
        <pt x="878" y="650" on="0"/>
        <pt x="901" y="674" on="1"/>
        <pt x="901" y="1169" on="1"/>
        <pt x="1091" y="1169" on="1"/>
        <pt x="1091" y="0" on="1"/>
        <pt x="901" y="0" on="1"/>
      </contour>
    </TTGlyph>
    <TTGlyph name="afii10090" xMin="144" yMin="0" xMax="1569" yMax="1169">
      <contour>
        <pt x="144" y="1169" on="1"/>
        <pt x="334" y="1169" on="1"/>
        <pt x="334" y="115" on="1"/>
        <pt x="769" y="115" on="1"/>
        <pt x="769" y="1169" on="1"/>
        <pt x="955" y="1169" on="1"/>
        <pt x="955" y="115" on="1"/>
        <pt x="1381" y="115" on="1"/>
        <pt x="1381" y="1169" on="1"/>
        <pt x="1569" y="1169" on="1"/>
        <pt x="1569" y="0" on="1"/>
        <pt x="144" y="0" on="1"/>
      </contour>
    </TTGlyph>
    <TTGlyph name="afii10091" xMin="144" yMin="-301" xMax="1675" yMax="1169">
      <contour>
        <pt x="1675" y="-301" on="1"/>
        <pt x="1485" y="-301" on="1"/>
        <pt x="1485" y="0" on="1"/>
        <pt x="144" y="0" on="1"/>
        <pt x="144" y="1169" on="1"/>
        <pt x="335" y="1169" on="1"/>
        <pt x="335" y="118" on="1"/>
        <pt x="767" y="118" on="1"/>
        <pt x="767" y="1169" on="1"/>
        <pt x="953" y="1169" on="1"/>
        <pt x="953" y="118" on="1"/>
        <pt x="1374" y="118" on="1"/>
        <pt x="1374" y="1169" on="1"/>
        <pt x="1562" y="1169" on="1"/>
        <pt x="1562" y="120" on="1"/>
        <pt x="1675" y="120" on="1"/>
      </contour>
    </TTGlyph>
    <TTGlyph name="afii10092" xMin="68" yMin="0" xMax="1335" yMax="1169">
      <contour>
        <pt x="404" y="0" on="1"/>
        <pt x="404" y="1036" on="1"/>
        <pt x="68" y="1036" on="1"/>
        <pt x="68" y="1169" on="1"/>
        <pt x="595" y="1169" on="1"/>
        <pt x="595" y="778" on="1"/>
        <pt x="806" y="778" on="0"/>
        <pt x="1090" y="732" on="0"/>
        <pt x="1262" y="637" on="0"/>
        <pt x="1335" y="490" on="0"/>
        <pt x="1335" y="389" on="1"/>
        <pt x="1335" y="302" on="0"/>
        <pt x="1282" y="177" on="0"/>
        <pt x="1191" y="90" on="0"/>
        <pt x="1067" y="38" on="0"/>
        <pt x="924" y="9" on="0"/>
        <pt x="769" y="0" on="0"/>
        <pt x="692" y="0" on="1"/>
      </contour>
      <contour>
        <pt x="1135" y="393" on="1"/>
        <pt x="1135" y="441" on="0"/>
        <pt x="1119" y="515" on="0"/>
        <pt x="1075" y="568" on="0"/>
        <pt x="999" y="604" on="0"/>
        <pt x="879" y="626" on="0"/>
        <pt x="709" y="635" on="0"/>
        <pt x="595" y="635" on="1"/>
        <pt x="595" y="143" on="1"/>
        <pt x="653" y="143" on="1"/>
        <pt x="697" y="143" on="0"/>
        <pt x="804" y="146" on="0"/>
        <pt x="911" y="160" on="0"/>
        <pt x="1011" y="191" on="0"/>
        <pt x="1088" y="246" on="0"/>
        <pt x="1135" y="331" on="0"/>
      </contour>
    </TTGlyph>
    <TTGlyph name="afii10093" xMin="144" yMin="0" xMax="1507" yMax="1169">
      <contour>
        <pt x="1325" y="0" on="1"/>
        <pt x="1325" y="1169" on="1"/>
        <pt x="1507" y="1169" on="1"/>
        <pt x="1507" y="0" on="1"/>
      </contour>
      <contour>
        <pt x="875" y="393" on="1"/>
        <pt x="875" y="441" on="0"/>
        <pt x="859" y="515" on="0"/>
        <pt x="815" y="568" on="0"/>
        <pt x="739" y="604" on="0"/>
        <pt x="619" y="626" on="0"/>
        <pt x="449" y="635" on="0"/>
        <pt x="335" y="635" on="1"/>
        <pt x="335" y="143" on="1"/>
        <pt x="448" y="143" on="0"/>
        <pt x="616" y="150" on="0"/>
        <pt x="736" y="169" on="0"/>
        <pt x="813" y="204" on="0"/>
        <pt x="858" y="260" on="0"/>
        <pt x="875" y="339" on="0"/>
      </contour>
      <contour>
        <pt x="144" y="0" on="1"/>
        <pt x="144" y="1169" on="1"/>
        <pt x="335" y="1169" on="1"/>
        <pt x="335" y="778" on="1"/>
        <pt x="545" y="778" on="0"/>
        <pt x="829" y="732" on="0"/>
        <pt x="1002" y="637" on="0"/>
        <pt x="1075" y="490" on="0"/>
        <pt x="1075" y="389" on="1"/>
        <pt x="1075" y="307" on="0"/>
        <pt x="1022" y="185" on="0"/>
        <pt x="931" y="98" on="0"/>
        <pt x="807" y="43" on="0"/>
        <pt x="664" y="12" on="0"/>
        <pt x="509" y="0" on="0"/>
        <pt x="432" y="0" on="1"/>
      </contour>
    </TTGlyph>
    <TTGlyph name="afii10094" xMin="144" yMin="0" xMax="1075" yMax="1169">
      <contour>
        <pt x="875" y="393" on="1"/>
        <pt x="875" y="441" on="0"/>
        <pt x="859" y="515" on="0"/>
        <pt x="815" y="568" on="0"/>
        <pt x="739" y="604" on="0"/>
        <pt x="619" y="626" on="0"/>
        <pt x="449" y="635" on="0"/>
        <pt x="335" y="635" on="1"/>
        <pt x="335" y="143" on="1"/>
        <pt x="448" y="143" on="0"/>
        <pt x="616" y="150" on="0"/>
        <pt x="736" y="169" on="0"/>
        <pt x="813" y="204" on="0"/>
        <pt x="858" y="260" on="0"/>
        <pt x="875" y="339" on="0"/>
      </contour>
      <contour>
        <pt x="144" y="0" on="1"/>
        <pt x="144" y="1169" on="1"/>
        <pt x="335" y="1169" on="1"/>
        <pt x="335" y="778" on="1"/>
        <pt x="545" y="778" on="0"/>
        <pt x="829" y="732" on="0"/>
        <pt x="1002" y="637" on="0"/>
        <pt x="1075" y="490" on="0"/>
        <pt x="1075" y="389" on="1"/>
        <pt x="1075" y="307" on="0"/>
        <pt x="1022" y="185" on="0"/>
        <pt x="931" y="98" on="0"/>
        <pt x="807" y="43" on="0"/>
        <pt x="664" y="12" on="0"/>
        <pt x="509" y="0" on="0"/>
        <pt x="432" y="0" on="1"/>
      </contour>
    </TTGlyph>
    <TTGlyph name="afii10095" xMin="85" yMin="-20" xMax="982" yMax="1190">
      <contour>
        <pt x="487" y="-20" on="1"/>
        <pt x="406" y="-20" on="0"/>
        <pt x="279" y="4" on="0"/>
        <pt x="182" y="39" on="0"/>
        <pt x="111" y="81" on="0"/>
        <pt x="85" y="99" on="1"/>
        <pt x="141" y="233" on="1"/>
        <pt x="165" y="211" on="0"/>
        <pt x="230" y="170" on="0"/>
        <pt x="313" y="137" on="0"/>
        <pt x="413" y="117" on="0"/>
        <pt x="471" y="117" on="1"/>
        <pt x="543" y="117" on="0"/>
        <pt x="660" y="172" on="0"/>
        <pt x="744" y="279" on="0"/>
        <pt x="791" y="437" on="0"/>
        <pt x="793" y="539" on="1"/>
        <pt x="390" y="539" on="1"/>
        <pt x="390" y="654" on="1"/>
        <pt x="791" y="654" on="1"/>
        <pt x="785" y="747" on="0"/>
        <pt x="737" y="895" on="0"/>
        <pt x="657" y="998" on="0"/>
        <pt x="546" y="1053" on="0"/>
        <pt x="476" y="1053" on="1"/>
        <pt x="436" y="1053" on="0"/>
        <pt x="347" y="1040" on="0"/>
        <pt x="259" y="1012" on="0"/>
        <pt x="175" y="968" on="0"/>
        <pt x="141" y="937" on="1"/>
        <pt x="85" y="1070" on="1"/>
        <pt x="111" y="1089" on="0"/>
        <pt x="180" y="1131" on="0"/>
        <pt x="276" y="1167" on="0"/>
        <pt x="404" y="1190" on="0"/>
        <pt x="488" y="1190" on="1"/>
        <pt x="595" y="1190" on="0"/>
        <pt x="776" y="1105" on="0"/>
        <pt x="908" y="946" on="0"/>
        <pt x="982" y="721" on="0"/>
        <pt x="982" y="580" on="1"/>
        <pt x="982" y="440" on="0"/>
        <pt x="910" y="217" on="0"/>
        <pt x="779" y="62" on="0"/>
        <pt x="597" y="-20" on="0"/>
      </contour>
    </TTGlyph>
    <TTGlyph name="afii10096" xMin="144" yMin="-20" xMax="1617" yMax="1190">
      <contour>
        <pt x="1086" y="117" on="1"/>
        <pt x="1260" y="117" on="0"/>
        <pt x="1434" y="359" on="0"/>
        <pt x="1434" y="582" on="1"/>
        <pt x="1434" y="677" on="0"/>
        <pt x="1396" y="848" on="0"/>
        <pt x="1310" y="977" on="0"/>
        <pt x="1174" y="1053" on="0"/>
        <pt x="1076" y="1053" on="1"/>
        <pt x="984" y="1053" on="0"/>
        <pt x="856" y="976" on="0"/>
        <pt x="775" y="847" on="0"/>
        <pt x="738" y="676" on="0"/>
        <pt x="738" y="582" on="1"/>
        <pt x="738" y="360" on="0"/>
        <pt x="913" y="117" on="0"/>
      </contour>
      <contour>
        <pt x="1617" y="593" on="1"/>
        <pt x="1617" y="450" on="0"/>
        <pt x="1543" y="223" on="0"/>
        <pt x="1408" y="64" on="0"/>
        <pt x="1217" y="-20" on="0"/>
        <pt x="1099" y="-20" on="1"/>
        <pt x="977" y="-20" on="0"/>
        <pt x="783" y="51" on="0"/>
        <pt x="644" y="192" on="0"/>
        <pt x="564" y="402" on="0"/>
        <pt x="557" y="541" on="1"/>
        <pt x="334" y="541" on="1"/>
        <pt x="334" y="0" on="1"/>
        <pt x="144" y="0" on="1"/>
        <pt x="144" y="1169" on="1"/>
        <pt x="334" y="1169" on="1"/>
        <pt x="334" y="656" on="1"/>
        <pt x="558" y="656" on="1"/>
        <pt x="567" y="771" on="0"/>
        <pt x="644" y="966" on="0"/>
        <pt x="776" y="1109" on="0"/>
        <pt x="959" y="1190" on="0"/>
        <pt x="1073" y="1190" on="1"/>
        <pt x="1217" y="1190" on="0"/>
        <pt x="1423" y="1095" on="0"/>
        <pt x="1555" y="931" on="0"/>
        <pt x="1617" y="714" on="0"/>
      </contour>
    </TTGlyph>
    <TTGlyph name="afii10097" xMin="85" yMin="0" xMax="1016" yMax="1169">
      <contour>
        <pt x="1016" y="1169" on="1"/>
        <pt x="1016" y="0" on="1"/>
        <pt x="824" y="0" on="1"/>
        <pt x="824" y="390" on="1"/>
        <pt x="743" y="390" on="0"/>
        <pt x="602" y="396" on="0"/>
        <pt x="541" y="403" on="1"/>
        <pt x="340" y="0" on="1"/>
        <pt x="118" y="0" on="1"/>
        <pt x="382" y="434" on="1"/>
        <pt x="314" y="453" on="0"/>
        <pt x="204" y="517" on="0"/>
        <pt x="127" y="606" on="0"/>
        <pt x="85" y="722" on="0"/>
        <pt x="85" y="794" on="1"/>
        <pt x="85" y="878" on="0"/>
        <pt x="158" y="1016" on="0"/>
        <pt x="309" y="1115" on="0"/>
        <pt x="541" y="1169" on="0"/>
        <pt x="699" y="1169" on="1"/>
      </contour>
      <contour>
        <pt x="280" y="794" on="1"/>
        <pt x="280" y="717" on="0"/>
        <pt x="329" y="615" on="0"/>
        <pt x="453" y="555" on="0"/>
        <pt x="664" y="530" on="0"/>
        <pt x="825" y="530" on="1"/>
        <pt x="825" y="1028" on="1"/>
        <pt x="700" y="1028" on="1"/>
        <pt x="601" y="1028" on="0"/>
        <pt x="445" y="1005" on="0"/>
        <pt x="337" y="951" on="0"/>
        <pt x="280" y="861" on="0"/>
      </contour>
    </TTGlyph>
    <TTGlyph name="afii10099" xMin="32" yMin="-340" xMax="1178" yMax="1616">
      <contour>
        <pt x="380" y="1381" on="1"/>
        <pt x="1049" y="1381" on="1"/>
        <pt x="1049" y="1265" on="1"/>
        <pt x="380" y="1265" on="1"/>
        <pt x="380" y="989" on="1"/>
        <pt x="437" y="1050" on="0"/>
        <pt x="533" y="1128" on="0"/>
        <pt x="624" y="1173" on="0"/>
        <pt x="717" y="1190" on="0"/>
        <pt x="772" y="1190" on="1"/>
        <pt x="878" y="1190" on="0"/>
        <pt x="1032" y="1127" on="0"/>
        <pt x="1131" y="1008" on="0"/>
        <pt x="1178" y="837" on="0"/>
        <pt x="1178" y="729" on="1"/>
        <pt x="1178" y="300" on="1"/>
        <pt x="1178" y="203" on="0"/>
        <pt x="1171" y="43" on="0"/>
        <pt x="1143" y="-87" on="0"/>
        <pt x="1088" y="-188" on="0"/>
        <pt x="993" y="-266" on="0"/>
        <pt x="851" y="-321" on="0"/>
        <pt x="751" y="-340" on="1"/>
        <pt x="704" y="-197" on="1"/>
        <pt x="769" y="-191" on="0"/>
        <pt x="861" y="-166" on="0"/>
        <pt x="923" y="-119" on="0"/>
        <pt x="960" y="-47" on="0"/>
        <pt x="979" y="59" on="0"/>
        <pt x="985" y="204" on="0"/>
        <pt x="985" y="300" on="1"/>
        <pt x="985" y="727" on="1"/>
        <pt x="985" y="796" on="0"/>
        <pt x="964" y="916" on="0"/>
        <pt x="912" y="1003" on="0"/>
        <pt x="826" y="1053" on="0"/>
        <pt x="762" y="1053" on="1"/>
        <pt x="699" y="1053" on="0"/>
        <pt x="581" y="1019" on="0"/>
        <pt x="481" y="970" on="0"/>
        <pt x="403" y="912" on="0"/>
        <pt x="380" y="888" on="1"/>
        <pt x="380" y="0" on="1"/>
        <pt x="190" y="0" on="1"/>
        <pt x="190" y="1265" on="1"/>
        <pt x="32" y="1265" on="1"/>
        <pt x="32" y="1380" on="1"/>
        <pt x="190" y="1380" on="1"/>
        <pt x="190" y="1579" on="1"/>
        <pt x="380" y="1616" on="1"/>
      </contour>
    </TTGlyph>
    <TTGlyph name="afii10100" xMin="144" yMin="0" xMax="920" yMax="1918">
      <component glyphName="afii10068" x="0" y="0" flags="0x1204"/>
      <component glyphName="acute" x="-151" y="1180" flags="0x1004"/>
    </TTGlyph>
    <TTGlyph name="afii10101" xMin="101" yMin="-20" xMax="998" yMax="1192">
      <contour>
        <pt x="652" y="119" on="1"/>
        <pt x="718" y="119" on="0"/>
        <pt x="824" y="155" on="0"/>
        <pt x="862" y="177" on="1"/>
        <pt x="907" y="203" on="0"/>
        <pt x="942" y="235" on="1"/>
        <pt x="998" y="102" on="1"/>
        <pt x="959" y="67" on="0"/>
        <pt x="904" y="41" on="1"/>
        <pt x="857" y="18" on="0"/>
        <pt x="721" y="-20" on="0"/>
        <pt x="632" y="-20" on="1"/>
        <pt x="522" y="-20" on="0"/>
        <pt x="329" y="61" on="0"/>
        <pt x="185" y="216" on="0"/>
        <pt x="101" y="439" on="0"/>
        <pt x="101" y="580" on="1"/>
        <pt x="101" y="750" on="0"/>
        <pt x="185" y="984" on="0"/>
        <pt x="329" y="1128" on="0"/>
        <pt x="522" y="1192" on="0"/>
        <pt x="632" y="1192" on="1"/>
        <pt x="721" y="1192" on="0"/>
        <pt x="857" y="1154" on="0"/>
        <pt x="904" y="1131" on="1"/>
        <pt x="959" y="1104" on="0"/>
        <pt x="998" y="1070" on="1"/>
        <pt x="942" y="937" on="1"/>
        <pt x="907" y="969" on="0"/>
        <pt x="862" y="995" on="1"/>
        <pt x="824" y="1017" on="0"/>
        <pt x="718" y="1053" on="0"/>
        <pt x="652" y="1053" on="1"/>
        <pt x="559" y="1053" on="0"/>
        <pt x="424" y="1001" on="0"/>
        <pt x="337" y="900" on="0"/>
        <pt x="294" y="751" on="0"/>
        <pt x="292" y="654" on="1"/>
        <pt x="694" y="654" on="1"/>
        <pt x="694" y="539" on="1"/>
        <pt x="290" y="539" on="1"/>
        <pt x="292" y="437" on="0"/>
        <pt x="336" y="280" on="0"/>
        <pt x="425" y="173" on="0"/>
        <pt x="560" y="119" on="0"/>
      </contour>
    </TTGlyph>
    <TTGlyph name="afii10102" xMin="94" yMin="-21" xMax="926" yMax="1190">
      <component glyphName="s" x="1" y="0" flags="0x1004"/>
    </TTGlyph>
    <TTGlyph name="afii10103" xMin="151" yMin="0" xMax="371" yMax="1577">
      <component glyphName="i" x="-6" y="0" flags="0x1004"/>
    </TTGlyph>
    <TTGlyph name="afii10104" xMin="-10" yMin="0" xMax="703" yMax="1616">
      <component glyphName="idieresis" x="110" y="0" flags="0x1004"/>
    </TTGlyph>
    <TTGlyph name="afii10105" xMin="19" yMin="-373" xMax="412" yMax="1577">
      <component glyphName="j" x="0" y="0" flags="0x1204"/>
    </TTGlyph>
    <TTGlyph name="afii10106" xMin="83" yMin="-20" xMax="2026" yMax="1169">
      <contour>
        <pt x="1287" y="1169" on="1"/>
        <pt x="1287" y="778" on="1"/>
        <pt x="1497" y="778" on="0"/>
        <pt x="1781" y="732" on="0"/>
        <pt x="1953" y="637" on="0"/>
        <pt x="2026" y="490" on="0"/>
        <pt x="2026" y="389" on="1"/>
        <pt x="2026" y="288" on="0"/>
        <pt x="1949" y="141" on="0"/>
        <pt x="1780" y="46" on="0"/>
        <pt x="1512" y="0" on="0"/>
        <pt x="1321" y="0" on="1"/>
        <pt x="1094" y="0" on="1"/>
        <pt x="1094" y="1036" on="1"/>
        <pt x="561" y="1036" on="1"/>
        <pt x="561" y="571" on="1"/>
        <pt x="561" y="423" on="0"/>
        <pt x="526" y="201" on="0"/>
        <pt x="422" y="54" on="0"/>
        <pt x="235" y="-20" on="0"/>
        <pt x="83" y="-20" on="1"/>
        <pt x="83" y="16" on="0"/>
        <pt x="84" y="87" on="0"/>
        <pt x="84" y="123" on="1"/>
        <pt x="160" y="124" on="0"/>
        <pt x="269" y="158" on="0"/>
        <pt x="338" y="233" on="0"/>
        <pt x="370" y="355" on="0"/>
        <pt x="370" y="445" on="1"/>
        <pt x="370" y="1169" on="1"/>
      </contour>
      <contour>
        <pt x="1831" y="389" on="1"/>
        <pt x="1831" y="466" on="0"/>
        <pt x="1780" y="562" on="0"/>
        <pt x="1655" y="616" on="0"/>
        <pt x="1446" y="635" on="0"/>
        <pt x="1287" y="635" on="1"/>
        <pt x="1287" y="143" on="1"/>
        <pt x="1321" y="143" on="1"/>
        <pt x="1453" y="143" on="0"/>
        <pt x="1645" y="150" on="0"/>
        <pt x="1770" y="196" on="0"/>
        <pt x="1831" y="296" on="0"/>
      </contour>
    </TTGlyph>
    <TTGlyph name="afii10107" xMin="144" yMin="0" xMax="1874" yMax="1169">
      <contour>
        <pt x="1679" y="389" on="1"/>
        <pt x="1679" y="459" on="0"/>
        <pt x="1641" y="554" on="0"/>
        <pt x="1525" y="611" on="0"/>
        <pt x="1310" y="635" on="0"/>
        <pt x="1134" y="635" on="1"/>
        <pt x="1134" y="143" on="1"/>
        <pt x="1254" y="143" on="0"/>
        <pt x="1429" y="153" on="0"/>
        <pt x="1550" y="176" on="0"/>
        <pt x="1624" y="213" on="0"/>
        <pt x="1665" y="268" on="0"/>
        <pt x="1679" y="341" on="0"/>
      </contour>
      <contour>
        <pt x="336" y="685" on="1"/>
        <pt x="943" y="685" on="1"/>
        <pt x="943" y="1169" on="1"/>
        <pt x="1134" y="1169" on="1"/>
        <pt x="1134" y="1071" on="0"/>
        <pt x="1135" y="876" on="0"/>
        <pt x="1135" y="778" on="1"/>
        <pt x="1345" y="778" on="0"/>
        <pt x="1629" y="732" on="0"/>
        <pt x="1801" y="637" on="0"/>
        <pt x="1874" y="490" on="0"/>
        <pt x="1874" y="389" on="1"/>
        <pt x="1874" y="288" on="0"/>
        <pt x="1802" y="141" on="0"/>
        <pt x="1633" y="46" on="0"/>
        <pt x="1351" y="0" on="0"/>
        <pt x="1141" y="0" on="1"/>
        <pt x="943" y="0" on="1"/>
        <pt x="943" y="570" on="1"/>
        <pt x="336" y="570" on="1"/>
        <pt x="336" y="0" on="1"/>
        <pt x="144" y="0" on="1"/>
        <pt x="144" y="1169" on="1"/>
        <pt x="336" y="1169" on="1"/>
      </contour>
    </TTGlyph>
    <TTGlyph name="afii10108" xMin="32" yMin="0" xMax="1179" yMax="1616">
      <contour>
        <pt x="382" y="1380" on="1"/>
        <pt x="1049" y="1380" on="1"/>
        <pt x="1049" y="1265" on="1"/>
        <pt x="382" y="1265" on="1"/>
        <pt x="382" y="989" on="1"/>
        <pt x="439" y="1050" on="0"/>
        <pt x="535" y="1128" on="0"/>
        <pt x="626" y="1173" on="0"/>
        <pt x="719" y="1190" on="0"/>
        <pt x="774" y="1190" on="1"/>
        <pt x="870" y="1190" on="0"/>
        <pt x="1021" y="1135" on="0"/>
        <pt x="1124" y="1022" on="0"/>
        <pt x="1179" y="847" on="0"/>
        <pt x="1179" y="727" on="1"/>
        <pt x="1179" y="0" on="1"/>
        <pt x="989" y="0" on="1"/>
        <pt x="989" y="727" on="1"/>
        <pt x="989" y="896" on="0"/>
        <pt x="876" y="1053" on="0"/>
        <pt x="758" y="1053" on="1"/>
        <pt x="693" y="1053" on="0"/>
        <pt x="574" y="1017" on="0"/>
        <pt x="475" y="966" on="0"/>
        <pt x="401" y="909" on="0"/>
        <pt x="382" y="888" on="1"/>
        <pt x="382" y="0" on="1"/>
        <pt x="192" y="0" on="1"/>
        <pt x="192" y="1265" on="1"/>
        <pt x="32" y="1265" on="1"/>
        <pt x="32" y="1380" on="1"/>
        <pt x="192" y="1380" on="1"/>
        <pt x="192" y="1579" on="1"/>
        <pt x="382" y="1616" on="1"/>
      </contour>
    </TTGlyph>
    <TTGlyph name="afii10109" xMin="144" yMin="0" xMax="1107" yMax="1957">
      <contour>
        <pt x="334" y="1169" on="1"/>
        <pt x="334" y="642" on="1"/>
        <pt x="465" y="642" on="1"/>
        <pt x="881" y="1169" on="1"/>
        <pt x="1107" y="1169" on="1"/>
        <pt x="814" y="821" on="1"/>
        <pt x="791" y="794" on="0"/>
        <pt x="730" y="715" on="0"/>
        <pt x="656" y="641" on="0"/>
        <pt x="570" y="586" on="0"/>
        <pt x="524" y="584" on="1"/>
        <pt x="547" y="579" on="0"/>
        <pt x="602" y="558" on="0"/>
        <pt x="657" y="528" on="0"/>
        <pt x="707" y="490" on="0"/>
        <pt x="725" y="468" on="1"/>
        <pt x="1101" y="0" on="1"/>
        <pt x="881" y="0" on="1"/>
        <pt x="454" y="531" on="1"/>
        <pt x="334" y="531" on="1"/>
        <pt x="334" y="0" on="1"/>
        <pt x="144" y="0" on="1"/>
        <pt x="144" y="1169" on="1"/>
      </contour>
      <contour>
        <pt x="505" y="1346" on="1"/>
        <pt x="664" y="1957" on="1"/>
        <pt x="896" y="1866" on="1"/>
        <pt x="562" y="1320" on="1"/>
      </contour>
    </TTGlyph>
    <TTGlyph name="afii10110" xMin="45" yMin="-459" xMax="1078" yMax="1551">
      <contour>
        <pt x="45" y="1169" on="1"/>
        <pt x="227" y="1169" on="1"/>
        <pt x="582" y="249" on="1"/>
        <pt x="883" y="1169" on="1"/>
        <pt x="1078" y="1169" on="1"/>
        <pt x="641" y="-37" on="1"/>
        <pt x="612" y="-116" on="0"/>
        <pt x="546" y="-265" on="0"/>
        <pt x="448" y="-381" on="0"/>
        <pt x="309" y="-455" on="0"/>
        <pt x="207" y="-459" on="1"/>
        <pt x="156" y="-334" on="1"/>
        <pt x="234" y="-321" on="0"/>
        <pt x="340" y="-274" on="0"/>
        <pt x="415" y="-192" on="0"/>
        <pt x="470" y="-67" on="0"/>
        <pt x="496" y="23" on="1"/>
      </contour>
      <contour>
        <pt x="821" y="1551" on="1"/>
        <pt x="821" y="1440" on="0"/>
        <pt x="698" y="1312" on="0"/>
        <pt x="563" y="1312" on="1"/>
        <pt x="494" y="1312" on="0"/>
        <pt x="395" y="1347" on="0"/>
        <pt x="331" y="1411" on="0"/>
        <pt x="301" y="1498" on="0"/>
        <pt x="301" y="1551" on="1"/>
        <pt x="418" y="1551" on="1"/>
        <pt x="418" y="1491" on="0"/>
        <pt x="497" y="1422" on="0"/>
        <pt x="563" y="1422" on="1"/>
        <pt x="629" y="1422" on="0"/>
        <pt x="704" y="1491" on="0"/>
        <pt x="704" y="1551" on="1"/>
      </contour>
    </TTGlyph>
    <TTGlyph name="afii10145" xMin="153" yMin="-418" xMax="1373" yMax="1579">
      <contour>
        <pt x="153" y="1579" on="1"/>
        <pt x="347" y="1579" on="1"/>
        <pt x="347" y="143" on="1"/>
        <pt x="1179" y="143" on="1"/>
        <pt x="1179" y="1579" on="1"/>
        <pt x="1373" y="1579" on="1"/>
        <pt x="1373" y="0" on="1"/>
        <pt x="863" y="0" on="1"/>
        <pt x="863" y="-418" on="1"/>
        <pt x="691" y="-418" on="1"/>
        <pt x="691" y="0" on="1"/>
        <pt x="153" y="0" on="1"/>
      </contour>
    </TTGlyph>
    <TTGlyph name="afii10193" xMin="140" yMin="-418" xMax="1186" yMax="1169">
      <contour>
        <pt x="140" y="1169" on="1"/>
        <pt x="334" y="1169" on="1"/>
        <pt x="334" y="115" on="1"/>
        <pt x="992" y="115" on="1"/>
        <pt x="992" y="1169" on="1"/>
        <pt x="1186" y="1169" on="1"/>
        <pt x="1186" y="0" on="1"/>
        <pt x="771" y="0" on="1"/>
        <pt x="771" y="-418" on="1"/>
        <pt x="599" y="-418" on="1"/>
        <pt x="599" y="0" on="1"/>
        <pt x="140" y="0" on="1"/>
      </contour>
    </TTGlyph>
    <TTGlyph name="afii61352" xMin="153" yMin="-38" xMax="2778" yMax="1579">
      <component glyphName="N" x="0" y="0" flags="0x1004"/>
      <component glyphName="o" x="1616" y="0" flags="0x1004"/>
    </TTGlyph>
    <TTGlyph name="agrave" xMin="101" yMin="-20" xMax="1066" yMax="1914">
      <component glyphName="a" x="0" y="0" flags="0x1204"/>
      <component glyphName="grave" x="198" y="1180" flags="0x1004"/>
    </TTGlyph>
    <TTGlyph name="ampersand" xMin="132" yMin="-39" xMax="1557" yMax="1445">
      <contour>
        <pt x="314" y="418" on="1"/>
        <pt x="314" y="342" on="0"/>
        <pt x="359" y="224" on="0"/>
        <pt x="454" y="143" on="0"/>
        <pt x="599" y="100" on="0"/>
        <pt x="699" y="100" on="1"/>
        <pt x="802" y="100" on="0"/>
        <pt x="949" y="119" on="0"/>
        <pt x="1053" y="158" on="0"/>
        <pt x="1123" y="217" on="0"/>
        <pt x="1148" y="256" on="1"/>
        <pt x="560" y="726" on="1"/>
        <pt x="434" y="699" on="0"/>
        <pt x="314" y="550" on="0"/>
      </contour>
      <contour>
        <pt x="699" y="-39" on="1"/>
        <pt x="132" y="-39" on="0"/>
        <pt x="132" y="396" on="1"/>
        <pt x="132" y="565" on="0"/>
        <pt x="299" y="774" on="0"/>
        <pt x="466" y="822" on="1"/>
        <pt x="434" y="843" on="0"/>
        <pt x="363" y="903" on="0"/>
        <pt x="303" y="978" on="0"/>
        <pt x="264" y="1065" on="0"/>
        <pt x="264" y="1113" on="1"/>
        <pt x="264" y="1187" on="0"/>
        <pt x="317" y="1309" on="0"/>
        <pt x="419" y="1397" on="0"/>
        <pt x="568" y="1445" on="0"/>
        <pt x="663" y="1445" on="1"/>
        <pt x="762" y="1445" on="0"/>
        <pt x="912" y="1394" on="0"/>
        <pt x="1013" y="1306" on="0"/>
        <pt x="1064" y="1185" on="0"/>
        <pt x="1064" y="1115" on="1"/>
        <pt x="1064" y="1043" on="0"/>
        <pt x="1016" y="941" on="0"/>
        <pt x="924" y="865" on="0"/>
        <pt x="790" y="808" on="0"/>
        <pt x="705" y="781" on="1"/>
        <pt x="1200" y="391" on="1"/>
        <pt x="1205" y="419" on="0"/>
        <pt x="1211" y="488" on="0"/>
        <pt x="1215" y="563" on="0"/>
        <pt x="1216" y="639" on="0"/>
        <pt x="1216" y="673" on="1"/>
        <pt x="1216" y="699" on="0"/>
        <pt x="1215" y="744" on="0"/>
        <pt x="1215" y="761" on="1"/>
        <pt x="1214" y="780" on="0"/>
        <pt x="1214" y="796" on="1"/>
        <pt x="1378" y="796" on="1"/>
        <pt x="1378" y="796" on="0"/>
        <pt x="1376" y="770" on="1"/>
        <pt x="1375" y="745" on="0"/>
        <pt x="1372" y="663" on="0"/>
        <pt x="1365" y="561" on="0"/>
        <pt x="1358" y="460" on="0"/>
        <pt x="1348" y="370" on="0"/>
        <pt x="1343" y="341" on="1"/>
        <pt x="1331" y="277" on="1"/>
        <pt x="1557" y="95" on="1"/>
        <pt x="1471" y="-7" on="1"/>
        <pt x="1260" y="170" on="1"/>
        <pt x="1203" y="60" on="0"/>
        <pt x="929" y="-39" on="0"/>
      </contour>
      <contour>
        <pt x="904" y="1119" on="1"/>
        <pt x="904" y="1165" on="0"/>
        <pt x="870" y="1236" on="0"/>
        <pt x="807" y="1285" on="0"/>
        <pt x="718" y="1310" on="0"/>
        <pt x="663" y="1310" on="1"/>
        <pt x="430" y="1310" on="0"/>
        <pt x="430" y="1117" on="1"/>
        <pt x="430" y="1052" on="0"/>
        <pt x="526" y="927" on="0"/>
        <pt x="609" y="873" on="1"/>
        <pt x="625" y="877" on="0"/>
        <pt x="681" y="895" on="0"/>
        <pt x="747" y="923" on="0"/>
        <pt x="814" y="962" on="0"/>
        <pt x="869" y="1014" on="0"/>
        <pt x="904" y="1079" on="0"/>
      </contour>
    </TTGlyph>
    <TTGlyph name="aring" xMin="101" yMin="-20" xMax="1066" yMax="1731">
      <component glyphName="a" x="0" y="0" flags="0x1204"/>
      <component glyphName="ring" x="-269" y="1180" flags="0x1004"/>
    </TTGlyph>
    <TTGlyph name="asciicircum" xMin="374" yMin="432" xMax="1054" yMax="1011">
      <contour>
        <pt x="762" y="1011" on="1"/>
        <pt x="1054" y="510" on="1"/>
        <pt x="926" y="432" on="1"/>
        <pt x="714" y="809" on="1"/>
        <pt x="502" y="432" on="1"/>
        <pt x="374" y="510" on="1"/>
        <pt x="666" y="1011" on="1"/>
      </contour>
    </TTGlyph>
    <TTGlyph name="asciicircum.001" xMin="374" yMin="432" xMax="1054" yMax="1011">
      <contour>
        <pt x="666" y="1011" on="1"/>
        <pt x="762" y="1011" on="1"/>
        <pt x="1054" y="510" on="1"/>
        <pt x="926" y="432" on="1"/>
        <pt x="714" y="809" on="1"/>
        <pt x="502" y="432" on="1"/>
        <pt x="374" y="510" on="1"/>
      </contour>
    </TTGlyph>
    <TTGlyph name="asciitilde" xMin="93" yMin="390" xMax="853" yMax="654">
      <contour>
        <pt x="656" y="390" on="1"/>
        <pt x="652" y="390" on="0"/>
        <pt x="649" y="390" on="1"/>
        <pt x="614" y="390" on="0"/>
        <pt x="580" y="399" on="1"/>
        <pt x="542" y="409" on="0"/>
        <pt x="504" y="425" on="1"/>
        <pt x="463" y="442" on="0"/>
        <pt x="404" y="472" on="0"/>
        <pt x="360" y="495" on="0"/>
        <pt x="328" y="509" on="0"/>
        <pt x="315" y="509" on="1"/>
        <pt x="279" y="509" on="0"/>
        <pt x="249" y="460" on="0"/>
        <pt x="249" y="394" on="1"/>
        <pt x="93" y="394" on="1"/>
        <pt x="93" y="468" on="0"/>
        <pt x="124" y="568" on="0"/>
        <pt x="179" y="628" on="0"/>
        <pt x="255" y="654" on="0"/>
        <pt x="300" y="654" on="1"/>
        <pt x="341" y="654" on="0"/>
        <pt x="429" y="615" on="0"/>
        <pt x="517" y="568" on="0"/>
        <pt x="602" y="529" on="0"/>
        <pt x="640" y="529" on="1"/>
        <pt x="661" y="529" on="0"/>
        <pt x="684" y="552" on="0"/>
        <pt x="695" y="586" on="0"/>
        <pt x="697" y="625" on="0"/>
        <pt x="697" y="640" on="1"/>
        <pt x="853" y="640" on="1"/>
        <pt x="853" y="585" on="0"/>
        <pt x="828" y="493" on="0"/>
        <pt x="778" y="427" on="0"/>
        <pt x="704" y="390" on="0"/>
      </contour>
    </TTGlyph>
    <TTGlyph name="asterisk" xMin="25" yMin="815" xMax="815" yMax="1567">
      <contour>
        <pt x="559" y="1567" on="1"/>
        <pt x="662" y="1509" on="1"/>
        <pt x="504" y="1237" on="1"/>
        <pt x="815" y="1237" on="1"/>
        <pt x="815" y="1145" on="1"/>
        <pt x="506" y="1145" on="1"/>
        <pt x="676" y="872" on="1"/>
        <pt x="574" y="815" on="1"/>
        <pt x="420" y="1090" on="1"/>
        <pt x="266" y="815" on="1"/>
        <pt x="164" y="872" on="1"/>
        <pt x="334" y="1145" on="1"/>
        <pt x="25" y="1145" on="1"/>
        <pt x="25" y="1237" on="1"/>
        <pt x="336" y="1237" on="1"/>
        <pt x="178" y="1509" on="1"/>
        <pt x="281" y="1567" on="1"/>
        <pt x="420" y="1292" on="1"/>
      </contour>
    </TTGlyph>
    <TTGlyph name="at" xMin="138" yMin="-155" xMax="1799" yMax="1456">
      <contour>
        <pt x="973" y="-155" on="1"/>
        <pt x="753" y="-155" on="0"/>
        <pt x="437" y="-37" on="0"/>
        <pt x="234" y="164" on="0"/>
        <pt x="138" y="430" on="0"/>
        <pt x="138" y="578" on="1"/>
        <pt x="138" y="720" on="0"/>
        <pt x="205" y="960" on="0"/>
        <pt x="323" y="1155" on="0"/>
        <pt x="485" y="1304" on="0"/>
        <pt x="674" y="1405" on="0"/>
        <pt x="883" y="1456" on="0"/>
        <pt x="990" y="1456" on="1"/>
        <pt x="1098" y="1456" on="0"/>
        <pt x="1303" y="1419" on="0"/>
        <pt x="1483" y="1342" on="0"/>
        <pt x="1632" y="1227" on="0"/>
        <pt x="1739" y="1072" on="0"/>
        <pt x="1799" y="875" on="0"/>
        <pt x="1799" y="756" on="1"/>
        <pt x="1799" y="649" on="0"/>
        <pt x="1757" y="483" on="0"/>
        <pt x="1686" y="359" on="0"/>
        <pt x="1595" y="274" on="0"/>
        <pt x="1497" y="222" on="0"/>
        <pt x="1399" y="199" on="0"/>
        <pt x="1358" y="199" on="1"/>
        <pt x="1323" y="199" on="0"/>
        <pt x="1284" y="218" on="0"/>
        <pt x="1263" y="250" on="0"/>
        <pt x="1258" y="292" on="0"/>
        <pt x="1258" y="316" on="1"/>
        <pt x="1258" y="548" on="1"/>
        <pt x="1246" y="489" on="0"/>
        <pt x="1185" y="366" on="0"/>
        <pt x="1083" y="264" on="0"/>
        <pt x="938" y="199" on="0"/>
        <pt x="842" y="199" on="1"/>
        <pt x="756" y="199" on="0"/>
        <pt x="620" y="254" on="0"/>
        <pt x="527" y="356" on="0"/>
        <pt x="478" y="500" on="0"/>
        <pt x="478" y="590" on="1"/>
        <pt x="478" y="655" on="0"/>
        <pt x="517" y="785" on="0"/>
        <pt x="588" y="905" on="0"/>
        <pt x="690" y="1008" on="0"/>
        <pt x="816" y="1084" on="0"/>
        <pt x="963" y="1128" on="0"/>
        <pt x="1045" y="1128" on="1"/>
        <pt x="1061" y="1128" on="0"/>
        <pt x="1119" y="1123" on="0"/>
        <pt x="1185" y="1116" on="0"/>
        <pt x="1252" y="1108" on="0"/>
        <pt x="1276" y="1104" on="1"/>
        <pt x="1305" y="1099" on="0"/>
        <pt x="1339" y="1077" on="0"/>
        <pt x="1360" y="1046" on="0"/>
        <pt x="1374" y="1008" on="0"/>
        <pt x="1385" y="987" on="1"/>
        <pt x="1385" y="317" on="1"/>
        <pt x="1446" y="317" on="0"/>
        <pt x="1541" y="366" on="0"/>
        <pt x="1605" y="473" on="0"/>
        <pt x="1639" y="640" on="0"/>
        <pt x="1639" y="758" on="1"/>
        <pt x="1639" y="869" on="0"/>
        <pt x="1587" y="1038" on="0"/>
        <pt x="1495" y="1162" on="0"/>
        <pt x="1371" y="1245" on="0"/>
        <pt x="1228" y="1296" on="0"/>
        <pt x="1073" y="1317" on="0"/>
        <pt x="996" y="1317" on="1"/>
        <pt x="845" y="1317" on="0"/>
        <pt x="589" y="1217" on="0"/>
        <pt x="402" y="1027" on="0"/>
        <pt x="297" y="752" on="0"/>
        <pt x="297" y="578" on="1"/>
        <pt x="297" y="440" on="0"/>
        <pt x="385" y="219" on="0"/>
        <pt x="558" y="66" on="0"/>
        <pt x="814" y="-16" on="0"/>
        <pt x="983" y="-16" on="1"/>
        <pt x="1072" y="-16" on="0"/>
        <pt x="1214" y="7" on="0"/>
        <pt x="1323" y="41" on="0"/>
        <pt x="1401" y="81" on="0"/>
        <pt x="1450" y="114" on="0"/>
        <pt x="1471" y="135" on="0"/>
        <pt x="1470" y="134" on="1"/>
        <pt x="1561" y="42" on="1"/>
        <pt x="1520" y="-3" on="0"/>
        <pt x="1400" y="-76" on="0"/>
        <pt x="1249" y="-127" on="0"/>
        <pt x="1071" y="-155" on="0"/>
      </contour>
      <contour>
        <pt x="1061" y="1008" on="1"/>
        <pt x="977" y="1008" on="0"/>
        <pt x="822" y="945" on="0"/>
        <pt x="703" y="831" on="0"/>
        <pt x="633" y="670" on="0"/>
        <pt x="633" y="573" on="1"/>
        <pt x="633" y="330" on="0"/>
        <pt x="858" y="330" on="1"/>
        <pt x="944" y="330" on="0"/>
        <pt x="1084" y="405" on="0"/>
        <pt x="1183" y="565" on="0"/>
        <pt x="1237" y="813" on="0"/>
        <pt x="1237" y="987" on="1"/>
        <pt x="1238" y="987" on="0"/>
        <pt x="1204" y="994" on="0"/>
        <pt x="1152" y="1001" on="0"/>
        <pt x="1089" y="1008" on="0"/>
      </contour>
    </TTGlyph>
    <TTGlyph name="atilde" xMin="101" yMin="-20" xMax="1066" yMax="1551">
      <component glyphName="a" x="0" y="0" flags="0x1204"/>
      <component glyphName="tilde" x="-267" y="1180" flags="0x1004"/>
    </TTGlyph>
    <TTGlyph name="b" xMin="144" yMin="-20" xMax="1153" yMax="1614">
      <contour>
        <pt x="689" y="117" on="1"/>
        <pt x="830" y="117" on="0"/>
        <pt x="977" y="359" on="0"/>
        <pt x="977" y="613" on="1"/>
        <pt x="977" y="728" on="0"/>
        <pt x="938" y="894" on="0"/>
        <pt x="863" y="1002" on="0"/>
        <pt x="756" y="1053" on="0"/>
        <pt x="689" y="1053" on="1"/>
        <pt x="601" y="1053" on="0"/>
        <pt x="424" y="977" on="0"/>
        <pt x="334" y="902" on="1"/>
        <pt x="334" y="273" on="1"/>
        <pt x="502" y="117" on="0"/>
      </contour>
      <contour>
        <pt x="678" y="-20" on="1"/>
        <pt x="628" y="-20" on="0"/>
        <pt x="529" y="8" on="0"/>
        <pt x="435" y="60" on="0"/>
        <pt x="349" y="133" on="0"/>
        <pt x="312" y="178" on="1"/>
        <pt x="284" y="0" on="1"/>
        <pt x="144" y="0" on="1"/>
        <pt x="144" y="1579" on="1"/>
        <pt x="334" y="1614" on="1"/>
        <pt x="334" y="1030" on="1"/>
        <pt x="373" y="1070" on="0"/>
        <pt x="463" y="1130" on="0"/>
        <pt x="552" y="1170" on="0"/>
        <pt x="633" y="1190" on="0"/>
        <pt x="663" y="1190" on="1"/>
        <pt x="901" y="1190" on="0"/>
        <pt x="1153" y="906" on="0"/>
        <pt x="1153" y="613" on="1"/>
        <pt x="1153" y="426" on="0"/>
        <pt x="1075" y="182" on="0"/>
        <pt x="944" y="38" on="0"/>
        <pt x="772" y="-20" on="0"/>
      </contour>
    </TTGlyph>
    <TTGlyph name="backslash" xMin="117" yMin="-172" xMax="898" yMax="1731">
      <contour>
        <pt x="898" y="-114" on="1"/>
        <pt x="738" y="-172" on="1"/>
        <pt x="117" y="1679" on="1"/>
        <pt x="275" y="1731" on="1"/>
      </contour>
    </TTGlyph>
    <TTGlyph name="bar" xMin="224" yMin="-111" xMax="402" yMax="1696">
      <contour>
        <pt x="224" y="1696" on="1"/>
        <pt x="402" y="1696" on="1"/>
        <pt x="402" y="-111" on="1"/>
        <pt x="224" y="-111" on="1"/>
      </contour>
    </TTGlyph>
    <TTGlyph name="braceleft" xMin="95" yMin="-209" xMax="742" yMax="1539">
      <contour>
        <pt x="504" y="1096" on="1"/>
        <pt x="502" y="997" on="0"/>
        <pt x="477" y="851" on="0"/>
        <pt x="420" y="748" on="0"/>
        <pt x="329" y="683" on="0"/>
        <pt x="262" y="665" on="1"/>
        <pt x="328" y="647" on="0"/>
        <pt x="419" y="583" on="0"/>
        <pt x="476" y="480" on="0"/>
        <pt x="502" y="334" on="0"/>
        <pt x="504" y="234" on="1"/>
        <pt x="505" y="138" on="0"/>
        <pt x="544" y="28" on="0"/>
        <pt x="608" y="-26" on="0"/>
        <pt x="694" y="-40" on="0"/>
        <pt x="742" y="-40" on="1"/>
        <pt x="742" y="-209" on="1"/>
        <pt x="529" y="-209" on="0"/>
        <pt x="333" y="26" on="0"/>
        <pt x="333" y="263" on="1"/>
        <pt x="333" y="346" on="0"/>
        <pt x="298" y="463" on="0"/>
        <pt x="235" y="537" on="0"/>
        <pt x="147" y="571" on="0"/>
        <pt x="95" y="571" on="1"/>
        <pt x="95" y="759" on="1"/>
        <pt x="149" y="759" on="0"/>
        <pt x="237" y="793" on="0"/>
        <pt x="299" y="867" on="0"/>
        <pt x="333" y="984" on="0"/>
        <pt x="333" y="1067" on="1"/>
        <pt x="333" y="1304" on="0"/>
        <pt x="529" y="1539" on="0"/>
        <pt x="742" y="1539" on="1"/>
        <pt x="742" y="1370" on="1"/>
        <pt x="694" y="1370" on="0"/>
        <pt x="608" y="1356" on="0"/>
        <pt x="544" y="1302" on="0"/>
        <pt x="505" y="1192" on="0"/>
      </contour>
    </TTGlyph>
    <TTGlyph name="braceright" xMin="125" yMin="-209" xMax="772" yMax="1539">
      <contour>
        <pt x="363" y="1096" on="1"/>
        <pt x="361" y="1192" on="0"/>
        <pt x="323" y="1302" on="0"/>
        <pt x="259" y="1356" on="0"/>
        <pt x="173" y="1370" on="0"/>
        <pt x="125" y="1370" on="1"/>
        <pt x="125" y="1539" on="1"/>
        <pt x="338" y="1539" on="0"/>
        <pt x="534" y="1304" on="0"/>
        <pt x="534" y="1067" on="1"/>
        <pt x="534" y="984" on="0"/>
        <pt x="568" y="867" on="0"/>
        <pt x="630" y="793" on="0"/>
        <pt x="718" y="759" on="0"/>
        <pt x="772" y="759" on="1"/>
        <pt x="772" y="571" on="1"/>
        <pt x="719" y="571" on="0"/>
        <pt x="632" y="537" on="0"/>
        <pt x="569" y="463" on="0"/>
        <pt x="534" y="346" on="0"/>
        <pt x="534" y="263" on="1"/>
        <pt x="534" y="26" on="0"/>
        <pt x="338" y="-209" on="0"/>
        <pt x="125" y="-209" on="1"/>
        <pt x="125" y="-40" on="1"/>
        <pt x="173" y="-40" on="0"/>
        <pt x="259" y="-26" on="0"/>
        <pt x="323" y="28" on="0"/>
        <pt x="361" y="138" on="0"/>
        <pt x="363" y="234" on="1"/>
        <pt x="364" y="334" on="0"/>
        <pt x="391" y="480" on="0"/>
        <pt x="448" y="583" on="0"/>
        <pt x="539" y="647" on="0"/>
        <pt x="605" y="665" on="1"/>
        <pt x="538" y="683" on="0"/>
        <pt x="447" y="748" on="0"/>
        <pt x="390" y="851" on="0"/>
        <pt x="364" y="997" on="0"/>
      </contour>
    </TTGlyph>
    <TTGlyph name="bracketleft" xMin="269" yMin="0" xMax="933" yMax="1579">
      <contour>
        <pt x="933" y="1579" on="1"/>
        <pt x="933" y="1436" on="1"/>
        <pt x="462" y="1436" on="1"/>
        <pt x="462" y="143" on="1"/>
        <pt x="933" y="143" on="1"/>
        <pt x="933" y="0" on="1"/>
        <pt x="269" y="0" on="1"/>
        <pt x="269" y="1579" on="1"/>
      </contour>
    </TTGlyph>
    <TTGlyph name="bracketright" xMin="161" yMin="0" xMax="825" yMax="1579">
      <contour>
        <pt x="825" y="1579" on="1"/>
        <pt x="825" y="0" on="1"/>
        <pt x="161" y="0" on="1"/>
        <pt x="161" y="143" on="1"/>
        <pt x="632" y="143" on="1"/>
        <pt x="632" y="1436" on="1"/>
        <pt x="161" y="1436" on="1"/>
        <pt x="161" y="1579" on="1"/>
      </contour>
    </TTGlyph>
    <TTGlyph name="breve" xMin="123" yMin="69" xMax="643" yMax="308">
      <contour>
        <pt x="643" y="308" on="1"/>
        <pt x="643" y="197" on="0"/>
        <pt x="520" y="69" on="0"/>
        <pt x="385" y="69" on="1"/>
        <pt x="316" y="69" on="0"/>
        <pt x="217" y="104" on="0"/>
        <pt x="153" y="168" on="0"/>
        <pt x="123" y="255" on="0"/>
        <pt x="123" y="308" on="1"/>
        <pt x="240" y="308" on="1"/>
        <pt x="240" y="248" on="0"/>
        <pt x="319" y="179" on="0"/>
        <pt x="385" y="179" on="1"/>
        <pt x="451" y="179" on="0"/>
        <pt x="526" y="248" on="0"/>
        <pt x="526" y="308" on="1"/>
      </contour>
    </TTGlyph>
    <TTGlyph name="brokenbar" xMin="249" yMin="0" xMax="437" yMax="1579">
      <contour>
        <pt x="249" y="1579" on="1"/>
        <pt x="437" y="1579" on="1"/>
        <pt x="437" y="889" on="1"/>
        <pt x="249" y="889" on="1"/>
      </contour>
      <contour>
        <pt x="249" y="690" on="1"/>
        <pt x="437" y="690" on="1"/>
        <pt x="437" y="0" on="1"/>
        <pt x="249" y="0" on="1"/>
      </contour>
    </TTGlyph>
    <TTGlyph name="bullet" xMin="301" yMin="358" xMax="997" yMax="1028">
      <contour>
        <pt x="649" y="358" on="1"/>
        <pt x="575" y="358" on="0"/>
        <pt x="448" y="410" on="0"/>
        <pt x="355" y="500" on="0"/>
        <pt x="301" y="622" on="0"/>
        <pt x="301" y="692" on="1"/>
        <pt x="301" y="762" on="0"/>
        <pt x="355" y="885" on="0"/>
        <pt x="448" y="976" on="0"/>
        <pt x="575" y="1028" on="0"/>
        <pt x="649" y="1028" on="1"/>
        <pt x="722" y="1028" on="0"/>
        <pt x="850" y="976" on="0"/>
        <pt x="943" y="885" on="0"/>
        <pt x="997" y="762" on="0"/>
        <pt x="997" y="692" on="1"/>
        <pt x="997" y="622" on="0"/>
        <pt x="943" y="500" on="0"/>
        <pt x="850" y="410" on="0"/>
        <pt x="722" y="358" on="0"/>
      </contour>
    </TTGlyph>
    <TTGlyph name="c" xMin="101" yMin="-20" xMax="1000" yMax="1190">
      <contour>
        <pt x="609" y="-20" on="1"/>
        <pt x="495" y="-20" on="0"/>
        <pt x="308" y="59" on="0"/>
        <pt x="175" y="212" on="0"/>
        <pt x="101" y="435" on="0"/>
        <pt x="101" y="580" on="1"/>
        <pt x="101" y="704" on="0"/>
        <pt x="168" y="925" on="0"/>
        <pt x="298" y="1092" on="0"/>
        <pt x="489" y="1190" on="0"/>
        <pt x="612" y="1190" on="1"/>
        <pt x="723" y="1190" on="0"/>
        <pt x="919" y="1125" on="0"/>
        <pt x="1000" y="1068" on="1"/>
        <pt x="943" y="935" on="1"/>
        <pt x="918" y="960" on="0"/>
        <pt x="846" y="1003" on="0"/>
        <pt x="764" y="1035" on="0"/>
        <pt x="677" y="1053" on="0"/>
        <pt x="638" y="1053" on="1"/>
        <pt x="526" y="1043" on="0"/>
        <pt x="389" y="966" on="0"/>
        <pt x="315" y="840" on="0"/>
        <pt x="291" y="672" on="0"/>
        <pt x="291" y="572" on="1"/>
        <pt x="291" y="459" on="0"/>
        <pt x="336" y="288" on="0"/>
        <pt x="419" y="174" on="0"/>
        <pt x="536" y="117" on="0"/>
        <pt x="609" y="117" on="1"/>
        <pt x="669" y="117" on="0"/>
        <pt x="762" y="134" on="0"/>
        <pt x="840" y="167" on="0"/>
        <pt x="908" y="215" on="0"/>
        <pt x="943" y="245" on="1"/>
        <pt x="1000" y="111" on="1"/>
        <pt x="965" y="87" on="0"/>
        <pt x="884" y="40" on="0"/>
        <pt x="787" y="3" on="0"/>
        <pt x="674" y="-20" on="0"/>
      </contour>
    </TTGlyph>
    <TTGlyph name="cacute" xMin="101" yMin="-20" xMax="1000" yMax="1918">
      <component glyphName="c" x="0" y="0" flags="0x1204"/>
      <component glyphName="acute" x="1" y="1180" flags="0x1004"/>
    </TTGlyph>
    <TTGlyph name="caron" xMin="374" yMin="61" xMax="1054" yMax="640">
      <contour>
        <pt x="666" y="61" on="1"/>
        <pt x="374" y="562" on="1"/>
        <pt x="502" y="640" on="1"/>
        <pt x="714" y="263" on="1"/>
        <pt x="926" y="640" on="1"/>
        <pt x="1054" y="562" on="1"/>
        <pt x="762" y="61" on="1"/>
      </contour>
    </TTGlyph>
    <TTGlyph name="ccaron" xMin="101" yMin="-20" xMax="1000" yMax="1820">
      <component glyphName="c" x="0" y="0" flags="0x1204"/>
      <component glyphName="caron" x="-163" y="1180" flags="0x1004"/>
    </TTGlyph>
    <TTGlyph name="ccedilla" xMin="101" yMin="-578" xMax="1000" yMax="1190">
      <component glyphName="c" x="0" y="0" flags="0x1004"/>
      <component glyphName="cedilla" x="365" y="0" flags="0x1004"/>
    </TTGlyph>
    <TTGlyph name="cedilla" xMin="196" yMin="-578" xMax="632" yMax="20">
      <contour>
        <pt x="196" y="-423" on="1"/>
        <pt x="196" y="-423" on="0"/>
        <pt x="218" y="-430" on="1"/>
        <pt x="239" y="-436" on="0"/>
        <pt x="294" y="-451" on="0"/>
        <pt x="348" y="-464" on="0"/>
        <pt x="360" y="-464" on="1"/>
        <pt x="394" y="-464" on="0"/>
        <pt x="446" y="-455" on="0"/>
        <pt x="481" y="-426" on="0"/>
        <pt x="499" y="-372" on="0"/>
        <pt x="499" y="-328" on="1"/>
        <pt x="499" y="-289" on="0"/>
        <pt x="470" y="-234" on="0"/>
        <pt x="409" y="-201" on="0"/>
        <pt x="313" y="-186" on="0"/>
        <pt x="246" y="-186" on="1"/>
        <pt x="246" y="20" on="1"/>
        <pt x="367" y="20" on="1"/>
        <pt x="367" y="-98" on="1"/>
        <pt x="427" y="-98" on="0"/>
        <pt x="525" y="-124" on="0"/>
        <pt x="594" y="-180" on="0"/>
        <pt x="632" y="-266" on="0"/>
        <pt x="632" y="-327" on="1"/>
        <pt x="632" y="-447" on="0"/>
        <pt x="511" y="-578" on="0"/>
        <pt x="380" y="-578" on="1"/>
        <pt x="332" y="-578" on="0"/>
        <pt x="235" y="-554" on="0"/>
        <pt x="196" y="-540" on="1"/>
      </contour>
    </TTGlyph>
    <TTGlyph name="cent" xMin="142" yMin="-159" xMax="1041" yMax="1329">
      <contour>
        <pt x="332" y="580" on="1"/>
        <pt x="332" y="480" on="0"/>
        <pt x="367" y="320" on="0"/>
        <pt x="437" y="204" on="0"/>
        <pt x="544" y="136" on="0"/>
        <pt x="616" y="129" on="1"/>
        <pt x="616" y="1037" on="1"/>
        <pt x="542" y="1027" on="0"/>
        <pt x="435" y="954" on="0"/>
        <pt x="366" y="835" on="0"/>
        <pt x="332" y="676" on="0"/>
      </contour>
      <contour>
        <pt x="616" y="-22" on="1"/>
        <pt x="502" y="-14" on="0"/>
        <pt x="326" y="77" on="0"/>
        <pt x="205" y="232" on="0"/>
        <pt x="142" y="448" on="0"/>
        <pt x="142" y="580" on="1"/>
        <pt x="142" y="713" on="0"/>
        <pt x="205" y="929" on="0"/>
        <pt x="327" y="1086" on="0"/>
        <pt x="503" y="1179" on="0"/>
        <pt x="616" y="1189" on="1"/>
        <pt x="616" y="1329" on="1"/>
        <pt x="719" y="1329" on="1"/>
        <pt x="719" y="1186" on="1"/>
        <pt x="757" y="1186" on="0"/>
        <pt x="844" y="1168" on="0"/>
        <pt x="929" y="1137" on="0"/>
        <pt x="1009" y="1098" on="0"/>
        <pt x="1041" y="1077" on="1"/>
        <pt x="984" y="944" on="1"/>
        <pt x="923" y="987" on="0"/>
        <pt x="791" y="1036" on="0"/>
        <pt x="719" y="1038" on="1"/>
        <pt x="719" y="130" on="1"/>
        <pt x="791" y="132" on="0"/>
        <pt x="921" y="170" on="0"/>
        <pt x="984" y="205" on="1"/>
        <pt x="1030" y="68" on="1"/>
        <pt x="1003" y="53" on="0"/>
        <pt x="929" y="23" on="0"/>
        <pt x="845" y="-3" on="0"/>
        <pt x="758" y="-19" on="0"/>
        <pt x="719" y="-19" on="1"/>
        <pt x="719" y="-159" on="1"/>
        <pt x="616" y="-159" on="1"/>
      </contour>
    </TTGlyph>
    <TTGlyph name="cgrave" xMin="101" yMin="-20" xMax="1000" yMax="1914">
      <component glyphName="c" x="0" y="0" flags="0x1204"/>
      <component glyphName="grave" x="165" y="1180" flags="0x1004"/>
    </TTGlyph>
    <TTGlyph name="circumflex" xMin="374" yMin="84" xMax="1054" yMax="663">
      <contour>
        <pt x="762" y="663" on="1"/>
        <pt x="1054" y="162" on="1"/>
        <pt x="926" y="84" on="1"/>
        <pt x="714" y="461" on="1"/>
        <pt x="502" y="84" on="1"/>
        <pt x="374" y="162" on="1"/>
        <pt x="666" y="663" on="1"/>
      </contour>
    </TTGlyph>
    <TTGlyph name="colon" xMin="180" yMin="0" xMax="450" yMax="864">
      <contour>
        <pt x="180" y="281" on="1"/>
        <pt x="450" y="281" on="1"/>
        <pt x="450" y="0" on="1"/>
        <pt x="180" y="0" on="1"/>
      </contour>
      <contour>
        <pt x="180" y="864" on="1"/>
        <pt x="450" y="864" on="1"/>
        <pt x="450" y="583" on="1"/>
        <pt x="180" y="583" on="1"/>
      </contour>
    </TTGlyph>
    <TTGlyph name="comma" xMin="134" yMin="-253" xMax="395" yMax="293">
      <contour>
        <pt x="134" y="293" on="1"/>
        <pt x="395" y="293" on="1"/>
        <pt x="395" y="44" on="1"/>
        <pt x="395" y="-71" on="0"/>
        <pt x="278" y="-221" on="0"/>
        <pt x="166" y="-253" on="1"/>
        <pt x="135" y="-159" on="1"/>
        <pt x="173" y="-146" on="0"/>
        <pt x="223" y="-117" on="0"/>
        <pt x="253" y="-80" on="0"/>
        <pt x="265" y="-32" on="0"/>
        <pt x="265" y="0" on="1"/>
        <pt x="134" y="0" on="1"/>
      </contour>
    </TTGlyph>
    <TTGlyph name="copyright" xMin="164" yMin="-23" xMax="1914" yMax="1687">
      <contour>
        <pt x="1039" y="101" on="1"/>
        <pt x="1202" y="101" on="0"/>
        <pt x="1470" y="215" on="0"/>
        <pt x="1661" y="412" on="0"/>
        <pt x="1766" y="677" on="0"/>
        <pt x="1766" y="829" on="1"/>
        <pt x="1766" y="942" on="0"/>
        <pt x="1706" y="1139" on="0"/>
        <pt x="1603" y="1302" on="0"/>
        <pt x="1462" y="1429" on="0"/>
        <pt x="1301" y="1516" on="0"/>
        <pt x="1126" y="1562" on="0"/>
        <pt x="1039" y="1562" on="1"/>
        <pt x="951" y="1562" on="0"/>
        <pt x="775" y="1516" on="0"/>
        <pt x="613" y="1428" on="0"/>
        <pt x="474" y="1301" on="0"/>
        <pt x="371" y="1138" on="0"/>
        <pt x="312" y="942" on="0"/>
        <pt x="312" y="829" on="1"/>
        <pt x="312" y="677" on="0"/>
        <pt x="417" y="412" on="0"/>
        <pt x="608" y="215" on="0"/>
        <pt x="876" y="101" on="0"/>
      </contour>
      <contour>
        <pt x="716" y="831" on="1"/>
        <pt x="716" y="724" on="0"/>
        <pt x="759" y="582" on="0"/>
        <pt x="845" y="498" on="0"/>
        <pt x="975" y="464" on="0"/>
        <pt x="1062" y="464" on="1"/>
        <pt x="1205" y="464" on="0"/>
        <pt x="1356" y="540" on="1"/>
        <pt x="1356" y="414" on="1"/>
        <pt x="1203" y="336" on="0"/>
        <pt x="1076" y="336" on="1"/>
        <pt x="920" y="336" on="0"/>
        <pt x="717" y="420" on="0"/>
        <pt x="600" y="558" on="0"/>
        <pt x="554" y="736" on="0"/>
        <pt x="554" y="831" on="1"/>
        <pt x="554" y="894" on="0"/>
        <pt x="573" y="1016" on="0"/>
        <pt x="620" y="1126" on="0"/>
        <pt x="697" y="1220" on="0"/>
        <pt x="813" y="1288" on="0"/>
        <pt x="971" y="1326" on="0"/>
        <pt x="1076" y="1326" on="1"/>
        <pt x="1203" y="1326" on="0"/>
        <pt x="1356" y="1248" on="1"/>
        <pt x="1356" y="1122" on="1"/>
        <pt x="1205" y="1198" on="0"/>
        <pt x="1062" y="1198" on="1"/>
        <pt x="975" y="1198" on="0"/>
        <pt x="845" y="1164" on="0"/>
        <pt x="759" y="1080" on="0"/>
        <pt x="716" y="938" on="0"/>
      </contour>
      <contour>
        <pt x="1039" y="-23" on="1"/>
        <pt x="928" y="-23" on="0"/>
        <pt x="712" y="31" on="0"/>
        <pt x="517" y="133" on="0"/>
        <pt x="352" y="282" on="0"/>
        <pt x="232" y="472" on="0"/>
        <pt x="164" y="699" on="0"/>
        <pt x="164" y="830" on="1"/>
        <pt x="164" y="961" on="0"/>
        <pt x="234" y="1189" on="0"/>
        <pt x="358" y="1379" on="0"/>
        <pt x="526" y="1529" on="0"/>
        <pt x="720" y="1633" on="0"/>
        <pt x="932" y="1687" on="0"/>
        <pt x="1039" y="1687" on="1"/>
        <pt x="1146" y="1687" on="0"/>
        <pt x="1359" y="1632" on="0"/>
        <pt x="1554" y="1528" on="0"/>
        <pt x="1721" y="1378" on="0"/>
        <pt x="1844" y="1188" on="0"/>
        <pt x="1914" y="960" on="0"/>
        <pt x="1914" y="830" on="1"/>
        <pt x="1914" y="702" on="0"/>
        <pt x="1848" y="476" on="0"/>
        <pt x="1729" y="287" on="0"/>
        <pt x="1565" y="136" on="0"/>
        <pt x="1371" y="32" on="0"/>
        <pt x="1153" y="-23" on="0"/>
      </contour>
    </TTGlyph>
    <TTGlyph name="currency" xMin="134" yMin="430" xMax="1230" yMax="1526">
      <contour>
        <pt x="321" y="742" on="1"/>
        <pt x="253" y="846" on="0"/>
        <pt x="253" y="970" on="1"/>
        <pt x="253" y="1097" on="0"/>
        <pt x="328" y="1208" on="1"/>
        <pt x="134" y="1402" on="1"/>
        <pt x="258" y="1526" on="1"/>
        <pt x="452" y="1333" on="1"/>
        <pt x="564" y="1409" on="0"/>
        <pt x="691" y="1409" on="1"/>
        <pt x="816" y="1409" on="0"/>
        <pt x="920" y="1341" on="1"/>
        <pt x="1106" y="1526" on="1"/>
        <pt x="1230" y="1402" on="1"/>
        <pt x="1043" y="1215" on="1"/>
        <pt x="1104" y="1118" on="0"/>
        <pt x="1104" y="993" on="1"/>
        <pt x="1104" y="869" on="0"/>
        <pt x="1028" y="757" on="1"/>
        <pt x="1230" y="555" on="1"/>
        <pt x="1106" y="430" on="1"/>
        <pt x="903" y="633" on="1"/>
        <pt x="793" y="558" on="0"/>
        <pt x="669" y="558" on="1"/>
        <pt x="544" y="558" on="0"/>
        <pt x="447" y="619" on="1"/>
        <pt x="258" y="430" on="1"/>
        <pt x="134" y="555" on="1"/>
      </contour>
      <contour>
        <pt x="685" y="1266" on="1"/>
        <pt x="628" y="1266" on="0"/>
        <pt x="523" y="1218" on="0"/>
        <pt x="444" y="1137" on="0"/>
        <pt x="396" y="1032" on="0"/>
        <pt x="396" y="975" on="1"/>
        <pt x="396" y="918" on="0"/>
        <pt x="440" y="817" on="0"/>
        <pt x="516" y="742" on="0"/>
        <pt x="616" y="699" on="0"/>
        <pt x="672" y="699" on="1"/>
        <pt x="729" y="699" on="0"/>
        <pt x="833" y="747" on="0"/>
        <pt x="914" y="827" on="0"/>
        <pt x="962" y="932" on="0"/>
        <pt x="962" y="989" on="1"/>
        <pt x="962" y="1046" on="0"/>
        <pt x="918" y="1147" on="0"/>
        <pt x="843" y="1222" on="0"/>
        <pt x="742" y="1266" on="0"/>
      </contour>
    </TTGlyph>
    <TTGlyph name="d" xMin="101" yMin="-20" xMax="1118" yMax="1614">
      <contour>
        <pt x="283" y="584" on="1"/>
        <pt x="283" y="450" on="0"/>
        <pt x="328" y="271" on="0"/>
        <pt x="408" y="163" on="0"/>
        <pt x="517" y="117" on="0"/>
        <pt x="581" y="117" on="1"/>
        <pt x="624" y="117" on="0"/>
        <pt x="716" y="137" on="0"/>
        <pt x="806" y="176" on="0"/>
        <pt x="892" y="235" on="0"/>
        <pt x="928" y="275" on="1"/>
        <pt x="928" y="903" on="1"/>
        <pt x="886" y="934" on="0"/>
        <pt x="802" y="989" on="0"/>
        <pt x="715" y="1030" on="0"/>
        <pt x="624" y="1053" on="0"/>
        <pt x="575" y="1053" on="1"/>
        <pt x="490" y="1053" on="0"/>
        <pt x="378" y="980" on="0"/>
        <pt x="311" y="852" on="0"/>
        <pt x="283" y="681" on="0"/>
      </contour>
      <contour>
        <pt x="549" y="1190" on="1"/>
        <pt x="663" y="1190" on="0"/>
        <pt x="855" y="1113" on="0"/>
        <pt x="928" y="1028" on="1"/>
        <pt x="928" y="1579" on="1"/>
        <pt x="1118" y="1614" on="1"/>
        <pt x="1118" y="0" on="1"/>
        <pt x="977" y="0" on="1"/>
        <pt x="949" y="179" on="1"/>
        <pt x="916" y="137" on="0"/>
        <pt x="833" y="64" on="0"/>
        <pt x="737" y="10" on="0"/>
        <pt x="632" y="-20" on="0"/>
        <pt x="577" y="-20" on="1"/>
        <pt x="461" y="-20" on="0"/>
        <pt x="284" y="66" on="0"/>
        <pt x="163" y="228" on="0"/>
        <pt x="101" y="461" on="0"/>
        <pt x="101" y="608" on="1"/>
        <pt x="101" y="725" on="0"/>
        <pt x="164" y="936" on="0"/>
        <pt x="281" y="1096" on="0"/>
        <pt x="447" y="1190" on="0"/>
      </contour>
    </TTGlyph>
    <TTGlyph name="dagger" xMin="112" yMin="0" xMax="966" yMax="1468">
      <contour>
        <pt x="448" y="1020" on="1"/>
        <pt x="112" y="1020" on="1"/>
        <pt x="112" y="1161" on="1"/>
        <pt x="447" y="1161" on="1"/>
        <pt x="447" y="1468" on="1"/>
        <pt x="640" y="1468" on="1"/>
        <pt x="640" y="1161" on="1"/>
        <pt x="966" y="1161" on="1"/>
        <pt x="966" y="1020" on="1"/>
        <pt x="638" y="1020" on="1"/>
        <pt x="638" y="0" on="1"/>
        <pt x="448" y="0" on="1"/>
      </contour>
    </TTGlyph>
    <TTGlyph name="daggerdbl" xMin="202" yMin="0" xMax="1056" yMax="1468">
      <contour>
        <pt x="202" y="444" on="1"/>
        <pt x="537" y="444" on="1"/>
        <pt x="537" y="1020" on="1"/>
        <pt x="202" y="1020" on="1"/>
        <pt x="202" y="1161" on="1"/>
        <pt x="537" y="1161" on="1"/>
        <pt x="537" y="1468" on="1"/>
        <pt x="730" y="1468" on="1"/>
        <pt x="730" y="1161" on="1"/>
        <pt x="1056" y="1161" on="1"/>
        <pt x="1056" y="1020" on="1"/>
        <pt x="728" y="1020" on="1"/>
        <pt x="728" y="444" on="1"/>
        <pt x="1054" y="444" on="1"/>
        <pt x="1054" y="305" on="1"/>
        <pt x="728" y="305" on="1"/>
        <pt x="728" y="0" on="1"/>
        <pt x="537" y="0" on="1"/>
        <pt x="537" y="305" on="1"/>
        <pt x="202" y="305" on="1"/>
      </contour>
    </TTGlyph>
    <TTGlyph name="degree" xMin="143" yMin="660" xMax="623" yMax="1139">
      <contour>
        <pt x="143" y="899" on="1"/>
        <pt x="143" y="951" on="0"/>
        <pt x="179" y="1039" on="0"/>
        <pt x="244" y="1103" on="0"/>
        <pt x="334" y="1139" on="0"/>
        <pt x="387" y="1139" on="1"/>
        <pt x="439" y="1139" on="0"/>
        <pt x="526" y="1103" on="0"/>
        <pt x="588" y="1038" on="0"/>
        <pt x="623" y="950" on="0"/>
        <pt x="623" y="899" on="1"/>
        <pt x="623" y="848" on="0"/>
        <pt x="589" y="760" on="0"/>
        <pt x="527" y="696" on="0"/>
        <pt x="440" y="660" on="0"/>
        <pt x="387" y="660" on="1"/>
        <pt x="333" y="660" on="0"/>
        <pt x="243" y="697" on="0"/>
        <pt x="178" y="761" on="0"/>
        <pt x="143" y="848" on="0"/>
      </contour>
      <contour>
        <pt x="385" y="1048" on="1"/>
        <pt x="353" y="1048" on="0"/>
        <pt x="300" y="1024" on="0"/>
        <pt x="262" y="984" on="0"/>
        <pt x="240" y="929" on="0"/>
        <pt x="240" y="899" on="1"/>
        <pt x="240" y="868" on="0"/>
        <pt x="263" y="814" on="0"/>
        <pt x="302" y="773" on="0"/>
        <pt x="355" y="750" on="0"/>
        <pt x="385" y="750" on="1"/>
        <pt x="416" y="750" on="0"/>
        <pt x="468" y="773" on="0"/>
        <pt x="506" y="814" on="0"/>
        <pt x="526" y="868" on="0"/>
        <pt x="526" y="899" on="1"/>
        <pt x="526" y="930" on="0"/>
        <pt x="506" y="985" on="0"/>
        <pt x="468" y="1025" on="0"/>
        <pt x="416" y="1048" on="0"/>
      </contour>
    </TTGlyph>
    <TTGlyph name="dieresis" xMin="121" yMin="100" xMax="834" yMax="331">
      <contour>
        <pt x="121" y="215" on="1"/>
        <pt x="121" y="238" on="0"/>
        <pt x="137" y="280" on="0"/>
        <pt x="167" y="311" on="0"/>
        <pt x="208" y="331" on="0"/>
        <pt x="233" y="330" on="1"/>
        <pt x="258" y="330" on="0"/>
        <pt x="299" y="311" on="0"/>
        <pt x="329" y="280" on="0"/>
        <pt x="345" y="238" on="0"/>
        <pt x="345" y="215" on="1"/>
        <pt x="345" y="192" on="0"/>
        <pt x="329" y="150" on="0"/>
        <pt x="299" y="118" on="0"/>
        <pt x="258" y="100" on="0"/>
        <pt x="233" y="100" on="1"/>
        <pt x="208" y="100" on="0"/>
        <pt x="167" y="118" on="0"/>
        <pt x="137" y="150" on="0"/>
        <pt x="121" y="192" on="0"/>
      </contour>
      <contour>
        <pt x="610" y="215" on="1"/>
        <pt x="610" y="238" on="0"/>
        <pt x="626" y="280" on="0"/>
        <pt x="656" y="311" on="0"/>
        <pt x="697" y="331" on="0"/>
        <pt x="722" y="330" on="1"/>
        <pt x="747" y="330" on="0"/>
        <pt x="788" y="311" on="0"/>
        <pt x="818" y="280" on="0"/>
        <pt x="834" y="238" on="0"/>
        <pt x="834" y="215" on="1"/>
        <pt x="834" y="192" on="0"/>
        <pt x="818" y="150" on="0"/>
        <pt x="788" y="118" on="0"/>
        <pt x="747" y="100" on="0"/>
        <pt x="722" y="100" on="1"/>
        <pt x="697" y="100" on="0"/>
        <pt x="656" y="118" on="0"/>
        <pt x="626" y="150" on="0"/>
        <pt x="610" y="192" on="0"/>
      </contour>
    </TTGlyph>
    <TTGlyph name="divide" xMin="224" yMin="185" xMax="906" yMax="950">
      <contour>
        <pt x="451" y="835" on="1"/>
        <pt x="451" y="858" on="0"/>
        <pt x="467" y="900" on="0"/>
        <pt x="497" y="931" on="0"/>
        <pt x="538" y="950" on="0"/>
        <pt x="563" y="950" on="1"/>
        <pt x="611" y="950" on="0"/>
        <pt x="671" y="883" on="0"/>
        <pt x="671" y="835" on="1"/>
        <pt x="671" y="787" on="0"/>
        <pt x="611" y="720" on="0"/>
        <pt x="563" y="720" on="1"/>
        <pt x="538" y="720" on="0"/>
        <pt x="497" y="738" on="0"/>
        <pt x="467" y="770" on="0"/>
        <pt x="451" y="812" on="0"/>
      </contour>
      <contour>
        <pt x="449" y="300" on="1"/>
        <pt x="449" y="323" on="0"/>
        <pt x="465" y="365" on="0"/>
        <pt x="495" y="396" on="0"/>
        <pt x="536" y="415" on="0"/>
        <pt x="561" y="415" on="1"/>
        <pt x="609" y="415" on="0"/>
        <pt x="669" y="348" on="0"/>
        <pt x="669" y="300" on="1"/>
        <pt x="669" y="252" on="0"/>
        <pt x="609" y="185" on="0"/>
        <pt x="561" y="185" on="1"/>
        <pt x="536" y="185" on="0"/>
        <pt x="495" y="203" on="0"/>
        <pt x="465" y="235" on="0"/>
        <pt x="449" y="277" on="0"/>
      </contour>
      <contour>
        <pt x="224" y="508" on="1"/>
        <pt x="224" y="639" on="1"/>
        <pt x="906" y="639" on="1"/>
        <pt x="906" y="508" on="1"/>
      </contour>
    </TTGlyph>
    <TTGlyph name="dollar" xMin="127" yMin="-178" xMax="1029" yMax="1390">
      <contour>
        <pt x="643" y="134" on="1"/>
        <pt x="693" y="135" on="0"/>
        <pt x="775" y="165" on="0"/>
        <pt x="833" y="216" on="0"/>
        <pt x="864" y="287" on="0"/>
        <pt x="864" y="329" on="1"/>
        <pt x="864" y="367" on="0"/>
        <pt x="844" y="424" on="0"/>
        <pt x="794" y="471" on="0"/>
        <pt x="709" y="514" on="0"/>
        <pt x="643" y="539" on="1"/>
      </contour>
      <contour>
        <pt x="540" y="1099" on="1"/>
        <pt x="465" y="1099" on="0"/>
        <pt x="370" y="1071" on="0"/>
        <pt x="315" y="1024" on="0"/>
        <pt x="294" y="964" on="0"/>
        <pt x="294" y="932" on="1"/>
        <pt x="294" y="902" on="0"/>
        <pt x="313" y="853" on="0"/>
        <pt x="367" y="808" on="0"/>
        <pt x="463" y="764" on="0"/>
        <pt x="540" y="739" on="1"/>
      </contour>
      <contour>
        <pt x="540" y="1390" on="1"/>
        <pt x="643" y="1390" on="1"/>
        <pt x="643" y="1236" on="1"/>
        <pt x="701" y="1236" on="0"/>
        <pt x="818" y="1215" on="0"/>
        <pt x="866" y="1203" on="1"/>
        <pt x="921" y="1189" on="0"/>
        <pt x="974" y="1171" on="1"/>
        <pt x="935" y="1044" on="1"/>
        <pt x="889" y="1059" on="0"/>
        <pt x="840" y="1071" on="1"/>
        <pt x="798" y="1082" on="0"/>
        <pt x="694" y="1099" on="0"/>
        <pt x="643" y="1099" on="1"/>
        <pt x="643" y="709" on="1"/>
        <pt x="758" y="667" on="0"/>
        <pt x="908" y="586" on="0"/>
        <pt x="995" y="499" on="0"/>
        <pt x="1029" y="400" on="0"/>
        <pt x="1029" y="340" on="1"/>
        <pt x="1029" y="248" on="0"/>
        <pt x="967" y="118" on="0"/>
        <pt x="862" y="34" on="0"/>
        <pt x="721" y="-11" on="0"/>
        <pt x="643" y="-18" on="1"/>
        <pt x="643" y="-178" on="1"/>
        <pt x="540" y="-178" on="1"/>
        <pt x="540" y="-20" on="1"/>
        <pt x="514" y="-20" on="0"/>
        <pt x="455" y="-13" on="0"/>
        <pt x="393" y="-2" on="0"/>
        <pt x="331" y="13" on="0"/>
        <pt x="302" y="21" on="1"/>
        <pt x="234" y="39" on="0"/>
        <pt x="166" y="63" on="1"/>
        <pt x="215" y="207" on="1"/>
        <pt x="275" y="185" on="0"/>
        <pt x="334" y="168" on="1"/>
        <pt x="385" y="153" on="0"/>
        <pt x="495" y="129" on="0"/>
        <pt x="540" y="129" on="1"/>
        <pt x="540" y="568" on="1"/>
        <pt x="423" y="598" on="0"/>
        <pt x="265" y="670" on="0"/>
        <pt x="168" y="758" on="0"/>
        <pt x="127" y="864" on="0"/>
        <pt x="127" y="929" on="1"/>
        <pt x="127" y="1022" on="0"/>
        <pt x="187" y="1137" on="0"/>
        <pt x="295" y="1203" on="0"/>
        <pt x="447" y="1232" on="0"/>
        <pt x="540" y="1240" on="1"/>
      </contour>
    </TTGlyph>
    <TTGlyph name="dotlessi" xMin="177" yMin="0" xMax="359" yMax="1169">
      <contour>
        <pt x="177" y="1169" on="1"/>
        <pt x="359" y="1169" on="1"/>
        <pt x="359" y="0" on="1"/>
        <pt x="177" y="0" on="1"/>
      </contour>
    </TTGlyph>
    <TTGlyph name="dotlessigrave" xMin="-214" yMin="0" xMax="359" yMax="1903">
      <component glyphName="dotlessi" x="0" y="0" flags="0x1204"/>
      <component glyphName="grave" x="-302" y="1169" flags="0x1004"/>
    </TTGlyph>
    <TTGlyph name="e" xMin="101" yMin="-20" xMax="1059" yMax="1190">
      <contour>
        <pt x="1005" y="101" on="1"/>
        <pt x="965" y="72" on="0"/>
        <pt x="863" y="27" on="0"/>
        <pt x="758" y="-4" on="0"/>
        <pt x="660" y="-20" on="0"/>
        <pt x="625" y="-20" on="1"/>
        <pt x="493" y="-20" on="0"/>
        <pt x="296" y="68" on="0"/>
        <pt x="166" y="227" on="0"/>
        <pt x="101" y="446" on="0"/>
        <pt x="101" y="578" on="1"/>
        <pt x="101" y="697" on="0"/>
        <pt x="164" y="918" on="0"/>
        <pt x="288" y="1088" on="0"/>
        <pt x="472" y="1190" on="0"/>
        <pt x="594" y="1190" on="1"/>
        <pt x="708" y="1190" on="0"/>
        <pt x="881" y="1121" on="0"/>
        <pt x="999" y="991" on="0"/>
        <pt x="1059" y="803" on="0"/>
        <pt x="1059" y="684" on="1"/>
        <pt x="1059" y="652" on="0"/>
        <pt x="1055" y="593" on="0"/>
        <pt x="1051" y="567" on="1"/>
        <pt x="291" y="567" on="1"/>
        <pt x="291" y="442" on="0"/>
        <pt x="339" y="270" on="0"/>
        <pt x="429" y="164" on="0"/>
        <pt x="559" y="117" on="0"/>
        <pt x="641" y="117" on="1"/>
        <pt x="689" y="117" on="0"/>
        <pt x="769" y="132" on="0"/>
        <pt x="840" y="161" on="0"/>
        <pt x="907" y="205" on="0"/>
        <pt x="943" y="234" on="1"/>
      </contour>
      <contour>
        <pt x="891" y="717" on="1"/>
        <pt x="891" y="797" on="0"/>
        <pt x="851" y="922" on="0"/>
        <pt x="779" y="1008" on="0"/>
        <pt x="680" y="1053" on="0"/>
        <pt x="621" y="1053" on="1"/>
        <pt x="542" y="1053" on="0"/>
        <pt x="424" y="995" on="0"/>
        <pt x="343" y="895" on="0"/>
        <pt x="298" y="760" on="0"/>
        <pt x="291" y="682" on="1"/>
        <pt x="891" y="682" on="1"/>
      </contour>
    </TTGlyph>
    <TTGlyph name="eacute" xMin="101" yMin="-20" xMax="1059" yMax="1918">
      <component glyphName="e" x="0" y="0" flags="0x1204"/>
      <component glyphName="acute" x="31" y="1180" flags="0x1004"/>
    </TTGlyph>
    <TTGlyph name="ebreve" xMin="101" yMin="-20" xMax="1059" yMax="1488">
      <component glyphName="e" x="0" y="0" flags="0x1204"/>
      <component glyphName="breve" x="197" y="1180" flags="0x1004"/>
    </TTGlyph>
    <TTGlyph name="ecaron" xMin="101" yMin="-20" xMax="1059" yMax="1820">
      <component glyphName="e" x="0" y="0" flags="0x1204"/>
      <component glyphName="caron" x="-133" y="1180" flags="0x1004"/>
    </TTGlyph>
    <TTGlyph name="ecircumflex" xMin="101" yMin="-20" xMax="1059" yMax="1843">
      <component glyphName="e" x="0" y="0" flags="0x1204"/>
      <component glyphName="circumflex" x="-133" y="1180" flags="0x1004"/>
    </TTGlyph>
    <TTGlyph name="edieresis" xMin="101" yMin="-20" xMax="1059" yMax="1511">
      <component glyphName="e" x="0" y="0" flags="0x1204"/>
      <component glyphName="dieresis" x="103" y="1180" flags="0x1004"/>
    </TTGlyph>
    <TTGlyph name="egrave" xMin="101" yMin="-20" xMax="1059" yMax="1914">
      <component glyphName="e" x="0" y="0" flags="0x1204"/>
      <component glyphName="grave" x="195" y="1180" flags="0x1004"/>
    </TTGlyph>
    <TTGlyph name="eight" xMin="158" yMin="-148" xMax="1104" yMax="1334">
      <contour>
        <pt x="926" y="964" on="1"/>
        <pt x="926" y="1032" on="0"/>
        <pt x="878" y="1123" on="0"/>
        <pt x="797" y="1177" on="0"/>
        <pt x="693" y="1199" on="0"/>
        <pt x="637" y="1199" on="1"/>
        <pt x="584" y="1199" on="0"/>
        <pt x="477" y="1179" on="0"/>
        <pt x="390" y="1127" on="0"/>
        <pt x="336" y="1036" on="0"/>
        <pt x="336" y="966" on="1"/>
        <pt x="336" y="907" on="0"/>
        <pt x="385" y="806" on="0"/>
        <pt x="468" y="733" on="0"/>
        <pt x="577" y="691" on="0"/>
        <pt x="637" y="691" on="1"/>
        <pt x="695" y="691" on="0"/>
        <pt x="800" y="732" on="0"/>
        <pt x="880" y="806" on="0"/>
        <pt x="926" y="905" on="0"/>
      </contour>
      <contour>
        <pt x="926" y="253" on="1"/>
        <pt x="926" y="322" on="0"/>
        <pt x="883" y="439" on="0"/>
        <pt x="806" y="526" on="0"/>
        <pt x="700" y="575" on="0"/>
        <pt x="637" y="575" on="1"/>
        <pt x="572" y="575" on="0"/>
        <pt x="462" y="527" on="0"/>
        <pt x="382" y="442" on="0"/>
        <pt x="336" y="324" on="0"/>
        <pt x="336" y="255" on="1"/>
        <pt x="336" y="191" on="0"/>
        <pt x="366" y="93" on="0"/>
        <pt x="437" y="26" on="0"/>
        <pt x="552" y="-9" on="0"/>
        <pt x="637" y="-9" on="1"/>
        <pt x="724" y="-9" on="0"/>
        <pt x="836" y="27" on="0"/>
        <pt x="901" y="95" on="0"/>
        <pt x="926" y="192" on="0"/>
      </contour>
      <contour>
        <pt x="1104" y="966" on="1"/>
        <pt x="1104" y="894" on="0"/>
        <pt x="1059" y="785" on="0"/>
        <pt x="985" y="705" on="0"/>
        <pt x="891" y="651" on="0"/>
        <pt x="842" y="634" on="1"/>
        <pt x="971" y="595" on="0"/>
        <pt x="1104" y="394" on="0"/>
        <pt x="1104" y="231" on="1"/>
        <pt x="1104" y="137" on="0"/>
        <pt x="1035" y="-5" on="0"/>
        <pt x="911" y="-100" on="0"/>
        <pt x="740" y="-148" on="0"/>
        <pt x="637" y="-148" on="1"/>
        <pt x="538" y="-148" on="0"/>
        <pt x="364" y="-102" on="0"/>
        <pt x="233" y="-8" on="0"/>
        <pt x="158" y="135" on="0"/>
        <pt x="158" y="233" on="1"/>
        <pt x="158" y="396" on="0"/>
        <pt x="291" y="597" on="0"/>
        <pt x="420" y="636" on="1"/>
        <pt x="372" y="652" on="0"/>
        <pt x="279" y="705" on="0"/>
        <pt x="204" y="785" on="0"/>
        <pt x="158" y="895" on="0"/>
        <pt x="158" y="968" on="1"/>
        <pt x="158" y="1056" on="0"/>
        <pt x="231" y="1192" on="0"/>
        <pt x="360" y="1285" on="0"/>
        <pt x="535" y="1334" on="0"/>
        <pt x="637" y="1334" on="1"/>
        <pt x="737" y="1334" on="0"/>
        <pt x="909" y="1285" on="0"/>
        <pt x="1033" y="1191" on="0"/>
        <pt x="1104" y="1054" on="0"/>
      </contour>
    </TTGlyph>
    <TTGlyph name="ellipsis" xMin="134" yMin="0" xMax="1428" yMax="293">
      <contour>
        <pt x="1428" y="293" on="1"/>
        <pt x="1428" y="0" on="1"/>
        <pt x="1167" y="0" on="1"/>
        <pt x="1167" y="293" on="1"/>
      </contour>
      <contour>
        <pt x="917" y="293" on="1"/>
        <pt x="917" y="0" on="1"/>
        <pt x="656" y="0" on="1"/>
        <pt x="656" y="293" on="1"/>
      </contour>
      <contour>
        <pt x="395" y="293" on="1"/>
        <pt x="395" y="0" on="1"/>
        <pt x="134" y="0" on="1"/>
        <pt x="134" y="293" on="1"/>
      </contour>
    </TTGlyph>
    <TTGlyph name="emdash" xMin="127" yMin="555" xMax="1067" yMax="699">
      <contour>
        <pt x="127" y="699" on="1"/>
        <pt x="1067" y="699" on="1"/>
        <pt x="1067" y="555" on="1"/>
        <pt x="127" y="555" on="1"/>
      </contour>
    </TTGlyph>
    <TTGlyph name="endash" xMin="362" yMin="555" xMax="832" yMax="699">
      <contour>
        <pt x="362" y="699" on="1"/>
        <pt x="832" y="699" on="1"/>
        <pt x="832" y="555" on="1"/>
        <pt x="362" y="555" on="1"/>
      </contour>
    </TTGlyph>
    <TTGlyph name="equal" xMin="178" yMin="280" xMax="766" yMax="639">
      <contour>
        <pt x="178" y="280" on="1"/>
        <pt x="178" y="411" on="1"/>
        <pt x="766" y="411" on="1"/>
        <pt x="766" y="280" on="1"/>
      </contour>
      <contour>
        <pt x="178" y="508" on="1"/>
        <pt x="178" y="639" on="1"/>
        <pt x="766" y="639" on="1"/>
        <pt x="766" y="508" on="1"/>
      </contour>
    </TTGlyph>
    <TTGlyph name="eth" xMin="101" yMin="-20" xMax="1132" yMax="1743">
      <contour>
        <pt x="1118" y="690" on="1"/>
        <pt x="1118" y="-20" on="0"/>
        <pt x="585" y="-20" on="1"/>
        <pt x="456" y="-20" on="0"/>
        <pt x="273" y="78" on="0"/>
        <pt x="156" y="244" on="0"/>
        <pt x="101" y="463" on="0"/>
        <pt x="101" y="584" on="1"/>
        <pt x="101" y="708" on="0"/>
        <pt x="160" y="928" on="0"/>
        <pt x="276" y="1093" on="0"/>
        <pt x="449" y="1190" on="0"/>
        <pt x="563" y="1190" on="1"/>
        <pt x="621" y="1190" on="0"/>
        <pt x="732" y="1161" on="0"/>
        <pt x="828" y="1115" on="0"/>
        <pt x="905" y="1057" on="0"/>
        <pt x="928" y="1028" on="1"/>
        <pt x="899" y="1116" on="0"/>
        <pt x="791" y="1292" on="0"/>
        <pt x="719" y="1380" on="1"/>
        <pt x="484" y="1311" on="1"/>
        <pt x="442" y="1401" on="1"/>
        <pt x="645" y="1461" on="1"/>
        <pt x="591" y="1515" on="0"/>
        <pt x="482" y="1604" on="0"/>
        <pt x="424" y="1641" on="1"/>
        <pt x="508" y="1743" on="1"/>
        <pt x="574" y="1706" on="0"/>
        <pt x="721" y="1594" on="0"/>
        <pt x="803" y="1508" on="1"/>
        <pt x="1090" y="1593" on="1"/>
        <pt x="1132" y="1503" on="1"/>
        <pt x="872" y="1426" on="1"/>
        <pt x="928" y="1353" on="0"/>
        <pt x="1019" y="1192" on="0"/>
        <pt x="1083" y="1011" on="0"/>
        <pt x="1118" y="806" on="0"/>
      </contour>
      <contour>
        <pt x="283" y="587" on="1"/>
        <pt x="283" y="123" on="0"/>
        <pt x="581" y="123" on="1"/>
        <pt x="666" y="123" on="0"/>
        <pt x="797" y="178" on="0"/>
        <pt x="887" y="305" on="0"/>
        <pt x="934" y="513" on="0"/>
        <pt x="934" y="666" on="1"/>
        <pt x="934" y="742" on="0"/>
        <pt x="903" y="858" on="0"/>
        <pt x="850" y="942" on="0"/>
        <pt x="783" y="999" on="0"/>
        <pt x="710" y="1033" on="0"/>
        <pt x="638" y="1047" on="0"/>
        <pt x="607" y="1047" on="1"/>
        <pt x="569" y="1047" on="0"/>
        <pt x="491" y="1035" on="0"/>
        <pt x="419" y="1000" on="0"/>
        <pt x="356" y="937" on="0"/>
        <pt x="310" y="835" on="0"/>
        <pt x="283" y="688" on="0"/>
      </contour>
    </TTGlyph>
    <TTGlyph name="exclam" xMin="319" yMin="0" xMax="532" yMax="1579">
      <contour>
        <pt x="319" y="121" on="1"/>
        <pt x="319" y="202" on="1"/>
        <pt x="444" y="202" on="1"/>
        <pt x="483" y="202" on="1"/>
        <pt x="498" y="202" on="0"/>
        <pt x="516" y="197" on="0"/>
        <pt x="525" y="181" on="0"/>
        <pt x="528" y="149" on="0"/>
        <pt x="528" y="121" on="1"/>
        <pt x="528" y="100" on="0"/>
        <pt x="532" y="65" on="0"/>
        <pt x="532" y="51" on="1"/>
        <pt x="532" y="39" on="0"/>
        <pt x="526" y="20" on="0"/>
        <pt x="507" y="7" on="0"/>
        <pt x="472" y="0" on="0"/>
        <pt x="444" y="0" on="1"/>
        <pt x="319" y="0" on="1"/>
      </contour>
      <contour>
        <pt x="502" y="399" on="1"/>
        <pt x="319" y="399" on="1"/>
        <pt x="319" y="1579" on="1"/>
        <pt x="502" y="1579" on="1"/>
      </contour>
    </TTGlyph>
    <TTGlyph name="exclamdown" xMin="319" yMin="0" xMax="532" yMax="1580">
      <contour>
        <pt x="502" y="0" on="1"/>
        <pt x="343" y="0" on="1"/>
        <pt x="343" y="1180" on="1"/>
        <pt x="502" y="1180" on="1"/>
      </contour>
      <contour>
        <pt x="319" y="1458" on="1"/>
        <pt x="319" y="1499" on="0"/>
        <pt x="323" y="1548" on="0"/>
        <pt x="337" y="1573" on="0"/>
        <pt x="363" y="1580" on="0"/>
        <pt x="385" y="1580" on="1"/>
        <pt x="432" y="1580" on="0"/>
        <pt x="490" y="1576" on="0"/>
        <pt x="521" y="1565" on="0"/>
        <pt x="532" y="1544" on="0"/>
        <pt x="532" y="1528" on="1"/>
        <pt x="532" y="1514" on="0"/>
        <pt x="528" y="1479" on="0"/>
        <pt x="528" y="1458" on="1"/>
        <pt x="528" y="1430" on="0"/>
        <pt x="525" y="1398" on="0"/>
        <pt x="516" y="1381" on="0"/>
        <pt x="498" y="1376" on="0"/>
        <pt x="483" y="1376" on="1"/>
        <pt x="475" y="1376" on="0"/>
        <pt x="455" y="1377" on="0"/>
        <pt x="444" y="1377" on="1"/>
        <pt x="319" y="1377" on="1"/>
      </contour>
    </TTGlyph>
    <TTGlyph name="f" xMin="38" yMin="0" xMax="814" yMax="1659">
      <contour>
        <pt x="571" y="1516" on="1"/>
        <pt x="512" y="1516" on="0"/>
        <pt x="451" y="1465" on="0"/>
        <pt x="425" y="1374" on="0"/>
        <pt x="423" y="1246" on="0"/>
        <pt x="423" y="1169" on="1"/>
        <pt x="771" y="1169" on="1"/>
        <pt x="771" y="1064" on="1"/>
        <pt x="423" y="1064" on="1"/>
        <pt x="423" y="0" on="1"/>
        <pt x="233" y="0" on="1"/>
        <pt x="233" y="1064" on="1"/>
        <pt x="38" y="1064" on="1"/>
        <pt x="38" y="1169" on="1"/>
        <pt x="233" y="1169" on="1"/>
        <pt x="233" y="1303" on="0"/>
        <pt x="270" y="1489" on="0"/>
        <pt x="348" y="1606" on="0"/>
        <pt x="467" y="1659" on="0"/>
        <pt x="548" y="1659" on="1"/>
        <pt x="619" y="1659" on="0"/>
        <pt x="753" y="1616" on="0"/>
        <pt x="814" y="1579" on="1"/>
        <pt x="751" y="1454" on="1"/>
        <pt x="710" y="1477" on="0"/>
        <pt x="619" y="1516" on="0"/>
      </contour>
    </TTGlyph>
    <TTGlyph name="f_j" xMin="38" yMin="-373" xMax="1186" yMax="1659">
      <contour>
        <pt x="966" y="1462" on="1"/>
        <pt x="966" y="1485" on="0"/>
        <pt x="982" y="1527" on="0"/>
        <pt x="1012" y="1558" on="0"/>
        <pt x="1052" y="1577" on="0"/>
        <pt x="1076" y="1577" on="1"/>
        <pt x="1100" y="1577" on="0"/>
        <pt x="1140" y="1558" on="0"/>
        <pt x="1170" y="1527" on="0"/>
        <pt x="1186" y="1485" on="0"/>
        <pt x="1186" y="1462" on="1"/>
        <pt x="1186" y="1439" on="0"/>
        <pt x="1170" y="1397" on="0"/>
        <pt x="1141" y="1366" on="0"/>
        <pt x="1100" y="1347" on="0"/>
        <pt x="1076" y="1347" on="1"/>
        <pt x="1052" y="1347" on="0"/>
        <pt x="1011" y="1366" on="0"/>
        <pt x="982" y="1397" on="0"/>
        <pt x="966" y="1439" on="0"/>
      </contour>
      <contour>
        <pt x="793" y="-258" on="1"/>
        <pt x="854" y="-219" on="0"/>
        <pt x="928" y="-135" on="0"/>
        <pt x="968" y="-32" on="0"/>
        <pt x="981" y="95" on="0"/>
        <pt x="981" y="176" on="1"/>
        <pt x="981" y="1064" on="1"/>
        <pt x="473" y="1064" on="1"/>
        <pt x="473" y="0" on="1"/>
        <pt x="283" y="0" on="1"/>
        <pt x="283" y="1064" on="1"/>
        <pt x="38" y="1064" on="1"/>
        <pt x="38" y="1169" on="1"/>
        <pt x="283" y="1169" on="1"/>
        <pt x="283" y="1303" on="0"/>
        <pt x="320" y="1489" on="0"/>
        <pt x="397" y="1606" on="0"/>
        <pt x="516" y="1659" on="0"/>
        <pt x="598" y="1659" on="1"/>
        <pt x="667" y="1659" on="0"/>
        <pt x="801" y="1617" on="0"/>
        <pt x="864" y="1579" on="1"/>
        <pt x="801" y="1454" on="1"/>
        <pt x="760" y="1477" on="0"/>
        <pt x="670" y="1516" on="0"/>
        <pt x="621" y="1516" on="1"/>
        <pt x="570" y="1516" on="0"/>
        <pt x="511" y="1484" on="0"/>
        <pt x="481" y="1405" on="0"/>
        <pt x="473" y="1271" on="0"/>
        <pt x="473" y="1169" on="1"/>
        <pt x="1171" y="1169" on="1"/>
        <pt x="1171" y="154" on="1"/>
        <pt x="1171" y="50" on="0"/>
        <pt x="1126" y="-126" on="0"/>
        <pt x="1040" y="-263" on="0"/>
        <pt x="918" y="-354" on="0"/>
        <pt x="840" y="-373" on="1"/>
      </contour>
    </TTGlyph>
    <TTGlyph name="five" xMin="135" yMin="-207" xMax="1007" yMax="1169">
      <contour>
        <pt x="186" y="31" on="1"/>
        <pt x="260" y="-9" on="0"/>
        <pt x="429" y="-56" on="0"/>
        <pt x="518" y="-56" on="1"/>
        <pt x="835" y="-56" on="0"/>
        <pt x="835" y="244" on="1"/>
        <pt x="835" y="400" on="0"/>
        <pt x="687" y="549" on="0"/>
        <pt x="538" y="549" on="1"/>
        <pt x="466" y="549" on="0"/>
        <pt x="329" y="500" on="0"/>
        <pt x="269" y="458" on="1"/>
        <pt x="171" y="537" on="1"/>
        <pt x="171" y="1169" on="1"/>
        <pt x="919" y="1169" on="1"/>
        <pt x="919" y="1018" on="1"/>
        <pt x="316" y="1018" on="1"/>
        <pt x="316" y="622" on="1"/>
        <pt x="316" y="621" on="0"/>
        <pt x="343" y="645" on="0"/>
        <pt x="401" y="674" on="0"/>
        <pt x="492" y="698" on="0"/>
        <pt x="556" y="698" on="1"/>
        <pt x="656" y="698" on="0"/>
        <pt x="822" y="637" on="0"/>
        <pt x="941" y="521" on="0"/>
        <pt x="1007" y="352" on="0"/>
        <pt x="1007" y="244" on="1"/>
        <pt x="1007" y="139" on="0"/>
        <pt x="939" y="-28" on="0"/>
        <pt x="812" y="-145" on="0"/>
        <pt x="630" y="-207" on="0"/>
        <pt x="516" y="-207" on="1"/>
        <pt x="418" y="-207" on="0"/>
        <pt x="224" y="-160" on="0"/>
        <pt x="135" y="-115" on="1"/>
      </contour>
    </TTGlyph>
    <TTGlyph name="florin" xMin="-174" yMin="-245" xMax="950" yMax="1659">
      <contour>
        <pt x="702" y="1516" on="1"/>
        <pt x="643" y="1516" on="0"/>
        <pt x="577" y="1467" on="0"/>
        <pt x="541" y="1359" on="0"/>
        <pt x="524" y="1186" on="0"/>
        <pt x="514" y="1062" on="1"/>
        <pt x="821" y="1062" on="1"/>
        <pt x="811" y="957" on="1"/>
        <pt x="504" y="957" on="1"/>
        <pt x="439" y="216" on="1"/>
        <pt x="428" y="90" on="0"/>
        <pt x="372" y="-85" on="0"/>
        <pt x="284" y="-195" on="0"/>
        <pt x="162" y="-245" on="0"/>
        <pt x="84" y="-245" on="1"/>
        <pt x="29" y="-245" on="0"/>
        <pt x="-65" y="-220" on="0"/>
        <pt x="-100" y="-205" on="1"/>
        <pt x="-140" y="-187" on="0"/>
        <pt x="-174" y="-165" on="1"/>
        <pt x="-100" y="-40" on="1"/>
        <pt x="-71" y="-58" on="0"/>
        <pt x="-41" y="-71" on="1"/>
        <pt x="-15" y="-83" on="0"/>
        <pt x="45" y="-102" on="0"/>
        <pt x="73" y="-102" on="1"/>
        <pt x="108" y="-102" on="0"/>
        <pt x="165" y="-83" on="0"/>
        <pt x="207" y="-37" on="0"/>
        <pt x="234" y="40" on="0"/>
        <pt x="239" y="98" on="1"/>
        <pt x="314" y="957" on="1"/>
        <pt x="81" y="957" on="1"/>
        <pt x="91" y="1062" on="1"/>
        <pt x="324" y="1062" on="1"/>
        <pt x="339" y="1226" on="0"/>
        <pt x="386" y="1453" on="0"/>
        <pt x="469" y="1595" on="0"/>
        <pt x="596" y="1659" on="0"/>
        <pt x="691" y="1659" on="1"/>
        <pt x="746" y="1659" on="0"/>
        <pt x="841" y="1634" on="0"/>
        <pt x="876" y="1619" on="1"/>
        <pt x="916" y="1601" on="0"/>
        <pt x="950" y="1579" on="1"/>
        <pt x="883" y="1458" on="1"/>
        <pt x="852" y="1474" on="0"/>
        <pt x="820" y="1487" on="1"/>
        <pt x="793" y="1498" on="0"/>
        <pt x="730" y="1516" on="0"/>
      </contour>
    </TTGlyph>
</ttFont>
